<svg width="256" height="270" viewBox="0 0 256 270" fill="none" xmlns="http://www.w3.org/2000/svg">
<g opacity="0.12">
<path fill-rule="evenodd" clip-rule="evenodd" d="M170.001 64.3708C168.642 65.0565 167.024 64.4234 166.381 62.9758C165.744 61.5229 166.321 59.7733 167.682 59.0996C173.073 56.3975 177.537 59.8138 181.319 63.2446C183.703 65.4131 187.359 67.0325 189.776 64.4673C190.833 63.329 192.546 63.3406 193.609 64.4813C194.668 65.6326 194.666 67.4706 193.602 68.6026C189.532 72.9247 183.189 72.5652 177.818 67.6762C173.496 63.7788 171.737 63.5066 170.001 64.3713V64.3708Z" fill="#915507"/>
<path fill-rule="evenodd" clip-rule="evenodd" d="M166.46 81.0667C162.951 83.478 158.562 86.4851 150.205 84.8686C146.778 84.2037 144.485 83.3757 142.648 82.7098C140.201 81.8161 139.073 81.4117 136.983 81.9314C135.529 82.2958 134.069 81.3205 133.724 79.7489C133.378 78.1826 134.284 76.6178 135.747 76.253C139.336 75.3603 141.665 76.2081 144.374 77.1847C146.132 77.8275 148.123 78.5489 151.149 79.1385C157.413 80.3511 160.25 78.4002 163.539 76.1502C167.269 73.5918 171.505 70.6869 179.888 73.3843C181.312 73.8374 182.148 75.465 181.72 77.0197C181.279 78.5479 179.771 79.4285 178.337 78.9638C172.349 77.0318 169.886 78.7206 166.46 81.0667H166.46Z" fill="#915507"/>
<path fill-rule="evenodd" clip-rule="evenodd" d="M149.759 264.766C150.623 263.935 152.507 264.548 152.507 264.548C153.183 264.894 156.142 265.116 157.567 264.263C158.65 263.617 160.027 264.042 160.652 265.218C161.252 266.389 160.856 267.87 159.767 268.516C156.825 270.263 150.913 270.212 149.297 267.835C148.607 266.824 148.889 265.597 149.758 264.766H149.759Z" fill="#915507"/>
<path fill-rule="evenodd" clip-rule="evenodd" d="M48.4804 68.039C44.038 68.4549 39.9038 63.0409 39.1992 58.7676C38.9981 57.5091 39.0163 55.9167 39.1662 54.6839C39.2262 54.0682 39.3728 53.245 39.6511 52.5048C39.9141 51.8215 40.2622 51.2087 40.7369 50.8521C42.5646 49.5116 42.4045 51.5822 42.4901 52.9974C42.7307 57.03 45.1206 60.1413 48.1792 62.3431C49.2576 63.1224 51.9718 63.8568 51.9062 65.426C51.8555 66.864 49.5885 67.9309 48.4808 68.039H48.4804Z" fill="#915507"/>
<path fill-rule="evenodd" clip-rule="evenodd" d="M204.852 113.5C204.227 111.957 204.12 111.927 202.786 112.406C200.978 113.033 197.358 114.721 196.341 116.584C195.887 117.438 200.693 116.763 201.069 116.7C202.623 116.435 205.155 115.984 205.634 114.879C205.812 114.457 205.202 114.349 204.852 113.5V113.5ZM210.926 127.862C210.636 128.178 210.355 128.458 210.067 128.686C207.113 130.967 203.804 128.437 201.327 126.606C197.681 123.886 195.104 123.015 190.762 122.489C189.107 122.287 187.101 122.493 186.226 120.804C184.571 117.627 188.697 114.172 190.802 112.584C192.227 111.514 194.108 111.183 195.682 110.419C199.557 108.536 204.774 106.988 207.077 102.799C208.618 99.9855 209.572 100.176 212.223 101.826C213.551 102.651 216.586 103.822 216.376 105.812C215.96 109.679 210.779 110.539 210.788 115.535C210.793 119.361 214.086 124.215 210.925 127.862L210.926 127.862Z" fill="#915507"/>
<path fill-rule="evenodd" clip-rule="evenodd" d="M12.4461 261.351C13.1564 260.543 13.7241 259.948 14.0602 259.654C18.2102 256.073 22.4161 252.023 27.2451 248.957C43.29 238.764 60.947 239.558 77.414 231.797C79.7252 230.701 82.0187 229.381 83.9059 227.562C84.6249 226.864 85.2849 226.083 85.8131 225.207C86.0663 224.793 86.3884 224.359 86.4405 223.849C86.5015 223.232 86.313 222.576 86.2892 221.991C86.2715 221.641 86.3069 221.285 86.4098 220.953C86.6039 220.295 86.7607 219.32 86.7244 218.464C86.6974 217.845 86.561 217.282 86.306 216.934C85.9644 216.494 84.5589 215.43 83.4479 214.595C79.4673 211.599 74.0267 207.493 72.497 201.556C72.2545 200.598 72.1232 199.672 72.0855 198.761C71.9343 195.194 73.2341 192.062 74.5531 189.216L74.7816 189.542C75.006 190.446 75.2359 191.341 75.47 192.228C76.2388 193.227 77.0086 194.223 77.776 195.196L77.4396 193.222C77.9571 193.923 78.4751 194.617 78.9945 195.3C79.9057 195.811 80.8165 196.322 81.719 196.812C80.1156 194.27 78.4174 191.487 76.6828 188.502L76.2425 185.525C76.9002 183.965 77.4251 182.405 77.6355 180.741C77.7895 179.388 77.8472 178.08 77.8994 176.733C77.9319 176.146 77.9659 175.552 77.9068 174.963C77.8207 173.898 77.8114 172.732 77.515 171.707C77.3265 171.057 77.1571 170.399 77.0137 169.734C76.8736 169.087 76.7461 168.435 76.6288 167.779L76.6591 167.604C78.0255 167.176 81.7115 165.7 84.7976 161.541C84.9861 161.289 85.1681 161.015 85.344 160.723C85.4752 161.755 85.7703 162.765 86.0831 163.49C87.2619 166.172 90.0804 168.182 94.4729 169.449C97.2444 170.243 100.942 170.83 102.786 169.05C104.09 167.8 104.694 164.861 103.668 163.18C102.668 161.559 100.72 161.572 99.1582 161.146C96.7246 160.49 94.3557 159.526 92.1594 158.246C90.9047 157.523 88.7121 156.116 87.1395 156.466C87.8749 154.081 88.3635 151.466 88.6279 149.31C89.2729 149.969 90.2657 150.371 91.0899 150.965C95.0733 153.829 98.8636 155.749 103.673 156.66C108.425 157.549 112.223 156.287 114.127 153.209C115.588 150.867 115.027 147.281 112.552 145.96C110.07 144.633 105.265 146.873 102.835 147.728C98.9836 149.076 95.8059 147.958 92.3893 146.014C91.2965 145.386 89.7937 144.84 88.8448 145.451C88.7871 144.628 88.6023 144.406 88.2984 145.118C86.9897 148.19 83.0933 150.024 79.525 153.423C77.7584 155.145 76.9048 158.727 76.4929 161.878C76.3473 160.907 76.1602 159.949 75.954 159.051C76.1788 157.463 76.6619 155.926 77.4186 154.525C77.8715 153.675 78.4127 152.819 79.0708 152.15C79.6907 151.519 79.9295 150.608 79.7052 149.691C79.5511 149.016 79.0657 148.327 78.8265 147.663C78.7148 147.38 78.618 147.093 78.5263 146.804C80.2804 146.534 83.7909 145.623 87.0329 142.533C91.6642 138.261 94.3771 124.718 92.6225 127.429C90.9331 130.158 86.7528 131.251 82.6456 133.86C79.9923 135.605 78.5565 140.697 77.884 143.983C77.8161 143.718 77.7188 143.466 77.568 143.253C76.9104 142.307 75.7348 141.968 74.8184 141.415C74.353 141.132 73.896 140.834 73.4487 140.521C72.5574 138.451 71.5955 136.539 70.7261 134.761C71.1342 133.324 71.3674 131.697 71.4791 130.147C73.3389 134.744 75.5854 137.461 75.5854 137.461C75.5854 137.461 78.3052 130.852 78.1214 125.136C79.0005 125.848 79.9965 126.573 81.0246 127.193L81.0069 127.27L81.1777 127.285C82.3296 127.968 83.5196 128.517 84.6282 128.777C84.5672 128.203 84.47 127.644 84.3392 127.097C86.2385 126.78 88.7266 126.018 91.1779 124.244C96.3215 120.67 100.328 107.933 98.2953 110.333C98.0296 110.652 97.7219 110.939 97.3784 111.199C98.9943 108.481 100.391 105.503 101.976 102.851C109.671 89.9786 117.739 77.2846 127.243 65.8688C132.013 60.1252 137.15 54.6991 142.751 49.8911C145.446 47.5952 148.238 45.432 151.158 43.4512C152.402 42.6237 157.09 40.4528 156.568 38.4179C156.45 37.9503 155.556 37.5759 154.551 37.2294C157.037 36.3478 159.643 34.727 161.626 33.234C164.264 33.568 166.669 33.1149 168.802 31.8762C170.808 30.7152 172.204 29.0958 173.128 27.7409C173.322 27.033 173.538 26.3618 173.783 25.7562C175.485 24.8804 177.027 23.8835 178.148 23.0449L178.261 23.1004C178.763 23.3725 179.669 24.0471 179.731 25.5063C179.753 26.0877 179.647 26.7884 179.311 27.6511C179.041 28.318 178.606 29.1489 178.069 30.0382C177.795 31.3874 177.633 33.0386 177.715 34.9413C177.819 37.3974 178.292 40.1941 179.341 43.0787C180.11 45.155 182.625 47.2348 186.092 48.6119C191.863 50.9392 198.522 50.8629 203.102 48.4329C204.421 47.7318 206.042 48.2838 206.722 49.6663C207.394 51.0453 206.86 52.7357 205.541 53.4397C198.413 57.2189 189.83 56.123 184.162 53.8518C181.219 52.6667 178.189 50.9131 176.174 48.3021C174.377 45.971 173.593 42.7284 171.53 40.6115C169.508 38.5448 167.805 39.6928 165.513 40.6805C159.276 43.3634 153.708 46.6456 148.37 51.0038C141.522 56.609 135.329 63.0498 129.618 69.8975C126.976 73.0542 124.413 76.2558 122.381 79.774C121.274 81.6896 118.094 84.1124 118.644 86.6052C119.523 90.5354 128.902 88.2748 131.267 87.675C136.31 86.4339 139.776 89.4155 142.84 92.0245C145.714 94.497 148.444 96.8325 152.781 96.6347C155.815 96.4991 156.674 95.2001 158.229 92.8651C160.283 89.7846 163.099 85.562 171.705 85.1706C173.193 85.1021 174.444 86.307 174.511 87.8487C174.577 89.4063 173.431 90.7106 171.942 90.7777C165.999 91.0479 164.512 93.2695 162.645 96.0715C162.26 96.6438 161.852 97.2552 161.408 97.8497C161.387 97.9558 161.371 98.0509 161.34 98.157C160.222 101.719 158.695 105.228 156.358 108.11C154.649 110.218 152.213 111.503 150.43 113.549C149.284 114.863 147.724 117.621 148.541 119.412C149.891 122.299 152.877 119.47 154.848 119.088C157.211 118.633 159.762 118.904 162.079 118.363C164.32 117.839 165.909 115.074 164.902 113.072C163.26 109.86 162.131 106.809 163.917 103.088C165.366 100.071 168.114 98.5262 171.265 98.9581C174.205 99.359 179.29 100.389 179.331 95.9823C179.347 93.5358 176.628 89.7692 180.565 89.1453C183.242 88.7279 186.063 82.9582 187.137 79.1978C187.154 79.1771 187.164 79.1177 187.162 79.1032C187.626 77.6474 189.117 76.8522 190.521 77.3068C194.894 78.7269 189.72 85.7111 196.666 84.3841C200.773 83.5903 201.317 79.5274 200.36 75.7342C200.074 74.5993 200.523 73.4103 201.44 72.7449C202.367 72.0703 203.625 72.0964 204.547 72.756C204.677 72.8549 205.8 73.6154 207.54 73.0378C208.744 72.6334 207.806 68.2356 207.68 67.3931C207.256 64.5573 205.376 65.0364 204.239 63.0812C202.909 60.7853 205.32 57.9639 207.647 58.873L207.442 58.8045C207.456 58.8026 208.599 59.0226 210.528 57.0046C211.288 56.2316 213.551 53.8493 216.249 54.7107C218.425 55.4132 219.543 57.9345 219.93 60.1575C220.151 61.3166 220.041 61.9651 220.996 62.7738C221.699 63.3871 222.653 63.4947 223.3 64.2349C224.892 66.0478 221.508 68.6733 222.63 70.8128C222.975 71.4633 223.728 71.8213 224.357 72.0221C225.085 72.2681 225.715 72.384 226.528 72.3463C227.874 72.2759 228.994 72.2498 230.272 71.7432C231.651 71.1873 232.814 70.1199 233.66 68.8619C235.026 66.8063 235.914 63.5304 234.302 60.4987C232.019 56.2239 228.07 56.3523 226.448 56.6152C225.741 57.1369 224.797 57.2768 223.926 56.9187C222.61 56.3691 221.956 54.8704 222.366 53.4783C222.461 52.2594 222.997 50.9406 223.376 49.757C223.998 47.7767 223.071 43.7736 220.878 43.1366C220.551 43.0469 220.075 43.0305 219.782 43.1496C219.018 43.457 220.118 45.4586 220.285 45.9855C220.585 46.9785 220.821 47.9981 220.928 49.0192C221.04 50.2303 220.955 51.7566 219.985 52.5933C219.097 53.3557 217.703 52.5967 217.23 51.6707C216.99 51.1674 216.899 50.6666 216.618 50.1686C216.345 49.6639 216.077 49.1514 215.819 48.65C214.668 46.4661 213.525 44.2464 212.047 42.2656C210.527 40.2347 208.539 38.3706 206.001 38.0261C202.486 37.5358 199.475 34.7671 195.996 33.8425C191.533 32.6497 188.301 37.0142 183.72 35.0913C182.34 34.5099 181.665 32.8813 182.232 31.4294C182.785 29.9962 184.349 29.3028 185.731 29.8824C187.891 30.7958 191.229 28.9506 192.099 26.8545C192.358 26.1818 192.396 25.2814 192.464 24.4075C192.428 24.1523 192.417 23.8956 192.458 23.6234C192.724 21.6055 192.683 18.9086 191.028 17.6289C189.604 16.5143 187.353 16.6426 185.867 17.349C184.516 17.9918 182.923 17.3732 182.303 15.968C181.95 15.1144 182.022 14.1884 182.42 13.4376C182.788 11.755 181.77 10.1038 180.312 8.88877L181.41 7.74999C181.626 7.57676 181.85 7.38664 182.083 7.2221C180.837 6.37284 177.936 6.07029 174.518 6.77527C174.041 6.79361 173.57 6.86116 173.111 6.99145C172.802 7.07734 172.494 7.19508 172.25 7.37554C170.129 8.05978 167.909 9.12907 165.826 10.6814C164.805 9.93587 163.5 9.52958 161.915 9.44417C160.936 9.38819 160.017 9.4625 159.16 9.6449C159.677 8.54955 160.265 7.61054 160.998 6.88384C163.547 4.38673 150.799 10.3422 147.055 16.6778C146.872 17.0098 146.701 17.3394 146.539 17.6675C146.638 17.2424 146.745 16.8197 146.859 16.4023C148.526 10.2973 147.114 6.45149 140.737 5.88307C138.21 5.65579 134.506 6.0674 131.259 9.30423C128.152 12.4108 127.704 15.5526 127.22 18.8864C126.666 22.6786 125.989 27.391 120.396 29.7724C118.758 30.46 116.483 29.6628 114.908 30.6351C111.66 32.6888 115.789 34.2855 117.705 35.1352C117.996 35.2641 118.291 35.3847 118.586 35.4986C117.489 36.9669 116.59 38.5077 116.108 40.0117L115.916 40.6641C112.87 39.3111 109.827 37.254 107.481 34.3241C106.322 32.8654 105.432 31.2832 104.816 29.6155C105.718 28.1042 106.069 27.1131 105.54 27.5488C105.071 27.9349 104.715 28.1805 104.404 28.346C104.1 27.2637 103.906 26.149 103.823 25.016C101.856 25.4744 99.8302 26.0207 97.7969 26.6726C99.4826 24.7381 100.29 22.6178 101.005 20.5719L101.359 19.672C104.438 18.9433 107.553 18.3879 110.709 17.8827C112.866 17.5305 114.997 17.0552 117.185 16.9307C117.693 16.8897 118.259 16.8076 118.784 16.8409C120.035 16.962 121.968 16.6638 122.34 15.0502C122.616 13.9544 122.854 12.8957 123.228 11.8414C124.17 9.2415 125.669 6.93499 127.563 5.04153C132.243 0.34551 137.547 -0.247042 141.161 0.0714305C145.897 0.492682 150.552 2.74756 153.504 5.95062C156.117 4.45815 159.392 3.55967 162.564 3.66245C164.232 3.72759 165.744 4.0615 167.12 4.63331C171.124 0.0622624 177.248 0.213295 181.653 2.54635C185.464 4.56237 187.917 7.86628 188.489 11.3811C190.721 11.2522 193.088 11.7835 195.054 13.3599C197.039 14.9402 199.231 18.0487 198.762 23.9897C200.15 25.9126 201.104 28.747 202.252 30.3195C204.23 32.9995 206.311 32.8948 209.208 33.8097C211.778 34.6131 213.973 36.1095 215.832 38.0179C219.669 37.0205 224.174 38.3084 226.969 41.3382C228.6 43.1067 230.808 46.7049 229.856 52.698C233.395 52.9552 237.67 54.6344 240.332 59.7831C241.288 61.6244 241.804 63.6443 241.89 65.6864C242.018 68.7553 241.189 71.8932 239.413 74.6234C237.237 77.9683 233.439 80.0128 229.575 80.8365C227.819 81.222 225.994 80.9484 224.269 80.4191C223.18 80.0963 222.651 81.2052 221.981 82.3029C218.604 87.8767 221.573 110.613 232.494 131.754C235.513 137.587 239.997 148.639 230.125 151.909C225.263 153.516 221.975 154.11 222.254 160.694C222.288 161.508 222.376 162.291 222.45 162.987C222.499 163.396 222.543 163.863 222.568 164.366C222.762 164.905 222.811 165.516 222.66 166.122C222.602 166.323 222.531 166.509 222.452 166.69C222.156 168.077 221.411 169.339 219.61 169.847C219.304 169.935 219.191 170.077 219.106 170.276C219.006 170.503 218.968 170.794 218.981 171.096C218.993 171.414 219.069 171.748 219.191 172.035C219.666 173.075 219.861 174.016 219.897 174.83C219.943 175.872 219.719 176.719 219.46 177.344C218.772 178.961 217.399 180.031 215.923 180.726C215.091 181.119 214.412 181.156 214.502 182.339C214.577 183.154 214.967 183.896 215.217 184.671C215.686 186.118 216.222 187.766 216.495 189.435C216.597 190.099 216.768 191.023 216.815 192.131C217.004 196.611 215.374 203.903 201.466 207.306C194.684 208.955 187.174 209.296 182.019 208.562C180.029 208.282 179.959 217.245 180.799 219.396C182.84 224.68 189.223 226.47 192.913 227.632C202.147 230.552 211.603 231.614 221.122 232.265C225.649 232.568 230.275 233.236 234.564 234.685C242.17 237.244 248.317 241.783 253.684 247.372C255.179 248.928 256.993 253.751 255.35 255.834C254.896 256.409 254.417 255.457 251.218 251.777C241.525 240.622 230.942 237.141 220.381 236.83C209.552 236.511 195.325 232.576 191.969 239.463C191.299 240.728 190.22 242.778 190.582 244.307C190.75 245.065 191.232 247.096 189.704 248.235C188.209 249.364 186.72 248.311 185.642 247.544C185.054 247.13 184.326 246.608 183.72 246.387C181.633 245.661 179.212 246.098 177.36 247.313C175.528 248.524 174.71 250.812 173.146 252.392C169.883 255.667 165.559 257.163 161.287 258.227C157.8 259.098 152.825 258.59 149.64 256.749C148.45 256.065 147.753 254.793 147.835 253.496C147.787 254.305 158.904 251.763 160.356 250.848C168.147 245.909 168.271 237.609 167.302 229.291C166.202 219.981 165.505 210.822 166.154 201.44C166.247 200.094 154.145 194.136 158.325 187.296C158.997 187.359 159.538 188.202 159.982 188.697C166.612 195.929 173.76 200.957 183.284 202.436C189.262 203.361 195.441 202.552 201.106 200.715C205.633 199.245 212.242 196.975 211.153 190.447C210.959 189.245 210.517 187.877 210.095 186.565C209.492 184.767 208.928 183.023 208.857 181.376C208.815 180.36 208.962 179.376 209.425 178.444C209.852 177.544 210.757 176.367 212.619 175.811C213.216 175.637 213.77 175.591 214.124 174.978C214.365 174.574 214.235 174.423 214.083 174.002C213.819 173.238 213.691 172.416 213.578 171.609C213.34 170.076 211.329 171.272 210.601 171.479C209.762 171.704 208.702 171.443 207.922 171.857C207.309 172.187 207.012 172.949 206.604 173.539C206.23 174.071 205.892 174.777 205.517 175.3C204.668 176.456 203.563 178.077 201.956 177.616C201.951 177.501 202.001 177.248 201.978 177.16C201.794 175.811 202.954 173.593 203.572 172.457C204.217 171.264 204.679 169.863 205.006 168.506C205.154 167.848 205.328 167.198 205.443 166.544C205.545 166.005 205.542 164.946 205.99 164.559C206.883 163.8 207.564 165.232 208.272 165.602C209.471 166.251 210.564 165.229 211.563 164.598C212.429 164.041 213.31 163.493 214.246 163.068C215.098 162.682 216.193 162.529 216.689 161.585C216.998 161.009 216.795 160.155 216.809 159.516C216.831 158.493 216.935 157.474 217.104 156.481C217.157 156.175 217.482 155.279 217.342 155.063C217.196 154.834 216.391 154.796 216.161 154.811C215.649 154.903 215.226 154.923 214.734 155.102C214.299 155.253 213.81 155.259 213.371 155.164C212.456 154.944 211.694 154.24 211.367 153.302C210.858 151.796 211.586 150.117 212.988 149.572C217.454 147.829 219.759 148.308 221.612 148.688C222.408 148.856 223.03 148.981 223.837 148.944L224.8 148.923C225.8 148.906 228.873 149.322 230.726 146.806C234.939 141.089 219.426 122.456 217.417 97.9066C216.532 87.0124 217.482 75.8186 216.422 64.9698C216.206 62.7227 213.99 65.7453 213.869 66.5168C213.56 68.2795 214.295 70.3665 214.412 72.1369C214.658 75.9552 214.07 79.8232 210.237 81.141C209.455 81.4117 208.409 81.2771 207.679 81.8064C206.826 82.4342 207.027 83.9305 206.846 84.924C206.29 87.7768 204.823 90.3226 202.376 91.6998C199.983 93.0393 197.426 94.5598 194.669 94.8174C193.464 94.9236 192.28 94.7426 191.135 94.3103C190.642 94.1149 190.035 93.5986 189.532 93.5218C188.198 93.3394 187.175 95.2459 186.287 96.004C184.573 97.4762 185.108 98.6613 185.047 100.715C184.97 102.715 184.393 104.68 183.065 106.138C181.956 107.362 180.546 107.973 179.023 108.385C176.235 109.125 177.076 112.606 176.644 115.008C176.121 118.116 174.932 121.181 172.994 123.594C171.267 125.752 168.954 127.282 166.391 127.97C164.621 128.436 163.05 128.495 161.793 130.085C160.664 131.519 160.647 133.678 159.43 135.069C157.199 137.658 153.843 137.971 150.738 138.14C147.726 138.302 145.458 138.647 144.783 142.065C144.275 144.719 145.556 147.556 143.779 149.815C142.215 151.792 135.96 152.577 136.538 156.037C136.908 158.367 141.486 158.756 139.415 161.98C137.603 164.816 134.093 163.763 131.713 164.751C129.325 165.755 129.86 168.858 129.941 171.337C130.009 173.207 130.238 174.753 128.782 175.835C127.81 176.571 127.111 175.712 126.171 177.022C125.089 178.522 125.887 180.442 125.492 182.107C124.85 184.832 123.743 185.05 121.6 185.38C118.62 185.838 115.757 183.848 112.851 184.795C111.523 185.24 110.173 186.669 109.468 187.919C108.345 189.878 108.846 190.266 109.395 192.014C110.521 195.723 110.335 199.43 107.887 202.676C107.251 203.527 106.513 204.286 105.748 205.009C104.995 205.698 103.834 206.351 103.566 207.43C102.947 209.761 103.521 212.558 103.149 214.979C102.664 218.165 101.447 221.154 99.5365 223.655C97.4208 226.432 95.0989 227.742 92.6202 227.555C91.398 227.452 90.2531 227.125 89.3218 228.271C88.5297 229.251 87.8805 230.279 86.9692 231.17C84.7171 233.347 82.0066 234.937 79.2495 236.236C75.5775 237.966 69.6142 239.754 63.2982 241.643L53.7006 244.608C30.7757 251.55 26.9258 257.721 17.7774 266.792C13.9294 270.342 10.7139 263.645 12.4466 261.349L12.4461 261.351ZM67.9997 127.838C67.9295 127.478 67.8787 127.127 67.8522 126.781C67.7461 125.27 67.1546 126.539 66.6151 129.112C65.9091 129.761 65.1719 130.447 64.4552 131.203C63.657 130.072 62.8984 128.909 62.1817 127.724L61.572 126.692C62.8393 126.312 66.1214 125.063 68.7039 121.796C68.9506 121.487 69.1786 121.141 69.3908 120.762C69.3922 122.033 69.4932 123.26 69.725 124.386C69.8134 124.805 69.9065 125.218 70.0075 125.62C69.4918 126.369 68.7923 127.088 68.0002 127.838H67.9997ZM61.0061 125.695C60.4145 124.63 59.8505 123.551 59.3078 122.459C58.835 121.513 58.3966 120.557 57.9651 119.599C58.4128 117.354 59.3348 111.337 57.2661 107.768C55.4505 104.639 53.4018 102.017 52.2029 99.692C53.2561 100.035 54.2917 100.087 54.9186 99.3972C56.9799 102.748 59.2501 104.585 59.2501 104.585C59.2501 104.585 61.9946 96.514 59.6834 91.9825C57.4923 87.4655 54.6528 83.9754 54.4457 80.9566C54.4006 80.1103 54.0827 80.3897 53.7039 81.3644C53.4791 80.9933 53.1342 80.7178 52.6125 80.5349C49.4329 79.4429 49.4747 88.1512 48.8544 90.0703C47.7257 93.5122 46.0777 96.0706 49.5841 98.3776C49.7512 98.4914 49.9057 98.5899 50.0872 98.6965L50.1593 98.739C49.5352 101.896 49.1597 107.527 50.702 111.187C51.9363 114.021 53.5773 116.248 54.967 117.81C54.4132 118.236 54.106 118.975 53.8291 119.682C51.9651 117.364 50.3548 115.367 49.7973 113.438L49.8401 112.946C50.1226 109.099 48.9884 105.186 47.0886 103.435C43.4384 100.075 38.7634 99.6814 34.1769 100.3C32.877 100.479 30.0948 100.401 29.6382 102.098C29.4297 102.909 29.8304 104.007 29.9258 104.845C30.0087 105.479 30.145 106.097 30.4364 106.658C31.2415 108.121 33.0143 108.71 34.4175 109.192C38.4093 110.527 39.946 112.931 40.5264 114.721C41.8114 118.683 39.5309 122.438 39.2721 122.848C38.4358 124.172 36.7631 124.5 35.5279 123.616C34.7623 123.079 34.3542 122.207 34.3146 121.314C34.2876 120.723 34.4421 120.114 34.7623 119.581C35.4097 118.536 35.7704 117.148 34.6883 116.295C33.5239 115.384 32.1938 115.461 31.1298 116.458C29.9775 117.54 29.7332 119.51 29.8644 121.06C29.9072 121.487 29.9775 121.903 30.1301 122.294C30.4159 122.978 30.9535 123.613 31.525 124.021C34.1564 125.907 39.7761 126.135 44.2394 123.187C46.7247 121.552 48.1251 119.339 48.9083 117.257C48.9102 119.793 49.2034 122.989 50.0751 125.658C49.1708 126.606 48.1679 127.444 47.0863 128.153C41.2827 131.973 33.2935 132.29 28.5129 128.866C27.0371 127.802 25.8131 126.316 25.1373 124.519C24.4396 122.632 24.0515 117.747 25.5939 114.771C26.1184 113.748 27.4145 112.716 27.0101 111.401C26.8807 110.985 26.4297 110.649 26.1798 110.283C25.8829 109.852 25.6315 109.381 25.4105 108.892C24.6435 107.163 24.5569 105.335 24.3754 103.462L24.1055 100.776C23.9091 99.623 23.7173 99.4551 21.6612 98.7506C20.0416 98.1971 18.0124 97.4989 16.316 95.4877C14.3929 93.1754 13.7255 89.9347 13.1545 87.0631C12.8594 85.6155 12.3652 83.1985 11.8732 82.7551L11.5242 82.4568C8.6019 79.9805 2.50135 74.8333 0.206437 57.0596C0.111029 56.3349 0.0500598 55.6043 0.019343 54.9095C-0.185435 50.0851 1.24149 45.4711 4.02601 41.6934C6.5783 38.2481 9.993 35.6274 13.5873 33.5424C15.1474 32.628 16.7921 31.8149 18.4308 31.0549C19.1247 30.7287 19.8237 30.4194 20.5284 30.1178C21.6621 29.6204 22.9601 29.4915 23.6806 28.2615C24.1283 27.4919 23.9719 26.5712 24.085 25.7012C24.7389 20.6602 27.4569 16.8723 31.4877 14.2574C37.572 10.2939 41.6876 11.1938 45.6598 12.072C48.4546 12.6882 51.3485 13.3107 55.6041 12.4986C56.1938 12.391 56.7853 12.2935 57.3801 12.2361C62.2869 11.7087 67.1755 13.0989 71.1822 16.2049C73.3012 17.8412 75.1111 19.8819 76.646 22.129C77.4531 23.3402 78.3424 24.6411 78.9163 26.0129C79.3654 27.088 80.0775 28.7354 81.4811 27.9976L81.9987 27.7071C80.514 30.0474 79.1657 32.7756 78.8297 35.1087C78.7311 35.9642 78.6915 36.786 78.6948 37.5701C77.8589 38.3938 77.0486 39.2619 76.263 40.1753C76.1248 38.6857 76.1425 37.3616 76.5055 36.232C77.4991 33.3735 70.0945 42.7004 69.7134 48.8981L69.6971 49.7536C68.9692 51.0724 68.2734 52.4312 67.6125 53.8214C67.3733 52.575 67.2905 51.4381 67.4938 50.4205C68.091 47.4968 61.7842 57.4828 62.2673 63.6921C62.359 64.7546 62.5317 65.7568 62.756 66.6867C62.3213 68.157 61.9201 69.6383 61.5539 71.1294C60.6296 68.9454 59.938 67.0298 60.0743 65.3616C60.3154 62.3801 55.3207 72.9586 56.5554 79.11C57.5528 83.4928 59.7616 86.6742 60.9567 88.1479C61.4566 92.7879 62.4363 97.37 63.8725 101.785C61.9276 105.191 62.1417 111.147 62.1417 111.147C62.1417 111.147 64.2946 110.731 66.7464 109.101L67.2495 110.157C67.5837 110.845 67.9285 111.527 68.2883 112.203C66.8828 113.279 65.184 114.391 63.5663 115.813C61.2085 117.943 60.9837 123.332 61.0038 125.693L61.0061 125.695ZM85.9872 25.3147C88.1453 24.1803 90.3685 23.1925 92.6225 22.3317C91.0517 24.4375 89.7756 27.0499 89.1915 30.1545C88.1937 30.6578 87.2107 31.1929 86.2474 31.7667C86.1035 29.3463 85.8592 27.1638 85.9867 25.3152L85.9872 25.3147ZM109.261 26.8694C110.492 27.1951 112.199 26.4535 113.337 26.0511C115.237 25.3731 117.386 25.3432 119.367 24.9383C119.982 24.7931 120.742 24.4872 120.882 23.843C121.223 22.1565 119.503 22.2231 118.571 22.2405C117.999 22.2439 117.43 22.2665 116.865 22.2979C114.642 22.419 112.421 22.7563 110.327 23.5539C109.715 23.7759 108.862 23.8932 108.439 24.4095C108.335 24.5455 108.246 24.7057 108.202 24.8959C108.01 25.7601 108.463 26.6513 109.261 26.8694V26.8694ZM97.6479 176.128C95.9659 174.76 92.8277 176.923 91.2263 177.739C88.6903 179.029 86.5694 177.868 84.2889 175.867C83.1975 174.905 81.476 174.104 81.368 177.168C81.3536 177.413 81.3629 177.643 81.3964 177.846C81.5886 179.4 82.6605 179.884 83.4959 180.795C86.165 183.721 88.7098 185.7 91.9071 186.675C95.0705 187.646 97.5762 186.442 98.791 183.397C99.7218 181.071 99.2927 177.492 97.6479 176.128V176.128ZM132.216 133.885C131.677 132.568 128.318 131.009 127.027 130.584C125.021 129.906 122.822 130.007 120.778 130.304C116.966 130.851 113.297 132.231 109.728 133.707C106.407 135.084 102.76 134.692 99.7083 132.645C97.9756 131.471 97.3878 129.63 95.2669 130.234C93.4449 130.752 92.0426 133.324 91.9579 135.232C91.8592 137.68 93.18 139.892 95.044 141.295C96.8754 142.669 99.2084 143.258 101.248 142.551C106.824 140.595 113.529 139.585 120.652 139.627L122.775 139.685C125.35 139.758 134.443 139.312 132.216 133.884V133.885ZM148.567 111.512C150.738 110.684 155.587 106.166 151.083 105.575C146.552 104.967 143.304 102.848 139.777 99.7287C136.814 97.1143 135.167 95.7796 132.793 96.3818C128.48 97.4738 123.653 98.048 119.292 96.9705C115.348 95.9977 112.082 96.0373 109.902 100.392C108.144 103.919 108.68 109.672 111.93 111.875C113.687 113.062 115.708 113.285 117.614 112.507C125.622 109.219 135.717 106.057 142.605 110.781C144.425 112.029 146.548 112.289 148.566 111.511L148.567 111.512ZM132.358 114.292C127.938 114.659 123.668 116.266 119.561 117.954C116.076 119.381 112.237 118.958 109.043 116.797C106.656 115.179 105.966 113.204 102.883 114.512C101.077 115.285 99.6589 116.925 98.9204 118.831C96.7544 124.375 102.643 130.621 107.835 128.475C115.508 125.281 125.174 122.223 131.788 126.813C133.515 128.017 135.516 128.278 137.419 127.551C139.849 126.614 142.45 123.82 143.411 121.261C145.444 115.859 135.347 114.024 132.358 114.292V114.292ZM82.4445 122.579C80.3367 119.057 77.1249 116.097 74.4772 113.431C73.5716 110.99 72.9242 108.83 72.9745 106.944C73.007 105.5 72.3043 106.53 71.5117 108.8C71.4181 108.662 71.2943 108.735 71.1449 109.079L70.9797 109.42C70.4012 108.621 69.8474 107.792 69.3294 106.936C69.5435 106.711 69.7571 106.474 69.9642 106.225C71.0393 104.948 71.8319 103.012 72.3778 101.025C73.1685 102.706 74.1068 104.285 75.1386 105.725C76.2183 113.201 79.7177 118.24 79.7177 118.24C79.7177 118.24 81.1144 115.798 82.2342 112.59C83.4745 113.357 84.7004 113.904 85.8485 114.192C86.131 112.582 86.4852 110.728 86.9268 108.656C87.8325 108.782 90.0097 108.974 92.6662 108.403C92.2599 110.296 92.01 112.2 92.2762 113.516C90.7878 114.028 89.1776 114.576 87.5617 115.321C85.2398 116.415 83.5322 119.721 82.4445 122.578V122.579ZM65.9524 99.5964C65.5215 98.2733 65.1743 96.9242 64.9169 95.5543C66.0027 95.3159 67.9886 94.7311 70.0666 93.3819C70.1997 94.3397 70.3887 95.2826 70.6293 96.2086C69.3136 97.2648 67.633 98.2994 65.9524 99.5964ZM64.5204 92.6624C64.4627 92.0216 64.4268 91.3784 64.4142 90.7323C64.3942 89.5211 65.0649 88.4644 66.0395 88.006C65.2971 89.4835 64.8191 91.2148 64.5208 92.6624H64.5204ZM87.5277 105.946C88.1267 103.329 88.8527 100.43 89.7188 97.2841C89.1222 97.0834 88.5255 96.8446 87.9326 96.5724C88.761 95.0775 89.6457 93.2328 90.2438 91.308C90.6119 91.4643 90.981 91.6042 91.3491 91.7215C92.1115 89.1988 92.972 86.5487 93.921 83.7872L94.2444 82.8684C94.392 83.1831 94.4818 83.351 94.4818 83.351C94.4818 83.351 101.102 75.8321 100.6 69.7551C100.573 69.3131 100.539 68.8769 100.499 68.4446C101.348 66.7769 102.219 65.1575 103.096 63.5922C103.562 66.0468 104.187 67.5634 104.187 67.5634C104.187 67.5634 111.726 60.9773 112.001 55.0576C112.096 53.1231 112.058 51.2596 112.024 49.5157C113.104 47.9986 114.134 46.6031 115.094 45.3452C114.74 49.894 115.718 53.1921 115.718 53.1921C115.718 53.1921 116.14 52.907 116.807 52.4037C111.374 59.9244 104.542 70.808 99.9335 83.2651C96.766 86.3417 94.7098 91.9338 94.7098 91.9338C94.7098 91.9338 95.5745 92.1317 96.9768 92.1765C96.4607 93.8871 95.972 95.6073 95.5098 97.3363C95.0714 97.4574 94.6261 97.5877 94.1802 97.7315C91.1802 98.7467 88.8099 103.072 87.5281 105.946H87.5277ZM83.2162 93.669C82.1825 92.8661 81.1833 91.9772 80.2376 91.0209C80.1045 90.0519 80.0723 89.152 80.1799 88.3249C80.3758 87.0554 79.7019 87.7116 78.7781 89.4444C77.6797 88.1778 76.6786 86.8267 75.805 85.4254C77.0882 81.6737 77.4009 78.1633 76.5455 79.5399C75.9866 80.4514 75.0646 81.195 73.9379 81.9164C73.5334 81.0015 73.1899 80.0789 72.9186 79.1602C74.0472 78.6796 75.2605 78.0175 76.4468 77.1046C76.8927 76.7581 77.3223 76.3369 77.7337 75.8582C78.1902 78.681 79.8922 81.9926 82.2435 84.8941C82.1839 85.4288 82.1536 85.9562 82.1588 86.4667C82.2202 89.167 82.6619 91.6173 83.2157 93.669H83.2162ZM92.1668 76.2085C91.0345 75.5503 89.9399 74.7513 88.9048 73.8513C88.8597 72.8264 88.9174 71.8889 89.1329 71.0526C89.4726 69.7353 88.5651 70.477 87.3029 72.327C84.8158 69.7484 82.8043 66.6157 81.6706 63.5406L82.2816 63.1347C83.4391 62.3217 84.5337 61.0237 85.4841 59.5901C85.9732 59.924 86.3665 60.4268 86.5806 61.057C87.4844 63.6921 89.4703 66.6157 91.8234 68.8311C91.7713 69.191 91.7336 69.5447 91.7135 69.895C91.6112 72.2045 91.8215 74.345 92.1664 76.209L92.1668 76.2085ZM102.604 58.6863C101.515 58.1757 100.465 57.5417 99.4672 56.7836C99.5305 56.2041 99.6361 55.6603 99.8037 55.1551C100.194 54.0274 99.4565 54.4578 98.2916 55.8147C96.6743 54.3724 95.2008 52.5832 93.8902 50.461C93.0632 49.1157 93.403 47.3154 94.6591 46.4251C95.9031 45.5454 97.5958 45.9126 98.4158 47.2526C99.8665 49.6059 101.523 51.3725 103.371 52.5595C103.19 53.0961 103.044 53.6293 102.943 54.1509C102.681 55.7443 102.588 57.272 102.604 58.6867V58.6863ZM60.3685 54.2416C60.9 54.0255 61.4142 53.6602 61.9015 53.0879C63.4183 51.3662 63.9903 48.8469 65.097 46.842C65.7295 45.6772 66.7273 44.6952 66.5854 43.3344C66.0516 38.5139 55.4906 42.2034 53.3176 43.8339C51.4718 45.2091 50.6755 46.8376 50.864 48.8093C51.2991 53.3263 52.0056 53.4513 54.9926 53.9545C56.8849 54.2643 58.72 54.9109 60.3685 54.2416V54.2416ZM9.82963 67.0476C9.94644 69.1756 10.8861 72.6788 12.556 74.5443C12.9893 75.0326 13.4565 75.4032 13.9899 75.6198C16.3532 76.5666 19.7795 74.6398 21.2837 72.8843C25.0959 68.4156 24.2688 64.3811 22.9066 61.7837C20.998 58.1347 17.5898 56.3532 15.9832 56.6813C11.7201 57.5726 9.60252 62.8887 9.82917 67.0481L9.82963 67.0476ZM10.766 52.8703C12.0115 51.9202 13.4263 51.2789 14.943 50.9638C19.2476 50.0769 24.832 53.5782 27.65 58.9435C30.7701 64.9028 29.9072 71.4247 25.2955 76.8233C24.4862 77.7772 18.5029 80.6845 19.7525 82.5997C20.3832 83.5783 24.6304 83.4364 25.5343 83.2892C27.3694 82.9818 29.1025 82.1485 30.5076 80.8592C33.2991 78.3119 34.746 74.1582 34.3342 70.0601C28.3728 60.6478 28.908 44.1601 33.6388 33.484C34.2695 32.0417 35.8909 31.4289 37.2499 32.1165C38.6047 32.8138 39.1851 34.5518 38.5344 35.9999C34.532 45.0397 34.0163 58.9565 38.6191 66.4773C38.984 66.7962 39.2805 67.2112 39.4424 67.7179C39.7603 68.0942 40.0498 68.4745 40.3844 68.8065C43.5599 72.0283 47.4283 74.2774 51.7813 74.8594C53.0467 75.0268 54.0134 74.6002 54.7827 73.8325C56.38 72.204 57.0725 69.0767 57.57 66.8498C58.3356 63.4904 57.8181 60.3187 54.1604 59.7059C49.8754 58.9787 46.2578 57.7024 45.4597 49.3917C45.0678 45.3051 46.7428 41.6398 50.2045 39.0582C53.7881 36.3599 58.3947 35.281 62.7318 35.3558C66.5616 35.4228 71.0514 38.6336 73.7512 34.3646C74.5149 33.1602 75.0306 31.8883 74.8403 30.4064C74.5201 28.2094 72.3852 25.5951 71.0374 23.9496C67.3528 19.3935 62.1677 17.1681 56.5777 18.2398C51.2814 19.2502 47.5684 18.4338 44.5917 17.7852C40.9806 16.9785 38.5796 16.4679 34.3183 19.2425C29.9468 22.0861 29.6592 24.686 29.352 27.434C29.124 29.5364 28.8056 32.4229 26.0271 33.9636L23.3762 35.1787C18.6835 37.3346 13.9029 39.3897 10.1535 43.2268C8.15277 45.2675 6.44194 47.8572 5.80991 50.7978C5.46272 52.4471 5.60096 57.1151 8.24679 55.4268C9.16178 54.8467 9.87151 53.556 10.7665 52.8698L10.766 52.8703ZM30.5746 95.0852C31.9676 94.802 33.5281 94.6736 35.0593 94.4314C37.7316 94.0324 40.3775 93.3621 42.1604 91.2317C44.1458 88.8765 44.8598 84.9573 44.3706 81.844C43.9397 79.2277 41.7453 76.6611 39.4569 75.7969C38.1142 79.4101 36.8957 82.6976 34.0307 85.3024C30.0422 88.9455 24.7924 90.0896 19.0824 88.6289C20.3529 93.3636 26.2212 95.9504 30.5741 95.0857L30.5746 95.0852ZM125.717 36.7025L126.424 36.6615C127.205 36.6002 127.973 36.4791 128.719 36.3001C128.584 38.6814 128.836 40.2245 128.836 40.2245C128.836 40.2245 137.921 35.6424 139.562 30.0706C140.297 27.764 140.797 25.5217 141.298 23.498L141.537 23.5293C143.013 23.7995 144.021 25.3075 143.769 26.8965C142.27 36.5143 134.409 43.0097 124.822 42.768C124.913 42.4601 124.989 42.1532 125.039 41.8439C125.348 40.0571 125.541 38.3277 125.717 36.7025H125.717ZM147.438 31.0655L147.194 30.555C146.819 29.7386 146.529 28.9004 146.311 28.0483C147.65 27.3312 149.397 26.3025 151.033 25.0411C151.184 25.805 151.394 26.5485 151.666 27.2661C151.992 28.138 152.521 28.9134 153.225 29.603L152.505 29.562C150.882 29.4799 149.099 30.1415 147.438 31.066V31.0655ZM173.801 15.2611C174.116 17.5609 173.929 19.3998 173.469 20.8609L173.42 20.8517C171.795 20.4995 170.023 20.1135 168.138 19.8587L168.014 19.8437C168.393 19.2304 168.545 18.4497 168.569 17.6415C170.699 17.1309 172.381 16.2807 173.801 15.2616L173.801 15.2611ZM158.743 23.3016L158.61 23.0671C156.383 18.8999 157.555 15.4474 158.588 14.0721C159.492 12.8624 161.124 12.6781 162.289 13.5988L162.485 13.7701C161.439 14.9663 160.479 16.3304 159.647 17.8827C160.738 18.0246 161.757 18.1061 162.715 18.1438L162.713 18.4251C162.731 18.8985 162.875 19.5378 163.299 20.3446C163.357 20.4411 163.478 20.5439 163.645 20.6409C161.839 21.3531 160.079 22.4041 158.744 23.3021L158.743 23.3016Z" fill="#915507"/>
<path d="M101.246 40.1705C101.186 40.4609 101.113 40.763 101.025 41.0747C100.854 41.6813 100.563 42.4326 100.181 43.2317C98.9435 45.8238 96.2716 50.0156 93.1929 52.5605C93.1673 52.7675 93.1357 52.9798 93.0975 53.1984C92.9905 53.8122 92.7713 54.5953 92.4613 55.4528C91.5207 58.0561 89.4041 62.2406 86.7378 65.088C86.7466 65.5189 86.7256 65.9802 86.6749 66.4714C86.6088 67.118 86.4399 67.9272 86.1872 68.8016C85.4388 71.3783 83.6819 75.476 81.2967 78.46C81.347 78.846 81.3749 79.26 81.3819 79.6996C81.3926 80.3906 81.3209 81.2302 81.1715 82.1157C80.727 84.7518 79.463 88.9628 77.4557 92.191C77.5367 92.5476 77.6023 92.9293 77.6512 93.336C77.7242 93.9435 77.7354 94.7798 77.6777 95.7468C77.5213 98.3751 76.7548 102.587 75.2003 105.991C75.5447 106.683 75.7951 107.543 75.9492 108.564C76.0455 109.203 76.086 110.047 76.0613 110.997C75.9966 113.415 75.4745 117.161 74.3054 120.42C74.7959 121.099 75.1868 122.008 75.4768 123.132L75.4814 123.13C75.6462 123.77 75.7746 124.621 75.8491 125.58C76.0381 128.039 75.9036 131.907 75.0668 135.334C75.5578 135.955 75.9906 136.775 76.3634 137.784C76.5807 138.372 76.7957 139.203 76.9796 140.18C77.4631 142.756 77.7847 146.945 77.2844 150.621C77.6488 151.099 78.0025 151.669 78.3437 152.328C78.6453 152.912 78.9683 153.699 79.2647 154.596C80.4538 158.18 81.8435 165.135 80.7205 169.531C80.7005 169.609 80.6795 169.685 80.6563 169.76C79.5784 173.841 77.5101 176.64 76.0167 178.236C76.61 179.352 77.2146 180.468 77.828 181.58C79.2577 184.173 80.5325 186.396 81.6681 188.308C82.7674 190.158 84.0328 192.207 85.3727 194.332C86.6931 196.425 86.1271 199.233 84.1087 200.602C82.6305 201.605 80.7824 201.559 79.3801 200.639L78.2911 200.048L76.9261 199.285C76.3797 198.981 75.9222 198.571 75.562 198.097L75.5596 198.098C73.9047 195.917 72.1571 193.51 70.321 190.861C68.6646 188.47 67.046 186.029 65.4901 183.552C63.7947 180.852 62.1499 178.094 60.5889 175.301C59.2309 172.871 57.9091 170.372 56.6428 167.817C56.2737 167.467 55.906 167.102 55.5449 166.727C54.9394 166.097 54.3437 165.432 53.7717 164.735L53.7568 164.716L53.7549 164.717C50.485 160.68 48.4418 153.684 47.8024 149.893L47.7996 149.893C47.6413 148.954 47.559 148.078 47.5543 147.374C47.5473 146.169 47.6567 145.146 47.8838 144.316C46.1064 140.196 45.3036 135.16 45.1663 132.17C45.1203 131.168 45.144 130.288 45.2282 129.632C45.3655 128.563 45.588 127.656 45.8942 126.923C44.5669 122.66 44.3942 117.59 44.6381 114.623C44.7205 113.61 44.8573 112.739 45.022 112.112C45.2385 111.288 45.4958 110.574 45.7923 109.974C44.8885 105.601 45.3166 100.483 45.938 97.5312C46.1432 96.5555 46.3959 95.7004 46.6561 95.0669C47.0456 94.1255 47.478 93.3534 47.9522 92.7589C47.5734 88.5628 48.3571 83.9165 49.1581 81.182C49.3671 80.4678 49.5933 79.8289 49.8162 79.3064C49.8781 79.1331 49.9516 78.9623 50.0349 78.7944C50.6488 77.5712 51.3199 76.6611 52.0399 76.0806C52.2391 71.9096 53.6376 67.4346 54.796 64.8477C55.2033 63.9372 55.6263 63.1598 56.0066 62.6039L56.0149 62.6097C56.7042 61.6032 57.4056 60.849 58.1106 60.3626C58.7887 56.1722 60.8026 51.7392 62.3165 49.2387C62.7089 48.5912 63.1072 48.015 63.4772 47.5503C63.5666 47.4244 63.6625 47.3018 63.7663 47.1831C64.5165 46.3319 65.25 45.6989 65.9597 45.2955C67.1344 41.1437 69.7207 36.8299 71.5269 34.4708C72.1035 33.718 72.6764 33.0767 73.1679 32.6212C73.9731 31.8757 74.7368 31.3227 75.4517 30.9705C76.9573 26.9896 79.7515 22.9474 81.6606 20.7417C82.3303 19.9673 82.933 19.3564 83.3933 18.9756C86.2793 16.5919 88.531 16.3748 89.9006 18.6306C90.7775 17.5662 91.7106 16.6228 92.6591 15.7986C96.3819 12.5661 100.746 11.077 103.235 11.3531L103.235 11.3564L103.364 11.3714C104.032 11.438 104.695 11.6662 105.299 12.0682C107.327 13.4173 107.916 16.2175 106.614 18.3204L106.52 18.4975L105.931 20.0078C105.905 20.086 105.876 20.1651 105.845 20.2433L105.051 22.2714L105.046 22.2699L104.78 23.0149C105.189 22.9247 105.608 22.8972 106.037 22.9281V22.9305C110.069 23.2133 111.266 25.6443 109.723 29.6295L109.718 29.6271C109.502 30.1864 109.182 30.8503 108.795 31.5321L108.787 31.5273C107.402 33.9607 104.534 37.8794 101.243 40.1695L101.246 40.1705ZM63.4796 47.5513C63.5815 47.4229 63.6811 47.3033 63.7779 47.1928L63.4796 47.5513Z" fill="#915507"/>
<path fill-rule="evenodd" clip-rule="evenodd" d="M80.3905 51.9495C80.3905 51.9495 83.2536 44.6985 87.1267 43.2248C90.9859 41.7304 94.6268 41.3294 96.4725 39.5257C98.3202 37.7032 93.9352 47.1975 89.3393 49.8196C84.7522 52.4417 80.39 51.9495 80.39 51.9495H80.3905ZM62.7228 143.152C62.7228 143.152 61.2847 134.757 64.0152 131.679C66.7685 128.622 69.9426 126.716 70.7403 124.165C71.5529 121.616 72.4856 132.836 69.635 137.351C66.9068 141.86 62.7228 143.152 62.7228 143.152V143.152ZM57.7727 120.48C57.7727 120.48 59.8465 112.22 57.2663 107.768C54.6833 103.316 51.6279 99.8907 51.2203 96.8869C50.8084 93.8648 48.17 105.18 50.7027 111.187C53.3248 117.204 57.7732 120.48 57.7732 120.48H57.7727ZM62.1443 111.148C62.1443 111.148 61.8529 103.016 65.0507 100.323C68.2588 97.6324 71.713 96.0893 72.8132 93.7022C73.9492 91.3209 73.401 102.146 69.9644 106.225C66.5749 110.291 62.1443 111.148 62.1443 111.148ZM59.2504 104.585C59.2504 104.585 61.9949 96.5139 59.6837 91.9824C57.4925 87.4654 54.6531 83.9753 54.446 80.9565C54.2845 77.9639 50.7614 89.0472 52.852 95.1131C55.0087 101.151 59.2504 104.585 59.2504 104.585V104.585ZM61.7524 152.881C61.7524 152.881 61.7724 144.068 58.3251 140.047C54.8742 136.007 51.2007 133.135 50.0754 130.158C48.943 127.196 49.2772 139.136 53.0805 144.76C56.9052 150.385 61.7528 152.881 61.7528 152.881H61.7524ZM64.0617 95.7071C64.0617 95.7071 64.6816 87.7554 68.1363 85.3872C71.5873 83.0189 75.1677 81.785 76.5462 79.5393C77.9285 77.3149 76.2604 87.8432 72.3818 91.5404C68.5789 95.226 64.0622 95.7066 64.0622 95.7066L64.0617 95.7071ZM102.586 28.911C101.906 29.0692 101.227 29.2299 100.556 29.3694C99.1868 29.6507 97.6933 29.9547 96.1547 30.3981C92.2723 31.5215 88.6831 38.4294 88.6831 38.4294C88.6831 38.4294 92.8675 39.3052 97.5946 37.1213C102.339 34.9407 106.913 26.4134 105.539 27.5488C104.164 28.6818 103.761 28.5886 102.586 28.911V28.911ZM80.45 45.803C80.45 45.803 86.444 39.4712 86.3435 34.6111C86.3383 29.7438 85.3563 25.5902 86.5212 22.7876C87.7038 19.987 79.724 28.9336 78.8323 35.1091C78.1221 41.2884 80.45 45.8035 80.45 45.8035V45.803ZM101.004 20.5718C101.536 19.2188 102.066 17.8677 102.591 16.5152C102.703 16.3082 102.818 16.0828 102.945 15.8758C99.8989 15.3001 90.0942 20.7455 88.9586 31.7584C97.7366 29.1682 99.5558 24.7177 101.005 20.5723L101.004 20.5718ZM71.7488 176.143C71.7488 176.143 68.2103 167.758 69.8546 163.893C71.5385 160.049 73.9744 157.304 74.014 154.481C74.0591 151.658 77.8745 163.013 76.5011 168.38C75.157 173.732 71.7488 176.143 71.7488 176.143ZM73.428 66.081C73.428 66.081 75.4716 58.5342 79.2581 56.7001C83.0363 54.8457 86.7032 54.119 88.4047 52.1329C90.096 50.1448 86.6311 60.0788 82.2814 63.1332C77.9103 66.1838 73.428 66.081 73.428 66.081V66.081ZM61.0408 126.831C61.0408 126.831 60.5107 118.577 63.5693 115.814C66.6862 113.076 70.0994 111.493 71.1452 109.079C72.1965 106.651 71.9955 117.664 68.7042 121.796C65.4333 125.931 61.0408 126.831 61.0408 126.831ZM72.1877 59.5272C72.1877 59.5272 77.7665 52.8895 77.2741 48.0207C76.8911 43.1829 75.5903 39.0813 76.5085 36.232C77.5022 33.3734 70.0976 42.7003 69.7164 48.898C69.4697 55.1145 72.1877 59.5272 72.1877 59.5272V59.5272ZM61.765 89.067C61.765 89.067 65.5143 81.4063 63.8537 76.731C62.2145 72.0779 59.8344 68.3286 60.0774 65.362C60.3185 62.3804 55.3237 72.959 56.5585 79.1104C57.9621 85.2786 61.765 89.067 61.765 89.067V89.067ZM66.1398 74.0235C66.1398 74.0235 70.8432 66.8434 69.7629 62.0711C68.7135 57.2839 66.9086 53.3633 67.4964 50.4209C68.0935 47.4972 61.7868 57.4832 62.2699 63.6925C62.8019 69.9056 66.1398 74.024 66.1398 74.024V74.0235ZM58.8678 136.602C58.8678 136.602 59.9838 128.047 56.948 123.761C53.9736 119.484 50.5501 116.309 49.7589 113.297C49.0422 110.294 47.8093 121.939 50.9778 127.801C54.2091 133.669 58.8678 136.602 58.8678 136.602V136.602ZM66.143 159.583C66.143 159.583 63.7941 151.117 66.0788 147.694C68.4291 144.278 71.3179 142.009 71.7614 139.323C72.2612 136.629 74.4486 148.032 72.2161 152.911C70.0627 157.82 66.143 159.583 66.143 159.583V159.583ZM66.2296 168.446C68.7618 173.864 71.4151 179.077 74.0372 183.828C76.6779 188.616 79.3051 192.985 81.7192 196.811C80.8168 196.321 79.9055 195.811 78.9947 195.3C75.6606 190.906 72.3231 186.145 69.1472 181.089C65.9731 176.037 62.9178 170.646 60.1644 165.017C59.1596 164.11 58.1208 163.051 57.1053 161.812C52.8008 156.497 50.9601 144.364 52.3908 147.249C53.8591 150.158 57.7685 152.69 61.5397 156.436C64.6472 159.537 65.8926 166.24 66.2305 168.446L66.2296 168.446ZM67.6747 80.4301C67.6747 80.4301 69.2491 72.7173 72.9081 70.7027C76.6072 68.6944 80.2969 67.8032 81.8984 65.7331C83.4943 63.6611 80.6637 73.8334 76.4471 77.104C72.2179 80.3558 67.6742 80.4306 67.6742 80.4306L67.6747 80.4301Z" fill="white"/>
<path d="M168.85 32.2263C168.622 32.5935 168.356 32.9704 168.051 33.3574C167.63 33.892 167.005 34.5391 166.247 35.2146C163.735 37.4531 158.887 40.7802 154.432 41.9653C154.274 42.2698 154.095 42.5834 153.892 42.9033C153.542 43.4582 152.977 44.17 152.263 44.9493C150.054 47.3605 145.783 50.9829 141.604 52.7012C141.429 53.2353 141.183 53.7985 140.865 54.391C140.543 54.9922 140.022 55.7522 139.358 56.5798C137.374 59.0552 133.553 62.7533 129.622 64.7693C129.513 65.2895 129.344 65.8439 129.116 66.4293C128.868 67.0643 128.429 67.8976 127.848 68.8299C126.171 71.5171 122.846 75.581 119.194 78.0501C119.136 78.5418 119.031 79.0668 118.879 79.6237C118.683 80.3397 118.339 81.2266 117.884 82.1738C116.518 85.0126 113.707 89.3689 110.421 92.2603C110.584 93.1679 110.508 94.2657 110.201 95.5333C110.04 96.1972 109.718 97.0933 109.268 98.1134C108.088 100.793 105.736 104.797 102.909 107.763C103.254 108.696 103.325 109.901 103.129 111.35C103.034 112.044 102.804 112.982 102.461 114.049C101.547 116.895 99.5899 121.218 97.0613 124.534C97.4118 125.407 97.5607 126.537 97.5151 127.899C97.49 128.661 97.3629 129.627 97.1474 130.684C96.515 133.786 94.9423 138.659 92.6884 142.396C92.9271 143.107 93.0891 143.955 93.1761 144.932C93.2413 145.675 93.2408 146.634 93.1706 147.693C92.8741 152.096 91.3322 160.186 88.2503 164.303C85.0669 168.592 81.2394 170.64 78.9701 171.545C79.1409 173.322 79.3234 175.057 79.517 176.745C79.8809 179.918 80.2937 183.017 80.7312 185.999C81.2194 189.323 81.6634 192.087 82.0646 194.4C82.4886 196.855 80.9127 199.203 78.5447 199.642C76.9354 199.941 75.373 199.28 74.4045 198.056L74.3942 198.066C73.9186 197.464 72.9859 196.254 72.0542 195.044C71.6721 194.546 71.4087 193.991 71.2574 193.414L71.2504 193.415C70.4132 190.222 69.5787 186.751 68.7601 182.992C67.9991 179.496 67.3182 176.048 66.7439 172.7C66.1063 168.987 65.5436 165.191 65.0806 161.34C64.684 158.043 64.3555 154.645 64.1111 151.161C63.8654 150.603 63.6127 149.991 63.3511 149.317C62.9769 148.354 62.6293 147.363 62.3244 146.352C62.2984 146.264 62.2751 146.177 62.2537 146.088C60.6201 140.249 61.49 131.968 62.452 127.679L62.4561 127.662L62.452 127.661C62.7023 126.548 62.9802 125.603 63.2496 124.934C63.7979 123.571 64.4025 122.526 65.0577 121.814C64.8706 116.472 66.2664 110.46 67.4644 107.093C67.8502 106.007 68.2528 105.094 68.6158 104.455C69.2687 103.308 69.9454 102.438 70.6403 101.86C71.008 96.5866 73.1176 90.8599 74.7233 87.7075C75.2487 86.6759 75.7569 85.8348 76.1809 85.2775C76.8195 84.4355 77.4515 83.7754 78.0733 83.3025C78.9436 78.1177 81.7332 72.6539 83.7391 69.7143C84.379 68.7763 85.0041 68.0004 85.53 67.4754C86.4175 66.5914 87.2692 65.9718 88.0748 65.6302C89.4431 60.827 92.4278 56.0186 94.5412 53.3941C95.229 52.5405 95.9071 51.8249 96.4856 51.3308C97.7176 50.2769 98.8555 49.6617 99.8743 49.5097C101.865 44.9932 105.506 40.6316 107.976 38.3154C108.803 37.539 109.565 36.9252 110.163 36.543C111.418 35.7416 112.543 35.2952 113.519 35.2195C116.036 30.9143 120.305 26.9392 123.104 24.9169C124.024 24.2505 124.86 23.7376 125.505 23.4321C126.74 22.8463 127.832 22.5452 128.763 22.5404C131.806 18.5161 136.672 14.9525 139.736 13.2231C140.728 12.6634 141.597 12.2489 142.237 12.0231C143.507 11.5738 144.608 11.3673 145.524 11.4122C148.873 7.73529 153.844 4.58242 156.951 3.0716C157.955 2.58328 158.842 2.22524 159.506 2.03319C163.532 0.868353 165.791 1.89905 165.793 5.35978C167.56 4.33488 169.359 3.56572 171.101 3.01466C176.409 1.33496 181.585 1.75573 184.026 3.16377L184.139 3.23132C184.74 3.56379 185.275 4.0468 185.685 4.67072C187.043 6.73452 186.53 9.54962 184.54 10.9586L184.265 11.182V11.1815L182.707 12.7966L181.049 14.5101L181.047 14.512C180.358 15.2812 179.648 16.0576 178.871 16.8122C179.606 16.6511 180.306 16.6636 180.966 16.8359C181.289 16.916 181.607 17.0356 181.916 17.1973C185.579 19.1192 185.719 21.8591 182.759 24.9478C182.344 25.3811 181.732 25.9191 180.99 26.488C178.393 28.4809 173.437 31.4214 168.849 32.2253L168.85 32.2263ZM89.3556 119.45C88.8051 119.71 88.2903 120.323 87.8235 121.113C88.0674 120.965 88.3136 120.804 88.5612 120.63C88.6236 120.581 88.6878 120.534 88.7529 120.489C89.2518 120.143 89.7433 119.651 90.218 119.065C89.9937 119.158 89.7689 119.255 89.545 119.355L89.3556 119.45V119.45ZM86.586 87.7577C86.62 87.3239 86.613 86.9022 86.5585 86.5017L86.5176 86.202L86.5162 86.3782C86.5269 86.8477 86.5516 87.309 86.5865 87.7577H86.586ZM103.935 85.8223C103.511 85.955 103.086 86.2556 102.672 86.6658C102.9 86.5707 103.13 86.467 103.361 86.354C103.434 86.3116 103.509 86.2715 103.585 86.2334C103.875 86.0877 104.167 85.9014 104.46 85.6843C104.286 85.7325 104.112 85.7827 103.938 85.8334L103.935 85.8223V85.8223ZM96.0682 72.03C96.2236 71.3723 96.2939 70.7296 96.2446 70.1274C96.2362 70.0261 96.232 69.9252 96.2306 69.8258L96.1822 69.185C96.1268 69.5107 96.0891 69.8316 96.071 70.1428L96.0668 70.2133C96.0421 70.8362 96.0449 71.4433 96.0682 72.0305V72.03ZM150.454 19.6737C150.897 19.1574 151.248 18.6241 151.455 18.0847L151.481 18.02C151.242 18.3216 151.028 18.6237 150.842 18.9257L150.845 18.9272C150.707 19.1776 150.576 19.4266 150.454 19.6737V19.6737ZM82.4062 156.835C82.0651 157.22 81.7835 157.797 81.5531 158.485C81.8631 158.015 82.1465 157.456 82.4062 156.835ZM95.5097 102.043C94.9898 102.226 94.4709 102.687 93.9766 103.299C94.2582 103.181 94.5421 103.048 94.8288 102.902C94.9195 102.844 95.0136 102.789 95.1094 102.737C95.5455 102.502 95.9862 102.17 96.4233 101.769C96.1175 101.855 95.8117 101.946 95.5097 102.043ZM134.244 30.77C134.783 30.1152 135.195 29.4363 135.394 28.7603L135.425 28.6589L135.411 28.6541L135.586 28.0915C135.29 28.5021 135.035 28.9142 134.831 29.3219L134.836 29.3243C134.613 29.8127 134.417 30.2957 134.244 30.77ZM106.998 57.1521C107.368 56.3626 107.61 55.5795 107.645 54.846C107.667 54.3794 107.682 53.9186 107.691 53.4636C107.485 53.9939 107.328 54.5145 107.232 55.0188C107.115 55.7513 107.04 56.4654 106.998 57.1525V57.1521ZM107.232 55.0183V55.0188V55.0183ZM119.757 43.3521C120.254 42.594 120.612 41.8239 120.735 41.0837C120.753 40.9698 120.776 40.8583 120.803 40.7483C120.851 40.4569 120.895 40.1601 120.938 39.8585C120.651 40.3763 120.418 40.8897 120.254 41.392L120.258 41.394C120.05 42.0618 119.885 42.7175 119.757 43.3526L119.757 43.3521ZM84.9296 137.716C84.4153 138.075 83.969 138.777 83.5869 139.649C83.7182 139.536 83.8503 139.417 83.9811 139.294L84.1296 139.15C84.6159 138.702 85.0795 138.082 85.5128 137.358C85.3168 137.475 85.1223 137.594 84.9292 137.716L84.9296 137.716Z" fill="#915507"/>
<path fill-rule="evenodd" clip-rule="evenodd" d="M141.216 35.8736C141.216 35.8736 147.599 29.3121 152.503 29.562C157.401 29.7821 161.568 31.0975 164.396 30.0089C167.238 28.9039 158.181 37.1928 151.971 37.8505C145.774 38.514 141.216 35.8736 141.216 35.8736H141.216ZM81.006 127.269C81.006 127.269 83.1911 117.38 87.5608 115.322C91.9463 113.301 96.2778 112.744 98.2944 110.332C100.327 107.932 96.3211 120.669 91.177 124.243C86.1678 127.869 81.006 127.269 81.006 127.269V127.269ZM85.7401 100.051C85.7401 100.051 91.7127 92.0029 90.8787 85.8815C90.047 79.7615 88.2333 74.5385 89.132 71.0518C90.0358 67.5408 82.0755 78.6642 82.1584 86.4663C82.3347 94.321 85.7406 100.051 85.7406 100.051H85.7401ZM94.7085 91.9339C94.7085 91.9339 98.0338 82.8869 102.741 81.4764C107.461 80.0732 111.936 80.0472 114.21 77.9621C116.523 75.8993 111.072 87.4936 105.481 90.3053C99.9466 93.1286 94.7089 91.9339 94.7089 91.9339H94.7085ZM94.4804 83.3511C94.4804 83.3511 101.1 75.8322 100.599 69.7552C100.223 63.751 98.6756 58.5609 99.8028 55.1547C100.966 51.7987 92.1408 62.2431 91.7131 69.8946C91.3734 77.5467 94.4809 83.3511 94.4809 83.3511H94.4804ZM75.585 137.46C75.585 137.46 79.5535 127.815 77.5783 121.752C75.6087 115.664 72.8717 110.748 72.9736 106.945C73.0601 103.156 68.0761 116.395 69.7241 124.387C71.3921 132.392 75.585 137.461 75.585 137.461V137.46ZM103.726 75.9456C103.726 75.9456 107.966 67.5322 112.813 66.6023C117.655 65.6686 122.127 66.0416 124.643 64.2471C127.154 62.4733 120.612 73.2048 114.706 75.3868C108.888 77.5935 103.726 75.9456 103.726 75.9456ZM175.849 21.3276C175.035 21.1727 174.219 21.0217 173.419 20.8523C171.794 20.5001 170.022 20.114 168.137 19.8592C163.381 19.2199 156.355 25.0581 156.355 25.0581C156.355 25.0581 160.546 28.0343 166.704 27.9185C172.876 27.8143 181.708 20.6771 179.693 21.2567C177.678 21.8367 177.28 21.5404 175.849 21.3276H175.849ZM144.033 29.1707C144.033 29.1707 153.437 25.1218 155.502 19.7487C157.676 14.4158 158.464 9.39164 160.996 6.88343C163.545 4.38631 150.797 10.3417 147.053 16.6774C143.506 23.1043 144.033 29.1702 144.033 29.1702V29.1707ZM177.853 11.4308C179.039 10.2066 180.225 8.98052 181.408 7.75054C181.623 7.57731 181.848 7.38719 182.08 7.22265C179.001 5.12266 165.824 6.3676 159.646 17.8838C170.421 19.2739 174.408 15.2747 177.853 11.4308V11.4308ZM76.1141 167.755C76.1141 167.755 75.9917 156.868 79.5251 153.424C83.0934 150.025 86.9893 148.192 88.2984 145.118C89.6123 142.047 88.7043 156.323 84.7972 161.541C80.9273 166.757 76.1146 167.755 76.1146 167.755H76.1141ZM127.257 48.0016C127.257 48.0016 132.877 40.7206 137.847 40.5349C142.816 40.324 147.157 41.291 149.912 39.9365C152.655 38.5743 144.409 47.7854 138.276 49.0357C132.122 50.2729 127.257 48.0016 127.257 48.0016V48.0016ZM86.4736 108.583C86.4736 108.583 89.5904 99.2863 94.1788 97.732C98.8208 96.2338 103.27 96.1426 105.493 94.003C107.734 91.8485 102.579 103.816 97.1244 106.756C91.6894 109.712 86.4736 108.583 86.4736 108.583V108.583ZM128.835 40.2251C128.835 40.2251 137.92 35.6429 139.561 30.0711C141.31 24.5866 141.721 19.4679 144.004 16.7898C146.373 14.1383 134.083 20.7867 130.889 27.3935C127.835 34.0834 128.834 40.2251 128.834 40.2251H128.835ZM104.186 67.5645C104.186 67.5645 111.724 60.9784 111.999 55.0587C112.287 49.1698 111.359 43.9169 112.955 40.7863C114.555 37.6353 104.342 46.8179 102.942 54.151C101.714 61.5844 104.186 67.5645 104.186 67.5645H104.186ZM115.716 53.1932C115.716 53.1932 124.086 47.5934 125.038 41.8449C126.034 36.096 125.813 30.9324 127.776 27.9914C129.74 25.0769 118.358 32.9784 116.105 40.0128C113.903 47.0756 115.715 53.1932 115.715 53.1932H115.716ZM79.7168 118.242C79.7168 118.242 84.7711 109.406 83.3656 103.25C82.0229 97.1317 79.6954 92.0058 80.179 88.3255C80.7379 84.6896 74.1725 96.8528 75.0167 104.8C75.9266 112.785 79.7168 118.242 79.7168 118.242V118.242ZM77.3917 146.917C77.3917 146.917 78.6101 136.513 82.6452 133.861C86.7524 131.252 90.9327 130.159 92.6221 127.431C94.3767 124.719 91.6643 138.262 87.0326 142.534C82.4762 146.874 77.3917 146.917 77.3917 146.917ZM73.5148 156.665C73.8634 163.823 74.4331 170.808 75.1754 177.276C75.9233 183.793 76.8448 189.844 77.7742 195.197C77.0068 194.224 76.237 193.228 75.4682 192.229C73.7843 185.811 72.2615 178.989 71.0463 171.923C69.833 164.858 68.9003 157.482 68.4061 149.989C67.7122 148.511 67.049 146.852 66.49 145.007C64.1569 137.111 67.5777 122.934 67.8509 126.782C68.1562 130.675 71.3032 135.332 73.7569 141.252C75.7716 146.145 74.1324 154.085 73.5144 156.664L73.5148 156.665ZM114.526 60.9494C114.526 60.9494 119.706 53.2607 124.617 52.8154C129.57 52.396 134.011 53.197 136.693 51.7007C139.369 50.1986 131.712 59.9786 125.629 61.5323C119.539 63.0567 114.527 60.9489 114.527 60.9489L114.526 60.9494Z" fill="white"/>
</g>
</svg>
