<svg width="380" height="401" viewBox="0 0 380 401" fill="none" xmlns="http://www.w3.org/2000/svg">
<g opacity="0.12">
<path fill-rule="evenodd" clip-rule="evenodd" d="M252.345 95.5504C250.327 96.5682 247.926 95.6285 246.972 93.4797C246.026 91.3231 246.883 88.7259 248.903 87.726C256.905 83.715 263.531 88.7861 269.146 93.8787C272.684 97.0976 278.111 99.5013 281.698 95.6937C283.267 94.004 285.81 94.0212 287.389 95.7145C288.961 97.4235 288.958 100.152 287.378 101.832C281.336 108.248 271.921 107.714 263.949 100.457C257.534 94.6716 254.922 94.2676 252.345 95.5512V95.5504Z" fill="#915507"/>
<path fill-rule="evenodd" clip-rule="evenodd" d="M247.089 120.334C241.88 123.913 235.366 128.377 222.961 125.977C217.874 124.99 214.471 123.761 211.744 122.773C208.111 121.446 206.436 120.846 203.334 121.617C201.176 122.158 199.009 120.71 198.497 118.378C197.984 116.053 199.327 113.73 201.499 113.188C206.826 111.863 210.285 113.122 214.305 114.571C216.915 115.525 219.87 116.596 224.362 117.472C233.661 119.271 237.871 116.376 242.753 113.036C248.29 109.238 254.578 104.926 267.021 108.93C269.135 109.603 270.376 112.019 269.74 114.326C269.087 116.595 266.847 117.902 264.719 117.212C255.83 114.344 252.175 116.851 247.088 120.334H247.089Z" fill="#915507"/>
<path fill-rule="evenodd" clip-rule="evenodd" d="M222.298 393.013C223.581 391.779 226.378 392.688 226.378 392.688C227.382 393.203 231.774 393.531 233.888 392.266C235.496 391.307 237.54 391.938 238.468 393.684C239.358 395.422 238.771 397.619 237.154 398.579C232.787 401.172 224.011 401.096 221.612 397.567C220.589 396.067 221.007 394.246 222.298 393.013H222.298Z" fill="#915507"/>
<path fill-rule="evenodd" clip-rule="evenodd" d="M71.963 100.996C65.3689 101.613 59.2322 93.5765 58.1863 87.2333C57.8878 85.3653 57.9148 83.0016 58.1372 81.1716C58.2263 80.2576 58.4439 79.0357 58.8571 77.9369C59.2474 76.9227 59.7641 76.0131 60.4688 75.4837C63.1817 73.494 62.9441 76.5675 63.0712 78.6682C63.4283 84.654 66.9758 89.2725 71.516 92.5408C73.1167 93.6975 77.1456 94.7877 77.0482 97.117C76.9729 99.2514 73.6079 100.835 71.9637 100.996H71.963Z" fill="#915507"/>
<path fill-rule="evenodd" clip-rule="evenodd" d="M304.078 168.476C303.15 166.186 302.991 166.141 301.01 166.853C298.327 167.784 292.954 170.289 291.443 173.055C290.77 174.322 297.903 173.32 298.462 173.227C300.768 172.833 304.527 172.164 305.238 170.523C305.502 169.897 304.597 169.737 304.078 168.476ZM313.093 189.795C312.662 190.264 312.245 190.68 311.818 191.019C307.433 194.404 302.522 190.649 298.844 187.931C293.432 183.894 289.607 182.601 283.162 181.82C280.705 181.52 277.728 181.825 276.429 179.319C273.972 174.603 280.097 169.475 283.221 167.118C285.337 165.528 288.128 165.037 290.465 163.904C296.217 161.107 303.962 158.811 307.379 152.592C309.668 148.416 311.083 148.699 315.018 151.148C316.989 152.372 321.494 154.11 321.183 157.065C320.566 162.804 312.875 164.081 312.889 171.497C312.895 177.177 317.783 184.381 313.092 189.794L313.093 189.795Z" fill="#915507"/>
<path fill-rule="evenodd" clip-rule="evenodd" d="M18.4748 387.944C19.529 386.743 20.3718 385.861 20.8705 385.424C27.0307 380.108 33.2738 374.096 40.442 369.546C64.2585 354.415 90.4682 355.594 114.911 344.073C118.342 342.447 121.746 340.488 124.548 337.788C125.615 336.751 126.595 335.592 127.379 334.292C127.755 333.677 128.233 333.034 128.31 332.276C128.401 331.36 128.121 330.386 128.086 329.518C128.059 328.998 128.112 328.469 128.265 327.977C128.553 327 128.785 325.554 128.732 324.282C128.691 323.363 128.489 322.528 128.11 322.011C127.603 321.358 125.517 319.778 123.868 318.539C117.959 314.092 109.883 307.998 107.613 299.184C107.253 297.763 107.058 296.388 107.002 295.036C106.777 289.741 108.707 285.092 110.665 280.867L111.004 281.352C111.337 282.694 111.678 284.021 112.026 285.338C113.167 286.821 114.31 288.3 115.449 289.744L114.949 286.815C115.718 287.855 116.486 288.884 117.257 289.899C118.61 290.657 119.962 291.415 121.302 292.142C118.922 288.369 116.401 284.239 113.826 279.808L113.173 275.388C114.149 273.073 114.928 270.757 115.24 268.288C115.469 266.279 115.554 264.338 115.632 262.338C115.68 261.467 115.731 260.584 115.643 259.711C115.515 258.13 115.501 256.399 115.061 254.878C114.781 253.913 114.53 252.936 114.317 251.948C114.109 250.989 113.92 250.021 113.746 249.048L113.791 248.788C115.819 248.152 121.291 245.961 125.871 239.787C126.151 239.414 126.421 239.007 126.682 238.573C126.877 240.105 127.315 241.604 127.78 242.681C129.529 246.661 133.713 249.646 140.233 251.526C144.347 252.705 149.835 253.576 152.572 250.934C154.509 249.078 155.405 244.716 153.882 242.22C152.398 239.814 149.506 239.833 147.188 239.2C143.576 238.227 140.059 236.796 136.799 234.896C134.937 233.823 131.682 231.734 129.348 232.255C130.439 228.714 131.165 224.833 131.557 221.633C132.515 222.61 133.988 223.207 135.212 224.089C141.124 228.34 146.751 231.19 153.89 232.542C160.943 233.861 166.581 231.989 169.407 227.42C171.576 223.943 170.743 218.621 167.069 216.66C163.385 214.69 156.253 218.015 152.646 219.284C146.929 221.285 142.212 219.625 137.14 216.739C135.518 215.807 133.288 214.997 131.879 215.904C131.793 214.682 131.519 214.353 131.068 215.409C129.125 219.97 123.342 222.692 118.045 227.737C115.423 230.293 114.156 235.61 113.544 240.287C113.328 238.846 113.05 237.424 112.744 236.091C113.078 233.735 113.795 231.453 114.918 229.373C115.59 228.111 116.394 226.841 117.371 225.848C118.291 224.91 118.645 223.558 118.312 222.197C118.084 221.196 117.363 220.172 117.008 219.187C116.842 218.767 116.699 218.341 116.562 217.912C119.166 217.511 124.377 216.159 129.19 211.572C136.064 205.232 140.091 185.128 137.486 189.153C134.979 193.203 128.774 194.826 122.677 198.699C118.739 201.288 116.607 208.847 115.609 213.724C115.508 213.332 115.364 212.958 115.14 212.641C114.164 211.238 112.419 210.734 111.059 209.913C110.368 209.493 109.689 209.05 109.025 208.585C107.702 205.513 106.275 202.675 104.984 200.035C105.59 197.902 105.936 195.488 106.102 193.186C108.862 200.011 112.197 204.043 112.197 204.043C112.197 204.043 116.234 194.233 115.961 185.749C117.266 186.806 118.745 187.882 120.271 188.802L120.245 188.916L120.498 188.938C122.208 189.953 123.974 190.767 125.62 191.154C125.529 190.302 125.385 189.472 125.191 188.659C128.01 188.189 131.703 187.057 135.342 184.424C142.977 179.119 148.925 160.213 145.907 163.775C145.513 164.249 145.056 164.675 144.546 165.062C146.945 161.026 149.018 156.606 151.371 152.67C162.792 133.562 174.769 114.719 188.876 97.774C195.957 89.2483 203.582 81.194 211.896 74.0571C215.897 70.6492 220.041 67.4382 224.376 64.4979C226.222 63.2695 233.18 60.0471 232.406 57.0266C232.23 56.3325 230.903 55.7767 229.412 55.2624C233.102 53.9538 236.97 51.5479 239.913 49.3318C243.829 49.8274 247.399 49.1549 250.566 47.3162C253.543 45.5929 255.616 43.1891 256.987 41.1779C257.275 40.1271 257.596 39.1308 257.959 38.2319C260.485 36.9319 262.774 35.4521 264.439 34.2072L264.607 34.2896C265.351 34.6936 266.696 35.6949 266.789 37.8609C266.821 38.724 266.663 39.764 266.164 41.0447C265.764 42.0345 265.118 43.2679 264.321 44.588C263.915 46.5907 263.675 49.0417 263.796 51.8659C263.95 55.5117 264.651 59.6631 266.21 63.945C267.351 67.027 271.085 70.1141 276.231 72.1583C284.797 75.6128 294.681 75.4997 301.479 71.8926C303.437 70.8519 305.843 71.6713 306.853 73.7234C307.851 75.7704 307.058 78.2795 305.1 79.3245C294.519 84.9343 281.779 83.3076 273.365 79.9362C268.998 78.1771 264.5 75.5742 261.509 71.6985C258.841 68.2382 257.677 63.4249 254.615 60.2827C251.614 57.215 249.085 58.9189 245.683 60.3851C236.425 64.3675 228.16 69.2396 220.237 75.7088C210.072 84.0289 200.878 93.5896 192.402 103.754C188.481 108.44 184.676 113.192 181.659 118.414C180.016 121.258 175.296 124.854 176.113 128.555C177.417 134.389 191.339 131.033 194.849 130.143C202.335 128.3 207.48 132.726 212.028 136.599C216.294 140.269 220.347 143.736 226.785 143.442C231.288 143.241 232.563 141.313 234.871 137.847C237.92 133.274 242.1 127.006 254.875 126.425C257.084 126.323 258.94 128.112 259.04 130.4C259.138 132.712 257.436 134.649 255.227 134.748C246.404 135.149 244.197 138.447 241.426 142.606C240.855 143.456 240.25 144.363 239.591 145.246C239.558 145.403 239.535 145.544 239.489 145.702C237.83 150.989 235.562 156.197 232.094 160.476C229.557 163.605 225.942 165.513 223.295 168.55C221.594 170.5 219.277 174.594 220.491 177.252C222.495 181.537 226.926 177.338 229.853 176.771C233.361 176.096 237.146 176.497 240.586 175.695C243.913 174.917 246.271 170.813 244.777 167.841C242.339 163.073 240.663 158.545 243.315 153.021C245.466 148.543 249.544 146.25 254.221 146.891C258.585 147.486 266.133 149.015 266.195 142.474C266.218 138.842 262.182 133.251 268.027 132.325C271.999 131.705 276.188 123.141 277.781 117.559C277.807 117.528 277.821 117.44 277.818 117.419C278.507 115.258 280.721 114.077 282.805 114.752C289.296 116.86 281.615 127.227 291.926 125.258C298.023 124.079 298.831 118.048 297.409 112.418C296.985 110.733 297.652 108.968 299.012 107.981C300.389 106.979 302.256 107.018 303.625 107.997C303.817 108.144 305.485 109.273 308.068 108.415C309.855 107.815 308.462 101.287 308.276 100.037C307.646 95.8272 304.855 96.5384 303.167 93.6361C301.193 90.2282 304.773 86.0402 308.225 87.3896L307.921 87.2879C307.943 87.285 309.639 87.6117 312.502 84.6162C313.631 83.4688 316.989 79.9326 320.994 81.2112C324.225 82.254 325.884 85.9965 326.458 89.2963C326.787 91.0168 326.624 91.9794 328.041 93.1799C329.084 94.0902 330.5 94.25 331.461 95.3487C333.824 98.0397 328.8 101.937 330.466 105.113C330.979 106.078 332.096 106.61 333.03 106.908C334.11 107.273 335.046 107.445 336.253 107.389C338.25 107.284 339.913 107.246 341.81 106.494C343.857 105.669 345.583 104.084 346.839 102.217C348.866 99.1657 350.185 94.303 347.792 89.8027C344.403 83.4573 338.542 83.6479 336.133 84.0382C335.084 84.8125 333.683 85.0202 332.39 84.4888C330.437 83.6729 329.466 81.4482 330.074 79.3818C330.216 77.5725 331.01 75.615 331.574 73.858C332.497 70.9185 331.121 64.9764 327.866 64.0309C327.38 63.8977 326.673 63.8733 326.239 64.0502C325.105 64.5065 326.738 67.4775 326.986 68.2597C327.431 69.7338 327.781 71.2472 327.94 72.7628C328.106 74.5607 327.98 76.8262 326.54 78.0682C325.222 79.1999 323.152 78.0732 322.45 76.6987C322.095 75.9516 321.959 75.2082 321.543 74.469C321.137 73.7198 320.74 72.9591 320.356 72.2149C318.648 68.9731 316.951 65.6783 314.758 62.7381C312.501 59.7233 309.55 56.9564 305.783 56.445C300.565 55.7173 296.096 51.6074 290.931 50.235C284.306 48.4644 279.509 54.943 272.709 52.0887C270.66 51.2256 269.659 48.8082 270.5 46.653C271.322 44.5257 273.643 43.4964 275.694 44.3566C278.901 45.7125 283.855 42.9735 285.147 39.8621C285.531 38.8636 285.587 37.5271 285.688 36.2299C285.635 35.851 285.618 35.47 285.681 35.066C286.075 32.0706 286.014 28.0674 283.557 26.1679C281.444 24.5133 278.101 24.7039 275.897 25.7525C273.891 26.7065 271.527 25.7883 270.607 23.7025C270.081 22.4355 270.189 21.061 270.78 19.9465C271.326 17.4489 269.814 14.9978 267.65 13.1943L269.281 11.5039C269.601 11.2468 269.934 10.9645 270.279 10.7203C268.43 9.45968 264.124 9.01059 259.05 10.057C258.343 10.0843 257.644 10.1845 256.961 10.3779C256.502 10.5054 256.046 10.6802 255.683 10.9481C252.535 11.9637 249.24 13.551 246.148 15.8552C244.633 14.7486 242.696 14.1455 240.343 14.0187C238.889 13.9356 237.526 14.0459 236.253 14.3166C237.021 12.6907 237.893 11.2969 238.982 10.2182C242.765 6.51155 223.842 15.3516 218.285 24.7562C218.012 25.2489 217.759 25.7381 217.519 26.2252C217.666 25.5942 217.825 24.9667 217.994 24.3472C220.468 15.285 218.373 9.57643 208.907 8.73268C205.156 8.39532 199.658 9.00629 194.837 13.811C190.226 18.4223 189.56 23.0858 188.842 28.0345C188.02 33.6636 187.015 40.6586 178.712 44.1933C176.282 45.214 172.904 44.0307 170.566 45.474C165.746 48.5224 171.874 50.8925 174.718 52.1539C175.15 52.3451 175.588 52.5242 176.025 52.6932C174.398 54.8728 173.064 57.1598 172.348 59.3924L172.064 60.3608C167.541 58.3524 163.024 55.299 159.543 50.9498C157.822 48.7846 156.501 46.4359 155.586 43.9605C156.925 41.7172 157.445 40.246 156.661 40.8928C155.965 41.4658 155.436 41.8304 154.974 42.0761C154.524 40.4695 154.235 38.8149 154.113 37.1331C151.192 37.8136 148.185 38.6244 145.167 39.5921C147.669 36.7206 148.868 33.5733 149.93 30.5364L150.455 29.2006C155.025 28.119 159.649 27.2946 164.334 26.5447C167.535 26.0218 170.699 25.3163 173.946 25.1315C174.701 25.0706 175.541 24.9488 176.32 24.9983C178.177 25.178 181.046 24.7354 181.598 22.3402C182.009 20.7136 182.361 19.1421 182.916 17.5771C184.314 13.7179 186.539 10.2941 189.352 7.48352C196.299 0.512866 204.172 -0.366703 209.537 0.10603C216.567 0.731326 223.476 4.07841 227.857 8.83296C231.736 6.61756 236.597 5.28388 241.306 5.43644C243.782 5.53314 246.026 6.02879 248.069 6.87756C254.013 0.0924207 263.103 0.31661 269.641 3.77973C275.298 6.77227 278.939 11.6765 279.788 16.8938C283.101 16.7025 286.615 17.4911 289.534 19.8311C292.479 22.1769 295.734 26.7911 295.038 35.6097C297.098 38.464 298.514 42.6713 300.219 45.0056C303.154 48.9837 306.243 48.8283 310.544 50.1863C314.359 51.3789 317.616 53.6 320.375 56.4328C326.071 54.9523 332.759 56.864 336.907 61.3614C339.327 63.9865 342.606 69.3277 341.192 78.2236C346.445 78.6054 352.792 81.098 356.743 88.7405C358.162 91.4737 358.928 94.472 359.056 97.5032C359.245 102.059 358.015 106.716 355.379 110.769C352.148 115.734 346.511 118.769 340.775 119.992C338.168 120.564 335.46 120.158 332.899 119.372C331.283 118.893 330.498 120.539 329.503 122.168C324.49 130.442 328.897 164.191 345.108 195.572C349.59 204.23 356.246 220.636 341.591 225.49C334.374 227.875 329.495 228.757 329.909 238.53C329.959 239.739 330.09 240.901 330.199 241.934C330.271 242.54 330.338 243.234 330.375 243.981C330.663 244.781 330.735 245.688 330.511 246.587C330.425 246.885 330.319 247.162 330.201 247.431C329.763 249.49 328.657 251.362 325.983 252.117C325.529 252.247 325.361 252.458 325.236 252.753C325.087 253.09 325.031 253.522 325.049 253.97C325.068 254.442 325.18 254.938 325.362 255.364C326.066 256.908 326.356 258.305 326.41 259.514C326.477 261.059 326.146 262.318 325.762 263.245C324.74 265.645 322.702 267.233 320.511 268.265C319.276 268.849 318.267 268.904 318.401 270.66C318.513 271.869 319.092 272.97 319.463 274.12C320.159 276.269 320.954 278.714 321.359 281.193C321.511 282.178 321.766 283.549 321.835 285.195C322.115 291.845 319.695 302.668 299.051 307.719C288.985 310.168 277.836 310.673 270.184 309.584C267.23 309.168 267.127 322.474 268.373 325.666C271.404 333.51 280.878 336.166 286.355 337.891C300.062 342.226 314.099 343.802 328.228 344.768C334.948 345.219 341.815 346.209 348.181 348.361C359.471 352.158 368.596 358.897 376.562 367.193C378.782 369.503 381.474 376.661 379.035 379.753C378.361 380.608 377.651 379.194 372.901 373.731C358.513 357.174 342.805 352.007 327.129 351.545C311.054 351.071 289.935 345.23 284.954 355.453C283.96 357.331 282.358 360.374 282.894 362.643C283.145 363.768 283.86 366.784 281.592 368.473C279.372 370.15 277.163 368.587 275.563 367.448C274.69 366.833 273.61 366.059 272.709 365.73C269.611 364.654 266.018 365.301 263.269 367.105C260.549 368.902 259.335 372.299 257.014 374.645C252.171 379.505 245.752 381.726 239.41 383.306C234.235 384.598 226.85 383.845 222.122 381.112C220.356 380.097 219.32 378.208 219.443 376.283C219.371 377.483 235.873 373.71 238.028 372.352C249.593 365.022 249.777 352.701 248.339 340.354C246.706 326.534 245.671 312.939 246.635 299.012C246.773 297.015 228.809 288.171 235.013 278.017C236.011 278.111 236.814 279.362 237.473 280.098C247.315 290.832 257.925 298.296 272.062 300.492C280.935 301.864 290.107 300.664 298.516 297.936C305.237 295.754 315.047 292.384 313.43 282.695C313.142 280.911 312.486 278.881 311.859 276.933C310.965 274.264 310.127 271.675 310.023 269.23C309.959 267.722 310.178 266.262 310.866 264.878C311.498 263.543 312.843 261.794 315.607 260.97C316.493 260.71 317.315 260.643 317.84 259.733C318.198 259.133 318.005 258.909 317.779 258.284C317.387 257.15 317.198 255.93 317.029 254.733C316.677 252.456 313.692 254.232 312.611 254.539C311.366 254.874 309.792 254.486 308.634 255.1C307.724 255.59 307.284 256.722 306.678 257.598C306.123 258.386 305.622 259.434 305.064 260.211C303.805 261.927 302.164 264.333 299.778 263.649C299.771 263.478 299.845 263.102 299.811 262.972C299.539 260.969 301.26 257.678 302.177 255.99C303.134 254.22 303.821 252.14 304.306 250.126C304.525 249.149 304.784 248.184 304.954 247.213C305.106 246.414 305.101 244.842 305.766 244.267C307.092 243.141 308.103 245.266 309.154 245.816C310.933 246.778 312.555 245.262 314.039 244.325C315.324 243.498 316.631 242.685 318.022 242.054C319.286 241.481 320.911 241.255 321.648 239.852C322.107 238.998 321.804 237.731 321.827 236.782C321.859 235.263 322.013 233.75 322.264 232.276C322.342 231.822 322.825 230.493 322.617 230.171C322.401 229.831 321.205 229.775 320.864 229.798C320.104 229.933 319.476 229.964 318.745 230.229C318.099 230.454 317.374 230.462 316.723 230.321C315.365 229.994 314.233 228.949 313.748 227.558C312.993 225.323 314.073 222.83 316.155 222.02C322.784 219.434 326.204 220.145 328.955 220.709C330.137 220.958 331.06 221.143 332.258 221.088L333.688 221.058C335.171 221.032 339.734 221.649 342.485 217.915C348.738 209.428 325.711 181.771 322.729 145.33C321.415 129.159 322.825 112.543 321.251 96.4396C320.931 93.104 317.641 97.5906 317.462 98.7359C317.003 101.352 318.095 104.45 318.268 107.078C318.633 112.746 317.761 118.488 312.07 120.444C310.91 120.845 309.357 120.646 308.274 121.431C307.007 122.363 307.305 124.584 307.036 126.059C306.212 130.294 304.035 134.073 300.402 136.117C296.85 138.105 293.054 140.362 288.961 140.745C287.173 140.902 285.416 140.634 283.716 139.992C282.985 139.702 282.083 138.935 281.336 138.821C279.357 138.551 277.838 141.381 276.52 142.506C273.975 144.691 274.77 146.45 274.68 149.499C274.565 152.467 273.708 155.385 271.737 157.548C270.091 159.365 267.999 160.272 265.737 160.884C261.599 161.982 262.848 167.15 262.207 170.714C261.43 175.328 259.664 179.878 256.788 183.46C254.225 186.663 250.791 188.935 246.986 189.955C244.359 190.647 242.027 190.735 240.161 193.095C238.486 195.224 238.46 198.428 236.654 200.494C233.343 204.336 228.361 204.801 223.752 205.052C219.281 205.293 215.914 205.805 214.913 210.878C214.158 214.817 216.06 219.029 213.422 222.382C211.101 225.316 201.816 226.481 202.673 231.618C203.223 235.075 210.018 235.654 206.944 240.439C204.255 244.649 199.045 243.086 195.512 244.552C191.967 246.043 192.762 250.648 192.882 254.328C192.983 257.105 193.322 259.398 191.161 261.006C189.718 262.098 188.68 260.823 187.285 262.767C185.679 264.994 186.863 267.843 186.277 270.316C185.324 274.36 183.681 274.683 180.501 275.173C176.077 275.854 171.827 272.899 167.513 274.304C165.541 274.965 163.538 277.087 162.492 278.943C160.824 281.85 161.569 282.425 162.383 285.02C164.055 290.527 163.778 296.029 160.145 300.848C159.2 302.111 158.106 303.238 156.969 304.311C155.852 305.334 154.128 306.302 153.731 307.903C152.813 311.364 153.664 315.515 153.112 319.109C152.391 323.839 150.585 328.276 147.75 331.988C144.609 336.11 141.162 338.054 137.483 337.777C135.669 337.625 133.969 337.138 132.587 338.84C131.411 340.294 130.448 341.821 129.095 343.144C125.752 346.374 121.729 348.734 117.636 350.662C112.185 353.231 103.334 355.884 93.9583 358.689L79.7119 363.09C45.6826 373.394 39.968 382.555 26.3883 396.02C20.6764 401.29 15.9034 391.348 18.4754 387.94L18.4748 387.944ZM100.937 189.759C100.833 189.225 100.757 188.705 100.718 188.191C100.561 185.948 99.6825 187.831 98.8819 191.651C97.8339 192.614 96.7396 193.632 95.6757 194.755C94.4909 193.075 93.3649 191.35 92.301 189.59L91.396 188.058C93.2771 187.494 98.1489 185.641 101.982 180.791C102.349 180.332 102.687 179.818 103.002 179.256C103.004 181.142 103.154 182.965 103.498 184.636C103.629 185.258 103.767 185.87 103.917 186.467C103.152 187.579 102.114 188.647 100.938 189.759H100.937ZM90.5559 186.578C89.6778 184.998 88.8406 183.397 88.0351 181.776C87.3332 180.37 86.6824 178.952 86.042 177.53C86.7066 174.197 88.0751 165.266 85.0043 159.968C82.3094 155.323 79.2683 151.432 77.4887 147.98C79.0521 148.489 80.5892 148.566 81.5198 147.543C84.5795 152.516 87.9494 155.243 87.9494 155.243C87.9494 155.243 92.0232 143.263 88.5925 136.537C85.3401 129.832 81.1253 124.651 80.8179 120.17C80.7509 118.914 80.279 119.328 79.7167 120.775C79.383 120.224 78.8711 119.815 78.0967 119.544C73.3769 117.923 73.4391 130.849 72.5182 133.698C70.8429 138.807 68.3966 142.605 73.6014 146.029C73.8494 146.198 74.0788 146.344 74.3482 146.503L74.4553 146.566C73.5289 151.252 72.9714 159.611 75.2608 165.043C77.0929 169.25 79.5288 172.556 81.5916 174.874C80.7695 175.507 80.3136 176.603 79.9025 177.654C77.1357 174.213 74.7454 171.247 73.9178 168.384L73.9814 167.654C74.4007 161.945 72.7171 156.136 69.8971 153.536C64.4789 148.549 57.5395 147.965 50.7313 148.883C48.8018 149.149 44.6719 149.032 43.9942 151.552C43.6847 152.755 44.2795 154.385 44.4212 155.629C44.5441 156.57 44.7465 157.488 45.179 158.32C46.3742 160.492 49.0056 161.366 51.0884 162.082C57.0137 164.063 59.2949 167.632 60.1563 170.289C62.0637 176.17 58.6786 181.743 58.2945 182.352C57.0531 184.318 54.5702 184.805 52.7368 183.492C51.6003 182.695 50.9945 181.4 50.9358 180.075C50.8957 179.199 51.1251 178.294 51.6003 177.503C52.5613 175.952 53.0967 173.891 51.4905 172.626C49.762 171.274 47.7876 171.387 46.2084 172.867C44.4978 174.473 44.1352 177.398 44.33 179.698C44.3935 180.332 44.4978 180.949 44.7244 181.53C45.1486 182.546 45.9465 183.488 46.7949 184.094C50.7009 186.893 59.0427 187.231 65.6678 182.855C69.3569 180.429 71.4356 177.144 72.5983 174.054C72.6011 177.818 73.0363 182.562 74.3303 186.523C72.988 187.931 71.4992 189.175 69.8937 190.227C61.279 195.897 49.4201 196.367 42.3238 191.286C40.1331 189.707 38.3163 187.5 37.3132 184.833C36.2776 182.031 35.7014 174.781 37.9909 170.363C38.7694 168.845 40.6934 167.313 40.0931 165.36C39.901 164.743 39.2316 164.245 38.8606 163.701C38.4199 163.062 38.0468 162.362 37.7187 161.637C36.5802 159.07 36.4517 156.356 36.1823 153.576L35.7816 149.59C35.49 147.878 35.2054 147.629 32.1533 146.583C29.7492 145.761 26.7371 144.725 24.219 141.74C21.3645 138.307 20.3738 133.497 19.5262 129.234C19.0882 127.086 18.3545 123.498 17.6243 122.84L17.1062 122.397C12.7684 118.721 3.71294 111.081 0.30643 84.6979C0.164808 83.6221 0.0743075 82.5377 0.0287123 81.5062C-0.275256 74.3451 1.84284 67.4962 5.97611 61.8886C9.76466 56.7745 14.8334 52.8844 20.1687 49.7895C22.4844 48.4322 24.9258 47.2253 27.3582 46.0972C28.3882 45.613 29.4259 45.1538 30.4718 44.7062C32.1547 43.9677 34.0814 43.7765 35.1508 41.9507C35.8154 40.8083 35.5833 39.4417 35.7512 38.1502C36.7218 30.6675 40.7563 25.0448 46.7396 21.1634C55.7709 15.28 61.88 16.6158 67.7763 17.9194C71.9247 18.8341 76.2204 19.7581 82.5374 18.5526C83.4127 18.3929 84.2907 18.2482 85.1736 18.163C92.4571 17.3801 99.7137 19.4436 105.661 24.0542C108.806 26.4831 111.493 29.5121 113.771 32.8478C114.969 34.6456 116.29 36.5766 117.141 38.6129C117.808 40.2088 118.865 42.6541 120.949 41.5589L121.717 41.1277C119.513 44.6016 117.512 48.6513 117.013 52.1145C116.866 53.3844 116.808 54.6042 116.813 55.7681C115.572 56.9908 114.369 58.2793 113.203 59.6352C112.998 57.4241 113.024 55.4587 113.563 53.7819C115.038 49.5388 104.047 63.3834 103.481 72.5831L103.457 73.853C102.376 75.8105 101.343 77.8275 100.362 79.8911C100.007 78.041 99.8843 76.3535 100.186 74.8429C101.073 70.503 91.711 85.3261 92.4281 94.5429C92.5642 96.1201 92.8205 97.6078 93.1535 98.988C92.5082 101.17 91.9127 103.369 91.369 105.583C89.997 102.341 88.9704 99.4973 89.1728 97.0212C89.5307 92.5954 82.1166 108.298 83.9494 117.429C85.4299 123.935 88.7086 128.657 90.4827 130.844C91.2246 137.732 92.6789 144.534 94.8108 151.087C91.9238 156.144 92.2416 164.984 92.2416 164.984C92.2416 164.984 95.4374 164.367 99.0767 161.947L99.8235 163.515C100.32 164.536 100.831 165.548 101.365 166.551C99.2791 168.148 96.7576 169.799 94.3562 171.91C90.8564 175.071 90.5228 183.071 90.5525 186.576L90.5559 186.578ZM127.637 37.5765C130.841 35.8926 134.141 34.4264 137.486 33.1486C135.155 36.2744 133.261 40.1522 132.394 44.7606C130.913 45.5077 129.453 46.302 128.023 47.1536C127.81 43.5609 127.447 40.3212 127.637 37.5772L127.637 37.5765ZM162.184 39.8843C164.011 40.3678 166.545 39.2669 168.234 38.6695C171.055 37.6632 174.245 37.6188 177.185 37.0178C178.098 36.8022 179.226 36.3481 179.435 35.3919C179.941 32.8886 177.388 32.9874 176.004 33.0132C175.155 33.0182 174.309 33.0519 173.472 33.0984C170.172 33.2782 166.875 33.7789 163.767 34.9629C162.859 35.2924 161.592 35.4664 160.965 36.2328C160.811 36.4348 160.677 36.6726 160.612 36.9548C160.328 38.2376 161 39.5606 162.184 39.8843ZM144.946 261.44C142.449 259.409 137.791 262.62 135.414 263.832C131.65 265.746 128.501 264.023 125.116 261.052C123.496 259.625 120.941 258.435 120.781 262.983C120.759 263.348 120.773 263.689 120.823 263.99C121.108 266.297 122.699 267.016 123.939 268.368C127.901 272.711 131.679 275.649 136.425 277.095C141.12 278.537 144.84 276.75 146.643 272.23C148.024 268.778 147.388 263.465 144.946 261.44ZM196.258 198.735C195.458 196.78 190.472 194.467 188.556 193.836C185.578 192.83 182.313 192.979 179.28 193.421C173.621 194.231 168.176 196.281 162.877 198.472C157.948 200.516 152.534 199.933 148.004 196.895C145.432 195.153 144.56 192.419 141.412 193.316C138.707 194.085 136.626 197.902 136.5 200.734C136.354 204.369 138.314 207.652 141.081 209.735C143.799 211.774 147.262 212.648 150.29 211.599C158.567 208.696 168.52 207.196 179.093 207.259L182.244 207.345C186.067 207.453 199.564 206.792 196.258 198.735V198.735ZM220.528 165.525C223.751 164.297 230.949 157.59 224.264 156.712C217.538 155.81 212.717 152.665 207.482 148.035C203.083 144.154 200.639 142.173 197.115 143.067C190.712 144.688 183.548 145.54 177.073 143.941C171.22 142.497 166.372 142.555 163.136 149.02C160.527 154.255 161.322 162.795 166.146 166.064C168.754 167.826 171.753 168.158 174.584 167.002C186.47 162.122 201.455 157.428 211.679 164.44C214.381 166.294 217.532 166.678 220.528 165.524L220.528 165.525ZM196.469 169.652C189.909 170.197 183.569 172.582 177.473 175.088C172.3 177.207 166.601 176.578 161.861 173.37C158.317 170.969 157.293 168.037 152.717 169.979C150.036 171.126 147.931 173.561 146.835 176.39C143.62 184.619 152.36 193.891 160.068 190.705C171.457 185.964 185.805 181.425 195.622 188.238C198.187 190.025 201.156 190.412 203.982 189.333C207.588 187.942 211.449 183.795 212.876 179.997C215.894 171.978 200.905 169.254 196.469 169.652ZM122.379 181.953C119.25 176.725 114.482 172.332 110.552 168.374C109.208 164.75 108.247 161.544 108.321 158.745C108.37 156.601 107.327 158.13 106.15 161.5C106.011 161.295 105.828 161.403 105.606 161.914L105.361 162.421C104.502 161.235 103.68 160.003 102.911 158.734C103.229 158.399 103.546 158.047 103.853 157.677C105.449 155.782 106.625 152.908 107.436 149.959C108.61 152.454 110.002 154.798 111.534 156.935C113.137 168.033 118.331 175.513 118.331 175.513C118.331 175.513 120.404 171.888 122.066 167.125C123.907 168.265 125.727 169.076 127.431 169.504C127.851 167.114 128.376 164.362 129.032 161.286C130.376 161.474 133.608 161.759 137.551 160.91C136.948 163.721 136.577 166.547 136.973 168.5C134.763 169.26 132.373 170.074 129.974 171.18C126.528 172.804 123.993 177.711 122.379 181.951V181.953ZM97.8981 147.838C97.2584 145.874 96.743 143.872 96.361 141.838C97.9727 141.485 100.921 140.616 104.005 138.614C104.203 140.036 104.483 141.435 104.84 142.81C102.887 144.378 100.393 145.913 97.8981 147.838ZM95.7724 137.546C95.6868 136.595 95.6335 135.64 95.6149 134.681C95.5852 132.883 96.5807 131.314 98.0273 130.634C96.9254 132.827 96.2159 135.397 95.7731 137.546H95.7724ZM129.924 157.263C130.813 153.379 131.891 149.075 133.176 144.406C132.291 144.108 131.405 143.754 130.525 143.35C131.755 141.131 133.068 138.392 133.956 135.535C134.502 135.767 135.05 135.975 135.596 136.149C136.728 132.404 138.005 128.471 139.414 124.372L139.894 123.008C140.113 123.475 140.246 123.724 140.246 123.724C140.246 123.724 150.073 112.563 149.328 103.543C149.288 102.887 149.238 102.239 149.179 101.597C150.438 99.122 151.732 96.7182 153.034 94.3946C153.725 98.0383 154.653 100.289 154.653 100.289C154.653 100.289 165.843 90.5132 166.251 81.7261C166.392 78.8546 166.337 76.0884 166.285 73.4999C167.889 71.248 169.417 69.1765 170.842 67.3092C170.317 74.0614 171.769 78.9571 171.769 78.9571C171.769 78.9571 172.395 78.5338 173.385 77.7867C165.32 88.9503 155.179 105.106 148.339 123.597C143.637 128.163 140.585 136.464 140.585 136.464C140.585 136.464 141.868 136.758 143.95 136.825C143.184 139.364 142.458 141.917 141.772 144.484C141.122 144.663 140.461 144.857 139.799 145.07C135.346 146.577 131.827 152.998 129.925 157.263H129.924ZM123.524 139.04C121.99 137.848 120.506 136.529 119.103 135.109C118.905 133.671 118.857 132.335 119.017 131.107C119.308 129.223 118.308 130.197 116.936 132.769C115.306 130.889 113.82 128.883 112.523 126.803C114.428 121.234 114.892 116.024 113.622 118.067C112.793 119.42 111.424 120.524 109.752 121.595C109.151 120.237 108.641 118.867 108.239 117.503C109.914 116.79 111.715 115.807 113.476 114.452C114.138 113.938 114.775 113.313 115.386 112.602C116.064 116.792 118.59 121.708 122.08 126.015C121.992 126.808 121.947 127.591 121.954 128.349C122.046 132.357 122.701 135.994 123.523 139.04H123.524ZM136.81 113.122C135.129 112.145 133.505 110.959 131.968 109.623C131.901 108.102 131.987 106.71 132.307 105.469C132.811 103.513 131.464 104.614 129.59 107.36C125.898 103.533 122.913 98.8827 121.23 94.318L122.137 93.7156C123.855 92.5087 125.48 90.582 126.89 88.454C127.617 88.9496 128.2 89.696 128.518 90.6314C129.86 94.5429 132.807 98.8827 136.3 102.171C136.223 102.705 136.167 103.23 136.137 103.75C135.985 107.178 136.298 110.356 136.809 113.123L136.81 113.122ZM152.302 87.1124C150.686 86.3546 149.127 85.4135 147.647 84.2882C147.741 83.428 147.897 82.6208 148.146 81.8708C148.725 80.1969 147.631 80.8358 145.902 82.8499C143.501 80.709 141.314 78.0531 139.368 74.903C138.141 72.9061 138.645 70.2337 140.51 68.9122C142.356 67.6065 144.869 68.1516 146.086 70.1406C148.239 73.6338 150.699 76.2561 153.441 78.0181C153.172 78.8145 152.956 79.606 152.806 80.3803C152.417 82.7454 152.279 85.0131 152.302 87.1131V87.1124ZM89.6095 80.5149C90.3984 80.1941 91.1618 79.6518 91.8851 78.8024C94.1365 76.2467 94.9856 72.5071 96.6284 69.5311C97.5672 67.802 99.0484 66.3444 98.8377 64.3246C98.0453 57.1691 82.3688 62.6457 79.1433 65.0659C76.4034 67.1072 75.2214 69.5246 75.5012 72.4513C76.1471 79.1562 77.1958 79.3417 81.6296 80.0888C84.4385 80.5486 87.1625 81.5084 89.6095 80.5149ZM14.5909 99.5238C14.7643 102.683 16.1591 107.883 18.6378 110.652C19.2809 111.376 19.9746 111.927 20.7662 112.248C24.2743 113.653 29.3602 110.793 31.593 108.188C37.2517 101.554 36.024 95.5657 34.002 91.7101C31.1689 86.2937 26.1099 83.6493 23.7251 84.1364C17.397 85.4593 14.2537 93.3503 14.5902 99.5245L14.5909 99.5238ZM15.9808 78.4793C17.8295 77.069 19.9296 76.1171 22.1811 75.6494C28.5706 74.3329 36.86 79.5301 41.043 87.4942C45.6743 96.34 44.3935 106.021 37.548 114.035C36.3467 115.451 27.4653 119.766 29.3202 122.609C30.2563 124.061 36.5608 123.851 37.9024 123.632C40.6264 123.176 43.1991 121.939 45.2847 120.025C49.4283 116.244 51.5762 110.079 50.9648 103.995C42.1158 90.024 42.9103 65.5501 49.9327 49.7028C50.8687 47.5619 53.2756 46.6523 55.2929 47.6729C57.3039 48.7079 58.1654 51.2879 57.1996 53.4374C51.2584 66.8558 50.4929 87.5135 57.3253 98.6772C57.8669 99.1506 58.307 99.7666 58.5474 100.519C59.0192 101.077 59.4489 101.642 59.9456 102.135C64.6592 106.917 70.4014 110.256 76.8628 111.119C78.7412 111.368 80.1761 110.735 81.3181 109.595C83.689 107.178 84.7169 102.536 85.4554 99.2301C86.5919 94.2435 85.8237 89.5355 80.3944 88.6259C74.0339 87.5465 68.664 85.652 67.4792 73.3158C66.8975 67.2498 69.3839 61.8091 74.5223 57.9771C79.8417 53.9717 86.6796 52.3702 93.1175 52.4812C98.8024 52.5808 105.467 57.3468 109.474 51.01C110.608 49.2222 111.374 47.3341 111.091 45.1345C110.616 41.8734 107.447 37.9927 105.446 35.5502C99.9768 28.7873 92.2802 25.4839 83.9826 27.0747C76.1209 28.5745 70.6094 27.3626 66.1908 26.4C60.8306 25.2024 57.2666 24.4446 50.9413 28.5631C44.4523 32.784 44.0253 36.6432 43.5694 40.7223C43.2309 43.8431 42.7583 48.1278 38.634 50.4148L34.699 52.2183C27.7333 55.4186 20.6371 58.4691 15.0717 64.1648C12.1018 67.1939 9.56225 71.0381 8.62409 75.403C8.10873 77.8512 8.31393 84.7803 12.2413 82.2741C13.5995 81.4131 14.653 79.4971 15.9815 78.4786L15.9808 78.4793ZM45.3842 141.142C47.4519 140.722 49.7682 140.531 52.0411 140.172C56.0079 139.579 59.9353 138.584 62.5819 135.422C65.529 131.926 66.5887 126.109 65.8626 121.487C65.2229 117.604 61.9656 113.794 58.5688 112.511C56.5757 117.874 54.7671 122.754 50.5143 126.621C44.5939 132.028 36.8012 133.727 28.3254 131.559C30.2114 138.587 38.9221 142.426 45.3835 141.143L45.3842 141.142ZM186.612 54.4803L187.661 54.4194C188.82 54.3284 189.96 54.1486 191.067 53.8829C190.867 57.4177 191.24 59.7083 191.24 59.7083C191.24 59.7083 204.727 52.9067 207.162 44.636C208.254 41.2123 208.995 37.8838 209.739 34.8798L210.094 34.9263C212.285 35.3275 213.781 37.5658 213.407 39.9244C211.182 54.2009 199.513 63.8425 185.283 63.4837C185.418 63.0267 185.53 62.5712 185.605 62.112C186.064 59.4597 186.349 56.8926 186.61 54.4803H186.612ZM218.854 46.1129L218.491 45.3551C217.935 44.1432 217.503 42.8991 217.181 41.6341C219.168 40.5698 221.762 39.0427 224.19 37.1704C224.414 38.3042 224.726 39.408 225.129 40.4731C225.614 41.7674 226.399 42.9184 227.444 43.9419L226.374 43.881C223.965 43.7593 221.319 44.7413 218.854 46.1136V46.1129ZM257.986 22.6532C258.453 26.0669 258.176 28.7966 257.492 30.9654L257.42 30.9518C255.008 30.4289 252.377 29.8559 249.58 29.4777L249.395 29.4555C249.958 28.5452 250.185 27.3863 250.219 26.1865C253.381 25.4287 255.878 24.1667 257.986 22.6539L257.986 22.6532ZM235.634 34.5883L235.437 34.2402C232.131 28.0545 233.871 22.9297 235.404 20.8883C236.747 19.0927 239.169 18.8191 240.898 20.1857L241.189 20.44C239.636 22.2156 238.211 24.2404 236.976 26.5447C238.596 26.7552 240.108 26.8763 241.531 26.9322L241.528 27.3497C241.554 28.0524 241.768 29.0014 242.398 30.199C242.483 30.3423 242.662 30.4948 242.91 30.6388C240.229 31.696 237.618 33.256 235.635 34.589L235.634 34.5883Z" fill="#915507"/>
<path d="M150.287 59.6281C150.198 60.0593 150.089 60.5077 149.959 60.9704C149.706 61.8707 149.273 62.9859 148.707 64.1721C146.869 68.0198 142.903 74.242 138.333 78.0195C138.295 78.3268 138.248 78.642 138.192 78.9664C138.033 79.8775 137.707 81.04 137.247 82.3128C135.851 86.177 132.709 92.3884 128.751 96.6151C128.765 97.2547 128.733 97.9395 128.658 98.6686C128.56 99.6284 128.309 100.83 127.934 102.127C126.823 105.952 124.215 112.035 120.675 116.464C120.749 117.037 120.791 117.652 120.801 118.304C120.817 119.33 120.711 120.576 120.489 121.891C119.829 125.803 117.953 132.054 114.973 136.846C115.094 137.375 115.191 137.942 115.264 138.546C115.372 139.448 115.389 140.689 115.303 142.124C115.071 146.026 113.933 152.277 111.626 157.331C112.137 158.358 112.508 159.635 112.737 161.15C112.88 162.098 112.94 163.351 112.904 164.762C112.808 168.351 112.032 173.911 110.297 178.748C111.025 179.757 111.606 181.106 112.036 182.773L112.043 182.771C112.287 183.722 112.478 184.984 112.589 186.408C112.869 190.059 112.669 195.8 111.427 200.887C112.156 201.809 112.799 203.025 113.352 204.523C113.675 205.397 113.994 206.629 114.267 208.08C114.984 211.903 115.462 218.122 114.719 223.578C115.26 224.288 115.785 225.134 116.291 226.112C116.739 226.978 117.219 228.147 117.659 229.478C119.424 234.798 121.487 245.122 119.82 251.648C119.79 251.763 119.759 251.876 119.724 251.987C118.124 258.045 115.054 262.2 112.837 264.57C113.718 266.225 114.616 267.882 115.526 269.533C117.648 273.381 119.541 276.681 121.226 279.52C122.858 282.266 124.736 285.308 126.725 288.462C128.685 291.568 127.845 295.736 124.849 297.768C122.655 299.258 119.911 299.189 117.83 297.824L116.213 296.947L114.187 295.814C113.376 295.362 112.697 294.754 112.162 294.05L112.159 294.052C109.702 290.814 107.108 287.242 104.383 283.309C101.924 279.761 99.5215 276.137 97.212 272.459C94.6953 268.453 92.2539 264.358 89.9368 260.213C87.9209 256.605 85.9589 252.896 84.0792 249.103C83.5313 248.584 82.9856 248.043 82.4495 247.485C81.5507 246.551 80.6665 245.563 79.8174 244.528L79.7953 244.5L79.7925 244.502C74.9387 238.509 71.9059 228.125 70.9567 222.497L70.9526 222.498C70.7177 221.104 70.5954 219.803 70.5885 218.758C70.5781 216.969 70.7405 215.451 71.0776 214.219C68.4393 208.104 67.2477 200.628 67.0439 196.19C66.9755 194.702 67.0107 193.396 67.1357 192.423C67.3395 190.836 67.6697 189.49 68.1243 188.401C66.154 182.074 65.8978 174.548 66.2598 170.143C66.382 168.639 66.5851 167.347 66.8297 166.416C67.1509 165.193 67.5329 164.133 67.973 163.242C66.6314 156.751 67.267 149.155 68.1892 144.773C68.4939 143.325 68.869 142.055 69.2552 141.115C69.8334 139.718 70.4752 138.572 71.1792 137.689C70.6169 131.46 71.7802 124.564 72.9691 120.505C73.2793 119.444 73.6151 118.496 73.946 117.72C74.0379 117.463 74.147 117.21 74.2707 116.96C75.1819 115.145 76.1781 113.794 77.2468 112.932C77.5425 106.741 79.6184 100.098 81.3379 96.2584C81.9424 94.9068 82.5704 93.7529 83.1348 92.9278L83.1472 92.9364C84.1704 91.4423 85.2115 90.3227 86.2581 89.6008C87.2646 83.3807 90.2539 76.8005 92.5012 73.0888C93.0836 72.1276 93.6749 71.2724 94.2241 70.5826C94.3568 70.3956 94.4991 70.2137 94.6531 70.0375C95.7668 68.774 96.8555 67.8343 97.909 67.2355C99.6527 61.0728 103.492 54.6694 106.173 51.1676C107.029 50.0502 107.879 49.0983 108.609 48.4222C109.804 47.3156 110.938 46.4947 111.999 45.9719C114.234 40.0627 118.381 34.0626 121.215 30.7886C122.209 29.639 123.104 28.7322 123.787 28.167C128.071 24.6287 131.413 24.3064 133.446 27.6549C134.748 26.0748 136.133 24.6746 137.541 23.4512C143.067 18.6529 149.545 16.4426 153.24 16.8523L153.239 16.8573L153.431 16.8795C154.422 16.9783 155.407 17.3171 156.303 17.9138C159.313 19.9164 160.188 24.0729 158.256 27.1944L158.115 27.4572L157.241 29.6991C157.202 29.8152 157.16 29.9326 157.114 30.0487L155.934 33.0591L155.928 33.057L155.533 34.1629C156.14 34.0289 156.761 33.9881 157.398 34.0339V34.0375C163.384 34.4572 165.161 38.0658 162.87 43.9814L162.862 43.9778C162.542 44.8079 162.067 45.7935 161.492 46.8056L161.48 46.7984C159.425 50.4105 155.168 56.2273 150.282 59.6267L150.287 59.6281ZM94.2276 70.584C94.3789 70.3935 94.5267 70.2159 94.6704 70.0518L94.2276 70.584Z" fill="#915507"/>
<path fill-rule="evenodd" clip-rule="evenodd" d="M119.33 77.1127C119.33 77.1127 123.58 66.3494 129.329 64.162C135.057 61.9437 140.462 61.3485 143.202 58.6711C145.944 55.9658 139.435 70.0589 132.613 73.9511C125.804 77.8433 119.329 77.1127 119.329 77.1127H119.33ZM93.1043 212.491C93.1043 212.491 90.9696 200.029 95.0228 195.46C99.1097 190.924 103.821 188.094 105.005 184.308C106.212 180.523 107.596 197.178 103.365 203.88C99.3149 210.574 93.1043 212.491 93.1043 212.491ZM85.7565 178.838C85.7565 178.838 88.8349 166.576 85.0049 159.968C81.1708 153.36 76.6354 148.275 76.0303 143.817C75.4189 139.331 71.5026 156.126 75.2621 165.044C79.1543 173.975 85.7573 178.838 85.7573 178.838H85.7565ZM92.2456 164.986C92.2456 164.986 91.8131 152.914 96.5599 148.917C101.322 144.923 106.449 142.633 108.082 139.089C109.769 135.555 108.955 151.622 103.854 157.678C98.8223 163.713 92.2456 164.986 92.2456 164.986ZM87.95 155.243C87.95 155.243 92.0238 143.263 88.5931 136.537C85.3407 129.832 81.1259 124.651 80.8185 120.17C80.5787 115.728 75.3491 132.179 78.4523 141.184C81.6537 150.145 87.95 155.244 87.95 155.244V155.243ZM91.6639 226.932C91.6639 226.932 91.6936 213.851 86.5766 207.883C81.454 201.885 76.0013 197.623 74.3308 193.203C72.65 188.807 73.146 206.529 78.7916 214.878C84.4688 223.228 91.6646 226.932 91.6646 226.932H91.6639ZM95.0918 142.065C95.0918 142.065 96.012 130.262 101.14 126.747C106.263 123.231 111.577 121.4 113.624 118.066C115.675 114.764 113.199 130.392 107.442 135.88C101.797 141.351 95.0925 142.065 95.0925 142.065L95.0918 142.065ZM152.276 42.9148C151.267 43.1497 150.259 43.3883 149.264 43.5953C147.231 44.0128 145.014 44.4641 142.73 45.1223C136.967 46.7898 131.639 57.0438 131.639 57.0438C131.639 57.0438 137.85 58.3438 144.867 55.102C151.91 51.8652 158.7 39.2074 156.66 40.8928C154.618 42.5746 154.021 42.4363 152.276 42.9148ZM119.418 67.9889C119.418 67.9889 128.316 58.5902 128.166 51.376C128.159 44.1511 126.701 37.9855 128.43 33.8255C130.186 29.6683 118.341 42.9485 117.017 52.1152C115.963 61.2876 119.418 67.9897 119.418 67.9897V67.9889ZM149.928 30.5364C150.717 28.528 151.505 26.5225 152.284 24.5148C152.45 24.2075 152.62 23.873 152.81 23.5657C148.288 22.7112 133.734 30.7942 132.048 47.1415C145.078 43.2966 147.778 36.6905 149.929 30.5371L149.928 30.5364ZM106.502 261.463C106.502 261.463 101.25 249.016 103.691 243.279C106.19 237.572 109.806 233.498 109.865 229.307C109.932 225.117 115.595 241.973 113.556 249.94C111.561 257.884 106.502 261.463 106.502 261.463ZM108.995 98.0891C108.995 98.0891 112.028 86.8868 117.649 84.1643C123.257 81.4117 128.7 80.333 131.226 77.3848C133.736 74.4339 128.593 89.1795 122.137 93.7134C115.648 98.2416 108.995 98.0891 108.995 98.0891ZM90.6076 188.264C90.6076 188.264 89.8208 176.013 94.3609 171.911C98.9875 167.848 104.054 165.497 105.606 161.914C107.167 158.31 106.869 174.658 101.983 180.791C97.1277 186.928 90.6076 188.264 90.6076 188.264ZM107.154 88.3608C107.154 88.3608 115.435 78.5079 114.704 71.2809C114.135 64.0996 112.205 58.0114 113.568 53.7819C115.042 49.5388 104.051 63.3834 103.485 72.583C103.119 81.8106 107.154 88.3608 107.154 88.3608ZM91.6826 132.209C91.6826 132.209 97.2479 120.838 94.783 113.898C92.3499 106.991 88.817 101.425 89.1776 97.0219C89.5354 92.5961 82.1214 108.299 83.9542 117.43C86.0377 126.585 91.6826 132.209 91.6826 132.209ZM98.1764 109.879C98.1764 109.879 105.158 99.2208 103.555 92.1369C101.997 85.0309 99.3177 79.2113 100.19 74.8436C101.077 70.5037 91.715 85.3267 92.4321 94.5436C93.2217 103.766 98.1764 109.879 98.1764 109.879V109.879ZM87.3821 202.769C87.3821 202.769 89.0387 190.07 84.5324 183.708C80.1173 177.36 75.0355 172.646 73.861 168.176C72.7972 163.717 70.9671 181.003 75.6703 189.705C80.4668 198.415 87.3821 202.769 87.3821 202.769ZM98.1812 236.881C98.1812 236.881 94.6946 224.314 98.0859 219.233C101.575 214.163 105.863 210.794 106.521 206.808C107.263 202.809 110.51 219.734 107.196 226.978C103.999 234.265 98.1812 236.881 98.1812 236.881ZM98.3097 250.037C102.069 258.08 106.007 265.817 109.899 272.87C113.819 279.976 117.719 286.463 121.302 292.142C119.963 291.414 118.61 290.656 117.258 289.899C112.309 283.376 107.355 276.309 102.641 268.805C97.9291 261.306 93.3937 253.303 89.3068 244.948C87.8152 243.6 86.2733 242.03 84.7659 240.189C78.3764 232.301 75.6441 214.291 77.7677 218.573C79.9473 222.89 85.7503 226.65 91.3482 232.21C95.9609 236.813 97.8096 246.762 98.3111 250.037L98.3097 250.037ZM100.455 119.389C100.455 119.389 102.792 107.94 108.223 104.949C113.714 101.968 119.191 100.645 121.568 97.5726C123.937 94.497 119.735 109.597 113.476 114.451C107.199 119.278 100.454 119.389 100.454 119.389L100.455 119.389Z" fill="white"/>
<path d="M250.636 47.8361C250.298 48.3812 249.903 48.9406 249.451 49.515C248.825 50.3086 247.898 51.2691 246.773 52.2719C243.044 55.5946 235.847 60.5332 229.235 62.2924C229 62.7443 228.734 63.2099 228.433 63.6848C227.913 64.5085 227.076 65.565 226.015 66.7217C222.736 70.3009 216.396 75.6779 210.194 78.2285C209.934 79.0214 209.569 79.8573 209.097 80.7368C208.618 81.6293 207.844 82.7574 206.86 83.9858C203.915 87.6602 198.242 93.1496 192.408 96.1422C192.246 96.9143 191.995 97.7373 191.656 98.6061C191.288 99.5487 190.636 100.786 189.774 102.17C187.284 106.158 182.349 112.191 176.929 115.856C176.843 116.586 176.687 117.365 176.461 118.192C176.17 119.254 175.66 120.571 174.983 121.977C172.956 126.191 168.783 132.657 163.906 136.949C164.147 138.296 164.035 139.926 163.579 141.807C163.34 142.793 162.862 144.123 162.195 145.637C160.443 149.615 156.952 155.559 152.756 159.96C153.267 161.346 153.373 163.134 153.082 165.285C152.941 166.316 152.6 167.707 152.091 169.292C150.734 173.516 147.829 179.933 144.075 184.855C144.595 186.152 144.817 187.828 144.749 189.85C144.712 190.981 144.523 192.416 144.203 193.985C143.264 198.588 140.93 205.822 137.584 211.369C137.939 212.424 138.179 213.683 138.308 215.134C138.405 216.237 138.404 217.66 138.3 219.232C137.86 225.768 135.571 237.776 130.996 243.887C126.271 250.254 120.59 253.293 117.221 254.637C117.475 257.275 117.745 259.851 118.033 262.356C118.573 267.066 119.186 271.666 119.835 276.093C120.56 281.026 121.219 285.129 121.814 288.562C122.444 292.206 120.105 295.692 116.59 296.344C114.201 296.788 111.882 295.807 110.444 293.99L110.429 294.004C109.723 293.111 108.338 291.314 106.955 289.519C106.388 288.78 105.997 287.955 105.773 287.099L105.762 287.101C104.519 282.361 103.281 277.208 102.066 271.629C100.936 266.439 99.9253 261.321 99.0728 256.352C98.1264 250.841 97.2912 245.205 96.6038 239.49C96.0152 234.595 95.5275 229.551 95.1648 224.379C94.8 223.551 94.4249 222.643 94.0366 221.643C93.4812 220.214 92.9651 218.742 92.5126 217.241C92.474 217.111 92.4394 216.981 92.4076 216.85C89.9828 208.182 91.274 195.891 92.7019 189.523L92.7081 189.499L92.7019 189.497C93.0736 187.844 93.486 186.442 93.886 185.448C94.6998 183.426 95.5972 181.874 96.5699 180.817C96.2922 172.889 98.364 163.964 100.142 158.966C100.715 157.354 101.313 155.999 101.851 155.051C102.821 153.349 103.825 152.057 104.857 151.199C105.402 143.371 108.534 134.87 110.917 130.191C111.697 128.66 112.452 127.411 113.081 126.584C114.029 125.334 114.967 124.354 115.89 123.652C117.182 115.956 121.323 107.846 124.3 103.482C125.25 102.09 126.178 100.938 126.958 100.159C128.276 98.8468 129.54 97.9271 130.736 97.42C132.767 90.2903 137.197 83.1528 140.334 79.257C141.355 77.99 142.362 76.9277 143.221 76.1943C145.049 74.63 146.738 73.7168 148.251 73.4911C151.206 66.7869 156.61 60.3126 160.276 56.8746C161.504 55.7221 162.635 54.811 163.524 54.2438C165.386 53.054 167.056 52.3915 168.504 52.2791C172.241 45.8886 178.578 39.988 182.732 36.9862C184.098 35.997 185.339 35.2356 186.296 34.7822C188.13 33.9127 189.751 33.4657 191.132 33.4586C195.649 27.485 202.872 22.1954 207.421 19.6283C208.894 18.7974 210.183 18.1822 211.133 17.8469C213.018 17.1801 214.652 16.8736 216.012 16.9402C220.983 11.4823 228.361 6.8022 232.973 4.55959C234.465 3.83473 235.782 3.30327 236.766 3.0182C242.743 1.28914 246.095 2.81907 246.099 7.9561C248.722 6.43476 251.392 5.29304 253.978 4.47507C261.857 1.98177 269.54 2.60635 273.163 4.6964L273.331 4.79667C274.224 5.29018 275.017 6.00715 275.626 6.93328C277.642 9.99673 276.881 14.1754 273.927 16.2669L273.519 16.5985V16.5978L271.205 18.9951L268.745 21.5386L268.742 21.5414C267.718 22.6831 266.665 23.8356 265.512 24.9558C266.602 24.7166 267.642 24.7352 268.621 24.9909C269.1 25.1098 269.573 25.2875 270.031 25.5274C275.469 28.3803 275.677 32.4472 271.283 37.032C270.666 37.6752 269.758 38.4738 268.656 39.3183C264.802 42.2765 257.445 46.6414 250.635 47.8347L250.636 47.8361ZM132.637 177.309C131.82 177.694 131.056 178.605 130.363 179.777C130.725 179.558 131.09 179.318 131.458 179.06C131.55 178.988 131.646 178.918 131.742 178.851C132.483 178.337 133.213 177.608 133.917 176.737C133.584 176.876 133.251 177.02 132.918 177.168L132.637 177.308V177.309ZM128.526 130.266C128.576 129.622 128.566 128.996 128.485 128.401L128.424 127.956L128.422 128.218C128.438 128.915 128.475 129.599 128.527 130.266H128.526ZM154.279 127.393C153.649 127.59 153.018 128.036 152.403 128.645C152.742 128.504 153.083 128.35 153.426 128.182C153.535 128.119 153.645 128.059 153.759 128.003C154.189 127.787 154.623 127.51 155.057 127.188C154.799 127.259 154.541 127.334 154.283 127.409L154.279 127.393ZM142.601 106.92C142.832 105.943 142.936 104.989 142.863 104.096C142.85 103.945 142.844 103.795 142.842 103.648L142.77 102.697C142.688 103.18 142.632 103.656 142.605 104.118L142.599 104.223C142.562 105.148 142.566 106.049 142.601 106.92V106.92ZM223.329 29.2033C223.988 28.4369 224.508 27.6454 224.816 26.8446L224.854 26.7486C224.5 27.1963 224.182 27.6447 223.906 28.0931L223.911 28.0952C223.706 28.467 223.512 28.8365 223.329 29.2033ZM122.322 232.802C121.815 233.374 121.397 234.229 121.055 235.251C121.515 234.554 121.936 233.724 122.322 232.802ZM141.772 151.47C141 151.742 140.23 152.426 139.496 153.335C139.914 153.159 140.336 152.962 140.761 152.745C140.896 152.659 141.036 152.577 141.178 152.5C141.825 152.151 142.479 151.658 143.128 151.063C142.674 151.191 142.22 151.326 141.772 151.47ZM199.268 45.6744C200.068 44.7024 200.68 43.6947 200.975 42.6912L201.021 42.5408L201 42.5336L201.26 41.6984C200.821 42.308 200.443 42.9197 200.139 43.5249L200.148 43.5285C199.817 44.2533 199.525 44.9703 199.268 45.6744ZM158.825 84.8353C159.374 83.6635 159.733 82.501 159.785 81.4123C159.819 80.7196 159.841 80.0356 159.854 79.3602C159.549 80.1473 159.315 80.9202 159.172 81.6687C158.998 82.756 158.887 83.816 158.825 84.836V84.8353ZM159.172 81.668V81.6687V81.668ZM177.765 64.3509C178.502 63.2257 179.034 62.0825 179.216 60.9838C179.243 60.8147 179.277 60.6493 179.316 60.486C179.387 60.0534 179.454 59.6129 179.518 59.1652C179.091 59.9337 178.745 60.6958 178.502 61.4415L178.508 61.4443C178.199 62.4356 177.954 63.409 177.764 64.3516L177.765 64.3509ZM126.067 204.422C125.304 204.955 124.641 205.997 124.074 207.292C124.269 207.123 124.465 206.947 124.659 206.765L124.88 206.552C125.602 205.886 126.29 204.966 126.933 203.891C126.642 204.064 126.353 204.242 126.067 204.423L126.067 204.422Z" fill="#915507"/>
<path fill-rule="evenodd" clip-rule="evenodd" d="M209.618 53.25C209.618 53.25 219.092 43.5103 226.372 43.8813C233.643 44.2079 239.827 46.1604 244.026 44.5445C248.243 42.9043 234.8 55.2082 225.582 56.1845C216.383 57.1694 209.617 53.25 209.617 53.25H209.618ZM120.243 188.916C120.243 188.916 123.487 174.236 129.973 171.182C136.483 168.181 142.912 167.354 145.906 163.774C148.923 160.211 142.977 179.118 135.341 184.423C127.905 189.806 120.243 188.916 120.243 188.916ZM127.27 148.513C127.27 148.513 136.136 136.567 134.898 127.48C133.663 118.396 130.971 110.643 132.305 105.468C133.647 100.256 121.831 116.767 121.954 128.349C122.216 140.008 127.271 148.513 127.271 148.513H127.27ZM140.583 136.465C140.583 136.465 145.519 123.035 152.507 120.942C159.512 118.859 166.155 118.82 169.53 115.725C172.964 112.663 164.873 129.873 156.573 134.047C148.358 138.238 140.584 136.465 140.584 136.465H140.583ZM140.244 123.724C140.244 123.724 150.071 112.564 149.326 103.543C148.769 94.6305 146.472 86.9264 148.145 81.8703C149.871 76.8887 136.772 92.3922 136.137 103.75C135.632 115.108 140.245 123.724 140.245 123.724H140.244ZM112.196 204.043C112.196 204.043 118.087 189.726 115.155 180.725C112.232 171.689 108.169 164.392 108.32 158.746C108.449 153.123 101.051 172.773 103.497 184.637C105.973 196.52 112.196 204.044 112.196 204.044V204.043ZM153.968 112.732C153.968 112.732 160.261 100.243 167.457 98.8629C174.645 97.477 181.282 98.0306 185.017 95.3669C188.744 92.7339 179.033 108.664 170.267 111.902C161.631 115.178 153.968 112.732 153.968 112.732ZM261.026 31.6583C259.817 31.4284 258.606 31.2042 257.419 30.9528C255.007 30.4299 252.376 29.8569 249.578 29.4787C242.519 28.5296 232.09 37.1957 232.09 37.1957C232.09 37.1957 238.311 41.6136 247.451 41.4417C256.612 41.287 269.723 30.6928 266.732 31.553C263.741 32.4139 263.15 31.9741 261.025 31.6583H261.026ZM213.799 43.3004C213.799 43.3004 227.757 37.2902 230.823 29.3147C234.051 21.3986 235.22 13.9408 238.979 10.2177C242.762 6.51106 223.839 15.3512 218.281 24.7557C213.017 34.2956 213.799 43.2997 213.799 43.2997V43.3004ZM264.001 16.9678C265.762 15.1506 267.522 13.3306 269.277 11.5048C269.597 11.2477 269.931 10.9655 270.276 10.7212C265.705 7.60407 246.145 9.45203 236.975 26.5463C252.969 28.6099 258.886 22.6735 264.001 16.9678ZM112.982 249.012C112.982 249.012 112.8 232.85 118.045 227.738C123.342 222.694 129.125 219.972 131.068 215.41C133.018 210.852 131.67 232.042 125.871 239.787C120.127 247.529 112.983 249.012 112.983 249.012H112.982ZM188.896 71.2525C188.896 71.2525 197.239 60.4448 204.616 60.1691C211.993 59.8561 218.436 61.2914 222.526 59.2809C226.597 57.2589 214.357 70.9316 205.253 72.7874C196.118 74.6239 188.896 71.2525 188.896 71.2525ZM128.359 161.178C128.359 161.178 132.986 147.378 139.797 145.071C146.687 142.847 153.291 142.712 156.591 139.536C159.918 136.338 152.266 154.102 144.169 158.467C136.101 162.854 128.359 161.178 128.359 161.178V161.178ZM191.239 59.7092C191.239 59.7092 204.726 52.9076 207.161 44.6369C209.756 36.4959 210.368 28.8978 213.756 24.9226C217.272 20.9867 199.029 30.8553 194.288 40.6624C189.755 50.5926 191.238 59.7092 191.238 59.7092H191.239ZM154.651 100.291C154.651 100.291 165.841 90.5149 166.249 81.7278C166.676 72.9866 165.299 65.1893 167.668 60.5422C170.042 55.865 154.883 69.4955 152.804 80.3805C150.982 91.4145 154.65 100.291 154.65 100.291H154.651ZM171.766 78.9587C171.766 78.9587 184.19 70.6465 185.603 62.1137C187.082 53.5802 186.754 45.9155 189.667 41.5498C192.583 37.2236 175.687 48.9524 172.343 59.3941C169.075 69.878 171.765 78.9587 171.765 78.9587H171.766ZM118.33 175.515C118.33 175.515 125.832 162.4 123.746 153.262C121.753 144.18 118.298 136.571 119.016 131.108C119.845 125.711 110.1 143.766 111.353 155.563C112.704 167.416 118.33 175.515 118.33 175.515ZM114.878 218.08C114.878 218.08 116.687 202.637 122.676 198.7C128.773 194.828 134.978 193.205 137.486 189.155C140.09 185.129 136.064 205.233 129.189 211.574C122.426 218.017 114.878 218.08 114.878 218.08ZM109.124 232.55C109.641 243.175 110.487 253.544 111.589 263.145C112.699 272.818 114.067 281.8 115.446 289.746C114.307 288.302 113.164 286.823 112.023 285.34C109.524 275.813 107.263 265.687 105.459 255.198C103.658 244.712 102.274 233.763 101.54 222.641C100.51 220.447 99.5258 217.983 98.6961 215.245C95.233 203.524 100.311 182.48 100.716 188.192C101.169 193.97 105.841 200.883 109.483 209.671C112.473 216.934 110.04 228.72 109.123 232.549L109.124 232.55ZM170 90.4719C170 90.4719 177.689 79.059 184.978 78.3979C192.331 77.7755 198.923 78.9645 202.903 76.7434C206.876 74.5136 195.511 89.0308 186.48 91.3372C177.441 93.5998 170.001 90.4712 170.001 90.4712L170 90.4719Z" fill="white"/>
</g>
</svg>
