<svg width="10" height="16" viewBox="0 0 10 16" fill="none" xmlns="http://www.w3.org/2000/svg">
<path d="M8.99939 0.00332903L6.92457 0C4.59358 0 3.08719 1.5455 3.08719 3.93758V5.75307H1.00105C0.820783 5.75307 0.674805 5.89921 0.674805 6.07948V8.70992C0.674805 8.89018 0.820949 9.03616 1.00105 9.03616H3.08719V15.6736C3.08719 15.8539 3.23317 15.9998 3.41343 15.9998H6.13525C6.31552 15.9998 6.4615 15.8537 6.4615 15.6736V9.03616H8.90068C9.08095 9.03616 9.22693 8.89018 9.22693 8.70992L9.22792 6.07948C9.22792 5.99293 9.19347 5.91003 9.13238 5.84878C9.07129 5.78752 8.98807 5.75307 8.90151 5.75307H6.4615V4.21406C6.4615 3.47435 6.63777 3.09883 7.60136 3.09883L8.99905 3.09833C9.17915 3.09833 9.32513 2.95219 9.32513 2.77209V0.329574C9.32513 0.14964 9.17932 0.00366194 8.99939 0.00332903Z" fill="#D39E59"/>
</svg>
