<svg width="156" height="41" viewBox="0 0 156 41" fill="none" xmlns="http://www.w3.org/2000/svg">
<path fill-rule="evenodd" clip-rule="evenodd" d="M17.0279 32.0619C19.4443 32.0619 22.3138 31.7757 23.824 31.1213C24.5036 30.7942 24.5791 30.7123 24.8056 29.9352C25.1833 28.545 25.6362 24.9871 25.6362 24.7007C25.6362 24.3735 25.5608 24.0872 25.3719 24.0872C25.1455 24.0872 25.0699 24.2508 24.9944 24.7007C24.8811 25.4369 24.3902 27.2362 23.5974 28.1359C22.0872 29.8126 19.8596 30.1806 17.0279 30.1806C1.63505 30.1806 1.45781 1.87968 15.4798 1.55415C20.1983 1.44456 24.6168 3.27163 24.6168 8.05638C24.6168 8.62891 24.6546 8.91522 24.9189 8.91522C25.221 8.91522 25.2965 8.30176 25.2965 6.3388C25.2965 3.96684 25.5608 2.00398 25.5608 1.55415C25.5608 1.30877 25.4853 1.10422 25.07 1.10422C23.6352 1.10422 20.2372 0 15.7442 0C3.73782 0 0 8.99698 0 15.5402C0 24.9871 5.51226 32.0618 17.028 32.0618L17.0279 32.0619Z" fill="#915507"/>
<path fill-rule="evenodd" clip-rule="evenodd" d="M36.8139 4.94659C36.8139 4.68326 36.8894 4.60824 37.0405 4.60824C37.7956 4.60824 41.1937 4.72096 41.4202 4.72096C43.6478 4.72096 44.5539 5.47315 44.7805 5.96201C45.007 6.45097 45.1203 7.09026 45.1203 7.3911C45.1203 7.65433 45.1957 7.80485 45.3845 7.80485C45.5734 7.80485 45.6489 7.61673 45.6867 7.4287C45.7622 6.97754 45.8377 5.32283 45.8755 4.94668C45.9888 3.89365 46.1776 3.44239 46.1776 3.17916C46.1776 2.99104 46.102 2.7655 45.951 2.7655C45.8 2.7655 45.649 2.91583 45.4224 2.99104C45.2714 3.02864 44.3651 3.10385 43.7611 3.14146C43.1571 3.17906 38.1699 3.21666 34.0923 3.21666C33.9034 3.21666 31.5248 3.10385 29.8257 3.10385C29.4104 3.10385 29.2217 3.17906 29.2217 3.40478C29.2217 3.5552 29.3728 3.63042 29.5238 3.63042C29.8636 3.63042 30.5034 3.67676 30.8075 3.74323C32.0515 4.0152 32.2827 4.57025 32.3932 5.47315C32.4714 6.11205 32.5066 7.69203 32.5066 14.01V20.6289C32.5066 25.2168 32.4382 28.2646 32.2423 29.241C32.023 30.3329 31.8256 30.6659 31.2228 30.858C30.8816 30.9668 30.4299 31.0085 30.0901 31.0085C29.8636 31.0085 29.788 31.1213 29.788 31.2341C29.788 31.4598 29.9769 31.535 30.3921 31.535C31.2227 31.535 33.1105 31.4222 34.0922 31.4222C35.1871 31.4222 38.8526 31.6478 44.5539 31.6478C46.0264 31.6478 46.3285 31.6478 46.5928 30.6702C46.7817 29.8803 47.0836 27.323 47.0836 27.0222C47.0836 26.7589 47.0836 26.4579 46.8571 26.4579C46.6683 26.4579 46.5928 26.6084 46.5173 27.0222C46.253 28.5641 45.8 29.3162 44.8183 29.7297C43.8367 30.1435 42.1755 30.1435 41.1938 30.1435C37.4937 30.1435 36.814 29.5419 36.814 27.0597V17.3195C36.814 17.1691 36.8895 17.0562 37.0784 17.0562C37.7202 17.0562 41.4581 17.1314 42.4776 17.2442C43.95 17.3947 44.2897 18.034 44.4408 18.5604C44.5918 19.0493 44.5918 19.4254 44.5918 19.8015C44.5918 19.9894 44.6673 20.1399 44.8562 20.1399C45.0827 20.1399 45.1204 19.8391 45.1204 19.4254C45.1204 17.5827 45.5735 15.063 45.5735 14.9125C45.5735 14.6868 45.498 14.6116 45.3846 14.6116C45.2335 14.6116 45.0826 14.7995 44.8183 15.1005C44.4785 15.4765 43.95 15.5517 43.0438 15.627C42.1755 15.7022 37.5313 15.7022 37.0406 15.7022C36.8518 15.7022 36.814 15.5893 36.814 15.3262V4.94649L36.8139 4.94659Z" fill="#915507"/>
<path fill-rule="evenodd" clip-rule="evenodd" d="M54.6394 20.6295C54.6394 24.2397 54.6515 27.2123 54.4505 28.7903C54.3116 29.8825 54.1095 30.7033 53.3556 30.8586C53.0148 30.9288 52.5626 31.0091 52.2229 31.0091C51.9964 31.0091 51.9208 31.1219 51.9208 31.2347C51.9208 31.4604 52.1097 31.5356 52.5249 31.5356C53.6576 31.5356 56.0362 31.4228 56.0739 31.4228C56.2628 31.4228 59.7775 31.5356 61.854 31.5356C62.2694 31.5356 62.4581 31.4228 62.4581 31.2347C62.4581 31.1219 62.3826 31.0091 62.156 31.0091C61.8161 31.0091 60.9854 30.9339 60.457 30.8586C59.3243 30.7082 59.0978 29.8808 58.9846 28.7903C58.7957 27.2108 58.7957 24.2399 58.7957 20.6295V19.7269C58.7957 19.5388 58.8724 19.4148 59.06 19.426C64.448 19.7493 65.4071 21.3117 68.6455 26.812C72.2414 32.9195 75.8812 39.0843 81.4913 40.5819C84.5271 41.3924 88.3533 41.1711 90.6339 38.6016C91.0329 38.1519 90.9751 37.8882 90.3383 38.2525C84.6505 41.5057 80.2098 37.5138 76.8494 32.8543C73.8692 28.7224 70.5173 20.8606 65.7856 19.1972C74.8036 17.5909 76.0949 2.73027 61.8162 3.10442C60.6462 3.13509 56.6404 3.21723 56.225 3.21723C56.0362 3.21723 53.6577 3.10442 51.9586 3.10442C51.5432 3.10442 51.3545 3.17963 51.3545 3.40535C51.3545 3.55577 51.5056 3.63098 51.6565 3.63098C51.9964 3.63098 52.6362 3.67732 52.9403 3.74379C54.1843 4.01576 54.4861 4.609 54.5639 5.88738C54.637 7.09092 54.6394 8.14396 54.6394 14.0106V20.6295ZM58.7958 4.98486C58.7958 4.75923 58.9091 4.6089 59.0978 4.53369C59.4755 4.42087 60.4949 4.30806 61.6276 4.30806C65.6675 4.30806 68.1594 7.12853 68.1594 11.8294C68.1594 16.693 64.5869 18.2917 61.5756 18.2455C60.5375 18.2296 59.5928 18.0093 59.0602 17.7339C58.8648 17.633 58.7959 17.4706 58.7959 17.2826V4.98505L58.7958 4.98486Z" fill="#915507"/>
<path fill-rule="evenodd" clip-rule="evenodd" d="M86.4152 4.94659C86.4152 4.68326 86.4908 4.60824 86.6419 4.60824C87.3969 4.60824 90.795 4.72096 91.0215 4.72096C93.2492 4.72096 94.1554 5.47315 94.3818 5.96201C94.6083 6.45097 94.7216 7.09026 94.7216 7.3911C94.7216 7.65433 94.7971 7.80485 94.9859 7.80485C95.1748 7.80485 95.2503 7.61673 95.288 7.4287C95.3635 6.97754 95.439 5.32283 95.4768 4.94668C95.5901 3.89365 95.779 3.44239 95.779 3.17916C95.779 2.99104 95.7035 2.7655 95.5523 2.7655C95.4013 2.7655 95.2504 2.91583 95.0238 2.99104C94.8728 3.02864 93.9665 3.10385 93.3625 3.14146C92.7584 3.17906 87.7713 3.21666 83.6936 3.21666C83.5048 3.21666 81.1263 3.10385 79.4272 3.10385C79.0118 3.10385 78.823 3.17906 78.823 3.40478C78.823 3.5552 78.9741 3.63042 79.1251 3.63042C79.465 3.63042 80.1047 3.67676 80.409 3.74323C81.6529 4.0152 81.8841 4.57025 81.9946 5.47315C82.0727 6.11205 82.108 7.69203 82.108 14.01V20.6289C82.108 25.2168 82.0395 28.2646 81.8436 29.241C81.6244 30.3329 81.427 30.6659 80.8241 30.858C80.483 30.9668 80.0312 31.0085 79.6914 31.0085C79.465 31.0085 79.3894 31.1213 79.3894 31.2341C79.3894 31.4598 79.5783 31.535 79.9935 31.535C80.8241 31.535 82.7118 31.4222 83.6935 31.4222C84.7885 31.4222 88.454 31.6478 94.1554 31.6478C95.6278 31.6478 95.9299 31.6478 96.1942 30.6702C96.383 29.8803 96.6851 27.323 96.6851 27.0222C96.6851 26.7589 96.6851 26.4579 96.4584 26.4579C96.2696 26.4579 96.1942 26.6084 96.1187 27.0222C95.8544 28.5641 95.4013 29.3162 94.4196 29.7297C93.438 30.1435 91.7768 30.1435 90.7951 30.1435C87.0951 30.1435 86.4153 29.5419 86.4153 27.0597V17.3195C86.4153 17.1691 86.4908 17.0562 86.6797 17.0562C87.3215 17.0562 91.0594 17.1314 92.0789 17.2442C93.5513 17.3947 93.8911 18.034 94.0422 18.5604C94.1932 19.0493 94.1932 19.4254 94.1932 19.8015C94.1932 19.9894 94.2687 20.1399 94.4575 20.1399C94.684 20.1399 94.7218 19.8391 94.7218 19.4254C94.7218 17.5827 95.1749 15.063 95.1749 14.9125C95.1749 14.6868 95.0994 14.6116 94.986 14.6116C94.8349 14.6116 94.6839 14.7995 94.4195 15.1005C94.0798 15.4765 93.5512 15.5517 92.645 15.627C91.7767 15.7022 87.1326 15.7022 86.6419 15.7022C86.453 15.7022 86.4152 15.5893 86.4152 15.3262V4.94649V4.94659Z" fill="#915507"/>
<path fill-rule="evenodd" clip-rule="evenodd" d="M104.457 20.6293C104.457 24.2395 104.469 27.2122 104.269 28.7902C104.13 29.8824 103.927 30.7031 103.174 30.8585C102.833 30.9286 102.381 31.009 102.041 31.009C101.814 31.009 101.739 31.1217 101.739 31.2346C101.739 31.4601 101.928 31.5355 102.343 31.5355C103.475 31.5355 106.99 31.4226 107.028 31.4226C107.217 31.4226 109.595 31.5355 111.672 31.5355C112.087 31.5355 112.276 31.4226 112.276 31.2346C112.276 31.1217 112.201 31.009 111.974 31.009C111.634 31.009 110.803 30.9338 110.275 30.8585C109.142 30.708 108.916 29.8807 108.802 28.7902C108.614 27.2108 108.614 24.2396 108.614 20.6293V19.7268C108.614 19.5387 108.689 19.4314 108.878 19.4259C109.869 19.3971 111.364 19.5434 112.131 19.5511C116.095 19.5909 117.721 31.6058 127.184 31.5338C129.463 31.5437 131.744 31.5354 134.023 31.5354C134.363 31.5354 134.589 31.4601 134.589 31.2345C134.589 31.0841 134.476 31.0089 134.212 31.0089H133.834C133.192 31.0089 132.399 30.6705 132.399 29.9182C132.399 29.2415 132.588 28.3388 132.928 27.3986L135.193 20.7421C135.269 20.5541 135.382 20.4412 135.571 20.4412H143.688C143.877 20.4412 143.953 20.5163 144.028 20.6668L147.539 29.9182C147.615 30.0687 147.615 30.2943 147.615 30.407C147.615 30.7455 147.388 30.9336 147.313 30.9336C147.2 30.9336 147.048 31.0464 147.048 31.1969C147.048 31.4224 147.463 31.4357 148.181 31.4601C150.786 31.5486 154.679 31.5354 155.245 31.5354C155.66 31.5354 156 31.46 156 31.2344C156 31.0463 155.849 31.0088 155.623 31.0088C155.245 31.0088 154.683 30.9569 154.112 30.7833C153.324 30.5432 152.219 29.9582 150.865 26.6087C148.556 20.8949 142.63 5.36223 142.068 3.93163C141.611 2.76749 140.328 2.57776 140.101 2.57776C139.875 2.57776 139.724 2.80339 139.271 4.04435L130.7 27.3985C129.476 30.784 128.515 31.5626 125.611 29.2225C121.929 26.2545 119.234 20.4067 116.58 18.8601C124.978 16.1264 124.41 3.18447 113.287 3.10423C112.117 3.09578 107.594 3.21704 107.179 3.21704C106.99 3.21704 103.475 3.10423 101.776 3.10423C101.361 3.10423 101.172 3.17944 101.172 3.40507C101.172 3.55549 101.323 3.63079 101.474 3.63079C101.814 3.63079 102.454 3.67714 102.758 3.74351C104.002 4.01548 104.304 4.6088 104.382 5.88718C104.455 7.09073 104.457 8.14367 104.457 14.0105V20.6292L104.457 20.6293ZM135.986 19.0874C135.873 19.0874 135.798 19.0123 135.873 18.8242L139.195 8.67014C139.271 8.407 139.384 8.25648 139.46 8.25648C139.573 8.25648 139.649 8.3692 139.762 8.67014L143.349 18.8242C143.387 18.9745 143.387 19.0874 143.198 19.0874H135.986ZM108.614 4.98466C108.614 4.75903 108.727 4.60871 108.916 4.5335C109.293 4.42059 110.313 4.30787 111.446 4.30787C115.485 4.30787 117.977 7.12824 117.977 11.8293C117.977 16.0641 115.46 18.3352 112.166 18.1108C110.509 17.9978 109.444 18.0719 108.878 17.7337C108.69 17.621 108.614 17.4704 108.614 17.2825V4.98485L108.614 4.98466Z" fill="#915507"/>
</svg>
