<svg width="99" height="26" viewBox="0 0 99 26" fill="none" xmlns="http://www.w3.org/2000/svg">
<path fill-rule="evenodd" clip-rule="evenodd" d="M10.8062 20.3319C12.3396 20.3319 14.1607 20.1504 15.1191 19.7355C15.5504 19.528 15.5983 19.4761 15.742 18.9833C15.9817 18.1017 16.2691 15.8455 16.2691 15.6639C16.2691 15.4564 16.2213 15.2748 16.1014 15.2748C15.9577 15.2748 15.9097 15.3786 15.8618 15.6639C15.7899 16.1307 15.4784 17.2718 14.9753 17.8423C14.0168 18.9056 12.6032 19.1389 10.8062 19.1389C1.03763 19.1389 0.925151 1.19199 9.82369 0.985558C12.8182 0.916064 15.6222 2.07469 15.6222 5.10892C15.6222 5.47199 15.6462 5.65355 15.8139 5.65355C16.0056 5.65355 16.0536 5.26453 16.0536 4.01973C16.0536 2.51556 16.2213 1.27082 16.2213 0.985558C16.2213 0.82995 16.1734 0.700234 15.9098 0.700234C14.9992 0.700234 12.8428 0 9.99152 0C2.37208 0 0 5.7054 0 9.85478C0 15.8454 3.49816 20.3319 10.8063 20.3319L10.8062 20.3319Z" fill="#915507"/>
<path fill-rule="evenodd" clip-rule="evenodd" d="M23.3626 3.13685C23.3626 2.96986 23.4105 2.92229 23.5064 2.92229C23.9856 2.92229 26.142 2.99377 26.2858 2.99377C27.6994 2.99377 28.2745 3.47077 28.4183 3.78078C28.562 4.09085 28.6339 4.49625 28.6339 4.68703C28.6339 4.85396 28.6818 4.9494 28.8016 4.9494C28.9215 4.9494 28.9694 4.83011 28.9934 4.71087C29.0413 4.42477 29.0892 3.37544 29.1132 3.13691C29.1851 2.46913 29.3049 2.18297 29.3049 2.01604C29.3049 1.89675 29.257 1.75372 29.1611 1.75372C29.0653 1.75372 28.9695 1.84905 28.8256 1.89675C28.7298 1.92059 28.1547 1.96829 27.7714 1.99213C27.388 2.01598 24.2231 2.03983 21.6354 2.03983C21.5156 2.03983 20.006 1.96829 18.9278 1.96829C18.6642 1.96829 18.5444 2.01598 18.5444 2.15912C18.5444 2.25451 18.6403 2.30221 18.7362 2.30221C18.9518 2.30221 19.3578 2.33159 19.5508 2.37375C20.3403 2.54621 20.487 2.8982 20.5571 3.47077C20.6067 3.87593 20.6291 4.87786 20.6291 8.8844V13.0817C20.6291 15.9911 20.5857 17.9239 20.4614 18.543C20.3222 19.2355 20.1969 19.4466 19.8144 19.5685C19.5979 19.6375 19.3112 19.6639 19.0956 19.6639C18.9518 19.6639 18.9038 19.7355 18.9038 19.807C18.9038 19.9501 19.0237 19.9978 19.2872 19.9978C19.8143 19.9978 21.0124 19.9263 21.6353 19.9263C22.3302 19.9263 24.6564 20.0693 28.2745 20.0693C29.209 20.0693 29.4007 20.0693 29.5684 19.4494C29.6883 18.9484 29.8799 17.3268 29.8799 17.136C29.8799 16.969 29.8799 16.7782 29.7362 16.7782C29.6163 16.7782 29.5684 16.8736 29.5205 17.136C29.3528 18.1138 29.0653 18.5907 28.4423 18.853C27.8194 19.1154 26.7651 19.1154 26.1421 19.1154C23.794 19.1154 23.3626 18.7339 23.3626 17.1598V10.9831C23.3626 10.8877 23.4106 10.8161 23.5304 10.8161C23.9377 10.8161 26.3099 10.8638 26.9568 10.9353C27.8912 11.0308 28.1068 11.4362 28.2027 11.77C28.2985 12.08 28.2985 12.3186 28.2985 12.557C28.2985 12.6762 28.3465 12.7716 28.4663 12.7716C28.6101 12.7716 28.634 12.5809 28.634 12.3186C28.634 11.15 28.9215 9.55212 28.9215 9.45667C28.9215 9.31359 28.8736 9.26589 28.8017 9.26589C28.7058 9.26589 28.61 9.38507 28.4423 9.57591C28.2267 9.81438 27.8912 9.86207 27.3162 9.90976C26.7651 9.95746 23.8179 9.95746 23.5065 9.95746C23.3866 9.95746 23.3626 9.88592 23.3626 9.71905V3.13679L23.3626 3.13685Z" fill="#915507"/>
<path fill-rule="evenodd" clip-rule="evenodd" d="M34.675 13.0821C34.675 15.3715 34.6826 17.2566 34.5551 18.2572C34.467 18.9498 34.3387 19.4704 33.8603 19.5688C33.644 19.6133 33.357 19.6643 33.1415 19.6643C32.9977 19.6643 32.9497 19.7358 32.9497 19.8074C32.9497 19.9505 33.0696 19.9981 33.3331 19.9981C34.0519 19.9981 35.5614 19.9267 35.5854 19.9267C35.7052 19.9267 37.9357 19.9981 39.2535 19.9981C39.5171 19.9981 39.6369 19.9267 39.6369 19.8074C39.6369 19.7358 39.589 19.6643 39.4451 19.6643C39.2294 19.6643 38.7023 19.6166 38.3669 19.5688C37.6481 19.4734 37.5043 18.9488 37.4325 18.2572C37.3127 17.2556 37.3127 15.3716 37.3127 13.0821V12.5098C37.3127 12.3905 37.3613 12.3118 37.4804 12.3189C40.8997 12.5239 41.5084 13.5147 43.5635 17.0027C45.8455 20.8758 48.1553 24.7851 51.7156 25.7349C53.6422 26.2488 56.0703 26.1085 57.5176 24.479C57.7708 24.1939 57.7342 24.0267 57.3301 24.2577C53.7205 26.3207 50.9024 23.7892 48.7698 20.8344C46.8785 18.2142 44.7513 13.2287 41.7486 12.1738C47.4715 11.1552 48.291 1.73137 39.2295 1.96864C38.487 1.98809 35.9449 2.04018 35.6813 2.04018C35.5614 2.04018 34.052 1.96864 32.9737 1.96864C32.7101 1.96864 32.5903 2.01633 32.5903 2.15947C32.5903 2.25486 32.6862 2.30255 32.782 2.30255C32.9977 2.30255 33.4037 2.33194 33.5967 2.3741C34.3862 2.54656 34.5777 2.92276 34.627 3.73344C34.6735 4.49667 34.675 5.16444 34.675 8.88476V13.0821ZM37.3127 3.16111C37.3127 3.01803 37.3846 2.9227 37.5044 2.875C37.744 2.80346 38.391 2.73192 39.1098 2.73192C41.6736 2.73192 43.255 4.52051 43.255 7.50157C43.255 10.5858 40.9878 11.5996 39.0768 11.5703C38.418 11.5602 37.8185 11.4205 37.4805 11.2459C37.3565 11.1819 37.3128 11.0789 37.3128 10.9597V3.16123L37.3127 3.16111Z" fill="#915507"/>
<path fill-rule="evenodd" clip-rule="evenodd" d="M54.8406 3.13685C54.8406 2.96986 54.8885 2.92229 54.9844 2.92229C55.4636 2.92229 57.6201 2.99377 57.7638 2.99377C59.1775 2.99377 59.7526 3.47077 59.8963 3.78078C60.0401 4.09085 60.1119 4.49625 60.1119 4.68703C60.1119 4.85396 60.1599 4.9494 60.2797 4.9494C60.3996 4.9494 60.4475 4.83011 60.4714 4.71087C60.5193 4.42477 60.5672 3.37544 60.5912 3.13691C60.6631 2.46913 60.783 2.18297 60.783 2.01604C60.783 1.89675 60.7351 1.75372 60.6392 1.75372C60.5433 1.75372 60.4475 1.84905 60.3037 1.89675C60.2079 1.92059 59.6328 1.96829 59.2495 1.99213C58.8661 2.01598 55.7012 2.03983 53.1134 2.03983C52.9936 2.03983 51.4842 1.96829 50.4059 1.96829C50.1423 1.96829 50.0225 2.01598 50.0225 2.15912C50.0225 2.25451 50.1184 2.30221 50.2142 2.30221C50.4299 2.30221 50.8359 2.33159 51.0289 2.37375C51.8184 2.54621 51.9651 2.8982 52.0352 3.47077C52.0848 3.87593 52.1072 4.87786 52.1072 8.8844V13.0817C52.1072 15.9911 52.0637 17.9239 51.9394 18.543C51.8003 19.2355 51.675 19.4466 51.2924 19.5685C51.0759 19.6375 50.7892 19.6639 50.5736 19.6639C50.4299 19.6639 50.3819 19.7355 50.3819 19.807C50.3819 19.9501 50.5018 19.9978 50.7653 19.9978C51.2924 19.9978 52.4904 19.9263 53.1134 19.9263C53.8083 19.9263 56.1345 20.0693 59.7526 20.0693C60.687 20.0693 60.8788 20.0693 61.0465 19.4494C61.1663 18.9484 61.358 17.3268 61.358 17.136C61.358 16.969 61.358 16.7782 61.2142 16.7782C61.0943 16.7782 61.0465 16.8736 60.9986 17.136C60.8308 18.1138 60.5433 18.5907 59.9203 18.853C59.2974 19.1154 58.2431 19.1154 57.6201 19.1154C55.2721 19.1154 54.8407 18.7339 54.8407 17.1598V10.9831C54.8407 10.8877 54.8886 10.8161 55.0084 10.8161C55.4158 10.8161 57.7879 10.8638 58.4349 10.9353C59.3693 11.0308 59.5849 11.4362 59.6808 11.77C59.7766 12.08 59.7766 12.3186 59.7766 12.557C59.7766 12.6762 59.8245 12.7716 59.9443 12.7716C60.0881 12.7716 60.1121 12.5809 60.1121 12.3186C60.1121 11.15 60.3996 9.55212 60.3996 9.45667C60.3996 9.31359 60.3517 9.26589 60.2798 9.26589C60.1839 9.26589 60.088 9.38507 59.9203 9.57591C59.7047 9.81438 59.3692 9.86207 58.7941 9.90976C58.2431 9.95746 55.2958 9.95746 54.9844 9.95746C54.8646 9.95746 54.8406 9.88592 54.8406 9.71905V3.13679V3.13685Z" fill="#915507"/>
<path fill-rule="evenodd" clip-rule="evenodd" d="M66.2902 13.0819C66.2902 15.3714 66.2978 17.2565 66.1703 18.2572C66.0822 18.9498 65.9539 19.4702 65.4755 19.5688C65.2591 19.6133 64.9723 19.6642 64.7566 19.6642C64.6129 19.6642 64.5649 19.7357 64.5649 19.8073C64.5649 19.9503 64.6847 19.9981 64.9482 19.9981C65.6671 19.9981 67.8975 19.9265 67.9214 19.9265C68.0413 19.9265 69.5509 19.9981 70.8686 19.9981C71.1322 19.9981 71.252 19.9265 71.252 19.8073C71.252 19.7357 71.2042 19.6642 71.0603 19.6642C70.8446 19.6642 70.3175 19.6165 69.9821 19.5688C69.2633 19.4734 69.1195 18.9487 69.0477 18.2572C68.9278 17.2556 68.9278 15.3714 68.9278 13.0819V12.5097C68.9278 12.3904 68.9759 12.3223 69.0956 12.3188C69.7245 12.3006 70.6732 12.3933 71.1597 12.3982C73.6756 12.4235 74.7074 20.0427 80.7128 19.997C82.159 20.0033 83.6064 19.9981 85.0528 19.9981C85.2685 19.9981 85.4123 19.9503 85.4123 19.8072C85.4123 19.7118 85.3404 19.6641 85.1726 19.6641H84.9331C84.5257 19.6641 84.0226 19.4496 84.0226 18.9725C84.0226 18.5434 84.1423 17.9709 84.358 17.3747L85.7956 13.1535C85.8435 13.0343 85.9155 12.9627 86.0352 12.9627H91.1868C91.3065 12.9627 91.3545 13.0103 91.4024 13.1057L93.6308 18.9725C93.6786 19.0679 93.6786 19.211 93.6786 19.2825C93.6786 19.4971 93.5349 19.6164 93.487 19.6164C93.4151 19.6164 93.3192 19.6879 93.3192 19.7834C93.3192 19.9264 93.5825 19.9348 94.038 19.9502C95.691 20.0064 98.1614 19.998 98.5207 19.998C98.7844 19.998 99 19.9502 99 19.8072C99 19.6879 98.9042 19.6641 98.7604 19.6641C98.5207 19.6641 98.1643 19.6312 97.802 19.5211C97.3015 19.3688 96.6002 18.9979 95.7413 16.8738C94.2761 13.2504 90.5152 3.40041 90.1585 2.4932C89.8683 1.75496 89.0543 1.63464 88.9104 1.63464C88.7666 1.63464 88.6708 1.77773 88.3833 2.56468L82.9443 17.3746C82.1676 19.5215 81.5574 20.0153 79.7149 18.5313C77.3777 16.6492 75.6674 12.9408 73.9835 11.96C79.3126 10.2264 78.9527 2.01939 71.8936 1.9685C71.1509 1.96314 68.2808 2.04004 68.0172 2.04004C67.8975 2.04004 65.6669 1.9685 64.5887 1.9685C64.3252 1.9685 64.2053 2.0162 64.2053 2.15928C64.2053 2.25467 64.3012 2.30242 64.3971 2.30242C64.6127 2.30242 65.0187 2.33181 65.2118 2.3739C66.0013 2.54637 66.1928 2.92262 66.2421 3.7333C66.2886 4.49653 66.2901 5.16425 66.2901 8.88468V13.0819L66.2902 13.0819ZM86.2989 12.1041C86.227 12.1041 86.1792 12.0566 86.227 11.9373L88.3355 5.4981C88.3834 5.33123 88.4553 5.23579 88.5033 5.23579C88.5751 5.23579 88.6231 5.30727 88.695 5.4981L90.9712 11.9373C90.9953 12.0326 90.9953 12.1041 90.8754 12.1041H86.2989ZM68.9278 3.16097C68.9278 3.01789 68.9998 2.92256 69.1196 2.87487C69.3593 2.80327 70.0062 2.73179 70.725 2.73179C73.2888 2.73179 74.8701 4.52032 74.8701 7.50149C74.8701 10.1869 73.2725 11.6271 71.1823 11.4848C70.1306 11.4132 69.455 11.4602 69.0957 11.2457C68.976 11.1742 68.9279 11.0787 68.9279 10.9596V3.16109L68.9278 3.16097Z" fill="#915507"/>
</svg>
