<svg width="130" height="83" viewBox="0 0 130 83" fill="none" xmlns="http://www.w3.org/2000/svg">
<g clip-path="url(#clip0_0_52)">
<path fill-rule="evenodd" clip-rule="evenodd" d="M68.3536 10.5984C68.1215 10.7113 67.8454 10.6071 67.7356 10.3687C67.6269 10.1295 67.7254 9.84143 67.9577 9.73052C68.8779 9.28561 69.64 9.8481 70.2857 10.413C70.6926 10.77 71.3167 11.0366 71.7292 10.6143C71.9097 10.4269 72.2021 10.4288 72.3837 10.6166C72.5645 10.8062 72.5641 11.1088 72.3824 11.2952C71.6876 12.0068 70.6048 11.9476 69.688 11.1426C68.9502 10.5009 68.6499 10.4561 68.3536 10.5985V10.5984Z" fill="#915507"/>
<path fill-rule="evenodd" clip-rule="evenodd" d="M67.7492 13.3474C67.1502 13.7444 66.401 14.2395 64.9744 13.9733C64.3894 13.8639 63.998 13.7275 63.6844 13.6179C63.2666 13.4708 63.074 13.4042 62.7172 13.4897C62.4691 13.5497 62.2199 13.3892 62.161 13.1304C62.102 12.8725 62.2565 12.6149 62.5063 12.5548C63.1189 12.4078 63.5166 12.5474 63.979 12.7082C64.2792 12.814 64.619 12.9328 65.1355 13.0299C66.2049 13.2295 66.6892 12.9083 67.2506 12.5379C67.8874 12.1166 68.6104 11.6384 70.0415 12.0825C70.2846 12.1571 70.4273 12.4251 70.3542 12.681C70.279 12.9327 70.0214 13.0776 69.7767 13.0011C68.7545 12.683 68.3341 12.9611 67.7491 13.3474H67.7492Z" fill="#915507"/>
<path fill-rule="evenodd" clip-rule="evenodd" d="M64.8983 43.5931C65.0458 43.4562 65.3675 43.5571 65.3675 43.5571C65.4829 43.6141 65.988 43.6506 66.2311 43.5103C66.4161 43.4039 66.6511 43.4738 66.7579 43.6675C66.8602 43.8602 66.7927 44.104 66.6067 44.2104C66.1045 44.4981 65.0953 44.4896 64.8194 44.0983C64.7017 43.9318 64.7497 43.7299 64.8982 43.5931H64.8983Z" fill="#915507"/>
<path fill-rule="evenodd" clip-rule="evenodd" d="M47.6092 11.2024C46.8508 11.2709 46.1451 10.3795 46.0248 9.67591C45.9905 9.46871 45.9936 9.20653 46.0192 9.00354C46.0294 8.90217 46.0544 8.76663 46.102 8.64475C46.1468 8.53226 46.2063 8.43136 46.2873 8.37264C46.5993 8.15194 46.572 8.49285 46.5866 8.72587C46.6277 9.38982 47.0356 9.9021 47.5578 10.2646C47.7418 10.3929 48.2052 10.5138 48.194 10.7722C48.1853 11.009 47.7983 11.1846 47.6092 11.2024H47.6092Z" fill="#915507"/>
<path fill-rule="evenodd" clip-rule="evenodd" d="M74.303 18.6874C74.1963 18.4334 74.1781 18.4284 73.9503 18.5073C73.6417 18.6105 73.0238 18.8885 72.85 19.1952C72.7726 19.3357 73.5929 19.2247 73.6572 19.2143C73.9225 19.1707 74.3548 19.0964 74.4364 18.9144C74.4669 18.8449 74.3628 18.8272 74.303 18.6874ZM75.3398 21.0521C75.2903 21.1041 75.2424 21.1502 75.1933 21.1878C74.6889 21.5633 74.1241 21.1468 73.7012 20.8453C73.0788 20.3975 72.6389 20.2541 71.8977 20.1675C71.6152 20.1342 71.2727 20.168 71.1234 19.8901C70.8409 19.367 71.5452 18.7981 71.9045 18.5367C72.1479 18.3604 72.4688 18.3059 72.7375 18.1802C73.399 17.87 74.2897 17.6153 74.6827 16.9255C74.9459 16.4623 75.1087 16.4937 75.5613 16.7654C75.7879 16.9011 76.306 17.0939 76.2703 17.4216C76.1992 18.0582 75.3147 18.1998 75.3163 19.0224C75.3171 19.6524 75.8792 20.4515 75.3398 21.052L75.3398 21.0521Z" fill="#915507"/>
<path fill-rule="evenodd" clip-rule="evenodd" d="M41.4581 43.0308C41.5794 42.8976 41.6763 42.7998 41.7337 42.7513C42.4421 42.1616 43.1601 41.4948 43.9844 40.9901C46.7234 39.3118 49.7376 39.4425 52.5486 38.1647C52.9431 37.9842 53.3347 37.767 53.6568 37.4675C53.7796 37.3525 53.8922 37.2239 53.9824 37.0797C54.0256 37.0116 54.0806 36.9401 54.0895 36.8561C54.0999 36.7546 54.0677 36.6465 54.0637 36.5502C54.0606 36.4925 54.0667 36.4339 54.0842 36.3793C54.1174 36.271 54.1441 36.1105 54.1379 35.9694C54.1333 35.8675 54.1101 35.7749 54.0665 35.7175C54.0082 35.6451 53.7683 35.4699 53.5786 35.3324C52.8991 34.8391 51.9704 34.1632 51.7092 33.1856C51.6678 33.0279 51.6454 32.8754 51.639 32.7254C51.6132 32.1382 51.8351 31.6225 52.0602 31.1539L52.0992 31.2076C52.1375 31.3565 52.1768 31.5037 52.2167 31.6498C52.348 31.8142 52.4794 31.9783 52.6104 32.1385L52.553 31.8135C52.6413 31.9289 52.7297 32.0431 52.8184 32.1556C52.974 32.2397 53.1294 32.3238 53.2835 32.4045C53.0098 31.9859 52.7199 31.5278 52.4238 31.0364L52.3486 30.5461C52.4609 30.2893 52.5505 30.0325 52.5864 29.7585C52.6127 29.5358 52.6226 29.3204 52.6315 29.0986C52.637 29.0019 52.6428 28.9041 52.6327 28.8071C52.618 28.6319 52.6164 28.4398 52.5658 28.2711C52.5337 28.1641 52.5047 28.0557 52.4803 27.9462C52.4564 27.8397 52.4346 27.7324 52.4146 27.6244L52.4197 27.5956C52.653 27.525 53.2822 27.2821 53.809 26.5972C53.8412 26.5558 53.8723 26.5107 53.9023 26.4625C53.9247 26.6325 53.9751 26.7988 54.0285 26.9182C54.2297 27.3597 54.7108 27.6907 55.4607 27.8993C55.9338 28.0301 56.5649 28.1267 56.8797 27.8337C57.1024 27.6278 57.2055 27.1439 57.0303 26.8671C56.8597 26.6002 56.5271 26.6023 56.2605 26.5321C55.845 26.4242 55.4407 26.2654 55.0657 26.0547C54.8516 25.9356 54.4773 25.704 54.2088 25.7617C54.3343 25.369 54.4178 24.9385 54.4629 24.5835C54.573 24.6919 54.7425 24.7582 54.8832 24.856C55.5632 25.3276 56.2102 25.6436 57.0312 25.7936C57.8424 25.9399 58.4907 25.7323 58.8157 25.2255C59.0652 24.8397 58.9694 24.2494 58.5468 24.0319C58.1231 23.8134 57.303 24.1822 56.8882 24.323C56.2307 24.5449 55.6882 24.3608 55.105 24.0407C54.9184 23.9374 54.6619 23.8475 54.4999 23.9481C54.4901 23.8126 54.4585 23.776 54.4066 23.8932C54.1832 24.3991 53.5181 24.701 52.909 25.2607C52.6074 25.5441 52.4617 26.1339 52.3914 26.6527C52.3665 26.4928 52.3346 26.3351 52.2994 26.1873C52.3377 25.9259 52.4202 25.6728 52.5494 25.442C52.6267 25.3021 52.7191 25.1613 52.8314 25.0511C52.9373 24.9471 52.978 24.7971 52.9397 24.6461C52.9134 24.5351 52.8306 24.4215 52.7897 24.3123C52.7707 24.2657 52.7541 24.2184 52.7385 24.1709C53.0379 24.1264 53.6372 23.9764 54.1906 23.4676C54.9812 22.7643 55.4443 20.5345 55.1448 20.9809C54.8564 21.4301 54.1428 21.6101 53.4417 22.0397C52.9887 22.3269 52.7436 23.1654 52.6288 23.7063C52.6172 23.6628 52.6006 23.6213 52.5749 23.5861C52.4626 23.4305 52.2619 23.3746 52.1055 23.2836C52.0261 23.237 51.948 23.1879 51.8717 23.1363C51.7196 22.7955 51.5553 22.4807 51.4069 22.1879C51.4766 21.9513 51.5164 21.6835 51.5355 21.4282C51.8529 22.1852 52.2364 22.6325 52.2364 22.6325C52.2364 22.6325 52.7007 21.5443 52.6694 20.6033C52.8194 20.7205 52.9895 20.8399 53.165 20.9419L53.1619 20.9546L53.1911 20.957C53.3877 21.0696 53.5909 21.1599 53.7801 21.2028C53.7697 21.1083 53.7531 21.0162 53.7308 20.9261C54.055 20.8739 54.4797 20.7484 54.8982 20.4564C55.7762 19.8679 56.4602 17.7708 56.1132 18.166C56.0678 18.2185 56.0153 18.2657 55.9567 18.3086C56.2325 17.861 56.4709 17.3708 56.7415 16.9341C58.055 14.8147 59.4324 12.7246 61.0548 10.8451C61.869 9.8994 62.746 9.006 63.702 8.21439C64.1622 7.83637 64.6387 7.48021 65.1373 7.15407C65.3496 7.01782 66.1498 6.66038 66.0608 6.32535C66.0405 6.24836 65.888 6.18671 65.7164 6.12967C66.1408 5.98452 66.5857 5.71765 66.9241 5.47184C67.3745 5.52682 67.785 5.45222 68.1492 5.24827C68.4916 5.05712 68.73 4.79049 68.8877 4.5674C68.9208 4.45085 68.9577 4.34034 68.9994 4.24064C69.2899 4.09644 69.5532 3.9323 69.7446 3.79422L69.7639 3.80335C69.8496 3.84816 70.0042 3.95923 70.0149 4.19948C70.0186 4.29522 70.0004 4.41057 69.9431 4.55263C69.897 4.66243 69.8228 4.79923 69.731 4.94566C69.6844 5.16779 69.6567 5.43966 69.6707 5.75293C69.6884 6.15732 69.7691 6.6178 69.9483 7.09274C70.0796 7.4346 70.5089 7.77702 71.1007 8.00377C72.0859 8.38694 73.2226 8.37439 74.0044 7.97429C74.2295 7.85885 74.5063 7.94974 74.6223 8.17736C74.7371 8.40442 74.6459 8.68273 74.4208 8.79865C73.2039 9.42088 71.7388 9.24045 70.7712 8.86649C70.2689 8.67137 69.7516 8.38266 69.4077 7.95276C69.1009 7.56895 68.9671 7.03506 68.6149 6.68652C68.2697 6.34624 67.9789 6.53525 67.5877 6.69788C66.523 7.13961 65.5725 7.68002 64.6613 8.39759C63.4923 9.32046 62.435 10.3809 61.4603 11.5084C61.0092 12.0281 60.5717 12.5553 60.2248 13.1345C60.0358 13.4499 59.493 13.8488 59.5869 14.2593C59.7369 14.9064 61.3379 14.5342 61.7417 14.4354C62.6026 14.2311 63.1942 14.722 63.7173 15.1515C64.2079 15.5586 64.6739 15.9432 65.4143 15.9106C65.9322 15.8883 66.0788 15.6744 66.3442 15.2899C66.6949 14.7827 67.1757 14.0875 68.6447 14.0231C68.8988 14.0118 69.1123 14.2102 69.1237 14.464C69.135 14.7205 68.9393 14.9352 68.6853 14.9462C67.6706 14.9907 67.4168 15.3565 67.0981 15.8179C67.0324 15.9121 66.9628 16.0128 66.887 16.1106C66.8833 16.1281 66.8806 16.1438 66.8754 16.1612C66.6845 16.7477 66.4238 17.3254 66.0249 17.8C65.7331 18.147 65.3174 18.3587 65.013 18.6956C64.8173 18.9119 64.551 19.3659 64.6905 19.6608C64.9209 20.1361 65.4306 19.6703 65.7671 19.6075C66.1706 19.5326 66.6059 19.5771 67.0015 19.488C67.3841 19.4018 67.6553 18.9465 67.4835 18.617C67.2031 18.0881 67.0103 17.5858 67.3153 16.9731C67.5627 16.4763 68.0317 16.222 68.5696 16.2931C69.0715 16.3591 69.9395 16.5288 69.9466 15.8032C69.9493 15.4004 69.4851 14.7802 70.1573 14.6775C70.6141 14.6088 71.0958 13.6588 71.279 13.0397C71.282 13.0362 71.2836 13.0265 71.2833 13.0241C71.3625 12.7844 71.6171 12.6535 71.8567 12.7283C72.6032 12.9621 71.7199 14.112 72.9058 13.8936C73.6069 13.7629 73.6998 13.0939 73.5363 12.4694C73.4875 12.2825 73.5642 12.0868 73.7207 11.9772C73.879 11.8661 74.0938 11.8704 74.2511 11.979C74.2732 11.9953 74.465 12.1205 74.7621 12.0254C74.9676 11.9588 74.8074 11.2348 74.786 11.096C74.7135 10.6291 74.3926 10.708 74.1985 10.3861C73.9714 10.0081 74.3831 9.54355 74.7802 9.69323L74.7452 9.68195C74.7477 9.68163 74.9428 9.71786 75.272 9.38561C75.4019 9.25833 75.7881 8.8661 76.2486 9.00791C76.6202 9.12359 76.811 9.5387 76.877 9.90472C76.9148 10.0956 76.896 10.2023 77.059 10.3355C77.179 10.4365 77.3418 10.4542 77.4523 10.5761C77.7241 10.8745 77.1464 11.3068 77.3379 11.6591C77.3969 11.7662 77.5254 11.8251 77.6328 11.8582C77.757 11.8987 77.8647 11.9178 78.0034 11.9116C78.2332 11.9 78.4244 11.8957 78.6426 11.8123C78.8779 11.7207 79.0764 11.545 79.2209 11.3379C79.454 10.9994 79.6056 10.4601 79.3304 9.96089C78.9407 9.25706 78.2667 9.27819 77.9897 9.32149C77.869 9.40738 77.7079 9.43041 77.5592 9.37146C77.3346 9.28097 77.2229 9.03421 77.2929 8.805C77.3092 8.60432 77.4005 8.38718 77.4654 8.1923C77.5715 7.86624 77.4133 7.20714 77.0389 7.10227C76.983 7.08749 76.9018 7.08479 76.8518 7.10442C76.7213 7.15502 76.9092 7.48457 76.9377 7.57133C76.9889 7.73484 77.0291 7.90271 77.0475 8.07082C77.0665 8.27024 77.0521 8.52153 76.8864 8.65929C76.7348 8.78482 76.4968 8.65985 76.4161 8.50739C76.3753 8.42453 76.3596 8.34206 76.3117 8.26007C76.2651 8.17696 76.2194 8.09259 76.1752 8.01004C75.9788 7.65046 75.7837 7.285 75.5314 6.95887C75.2719 6.62447 74.9326 6.31756 74.4993 6.26084C73.8993 6.18012 73.3853 5.72425 72.7913 5.57202C72.0295 5.37563 71.4778 6.09424 70.6958 5.77764C70.4601 5.6819 70.345 5.41376 70.4417 5.17471C70.5362 4.93874 70.8031 4.82458 71.0391 4.91999C71.4078 5.07039 71.9776 4.76658 72.1261 4.42146C72.1703 4.31071 72.1768 4.16246 72.1884 4.01858C72.1822 3.97655 72.1803 3.93428 72.1875 3.88948C72.2328 3.55722 72.2259 3.11319 71.9433 2.90249C71.7002 2.71897 71.3159 2.7401 71.0623 2.85641C70.8316 2.96224 70.5598 2.86039 70.4539 2.62903C70.3936 2.48849 70.4059 2.33603 70.4739 2.21241C70.5367 1.93537 70.3628 1.6635 70.114 1.46345L70.3015 1.27596C70.3383 1.24743 70.3766 1.21613 70.4163 1.18904C70.2037 1.04921 69.7084 0.999397 69.1249 1.11547C69.0436 1.11849 68.9632 1.12961 68.8847 1.15106C68.8319 1.1652 68.7795 1.18459 68.7377 1.2143C68.3757 1.32696 67.9968 1.50302 67.6412 1.7586C67.4669 1.63585 67.2442 1.56896 66.9736 1.5549C66.8063 1.54568 66.6496 1.55792 66.5031 1.58795C66.5915 1.4076 66.6918 1.25299 66.817 1.13335C67.2521 0.722203 65.0759 1.70275 64.4368 2.7459C64.4055 2.80056 64.3763 2.85482 64.3488 2.90885C64.3656 2.83886 64.384 2.76926 64.4034 2.70054C64.6878 1.69536 64.447 1.06216 63.3584 0.968571C62.927 0.931151 62.2946 0.99892 61.7402 1.53186C61.21 2.04334 61.1334 2.56063 61.0508 3.10953C60.9563 3.73392 60.8407 4.50981 59.8858 4.90188C59.6063 5.01509 59.2179 4.88385 58.9491 5.04393C58.3947 5.38206 59.0995 5.64496 59.4265 5.78487C59.4762 5.80608 59.5266 5.82594 59.5769 5.84469C59.3897 6.08645 59.2363 6.34013 59.154 6.58777L59.1212 6.69518C58.6012 6.47241 58.0817 6.13372 57.6813 5.65131C57.4834 5.41114 57.3315 5.15063 57.2262 4.87606C57.3803 4.62723 57.4401 4.46404 57.3499 4.53578C57.2699 4.59934 57.2091 4.63978 57.1559 4.66703C57.1041 4.48883 57.0709 4.30531 57.0569 4.11876C56.721 4.19424 56.3752 4.28417 56.0281 4.39151C56.3159 4.073 56.4537 3.72391 56.5758 3.38705L56.6362 3.23888C57.1618 3.11891 57.6935 3.02746 58.2323 2.94428C58.6005 2.88629 58.9643 2.80803 59.3377 2.78753C59.4246 2.78078 59.5212 2.76727 59.6108 2.77275C59.8244 2.7927 60.1542 2.7436 60.2178 2.47792C60.265 2.2975 60.3055 2.12319 60.3693 1.94959C60.5301 1.52153 60.786 1.14177 61.1094 0.830014C61.9084 0.0568263 62.8137 -0.0407358 63.4307 0.0116998C64.2392 0.0810579 65.0338 0.452318 65.5376 0.979694C65.9837 0.733961 66.5428 0.586029 67.0843 0.602952C67.3691 0.613677 67.6271 0.668655 67.862 0.762801C68.5456 0.0101903 69.591 0.0350575 70.3429 0.419188C70.9935 0.751122 71.4122 1.2951 71.5098 1.8738C71.8908 1.85259 72.2949 1.94006 72.6306 2.19962C72.9693 2.45981 73.3436 2.97161 73.2636 3.94978C73.5005 4.26638 73.6634 4.73305 73.8594 4.99197C74.197 5.43323 74.5523 5.41599 75.0468 5.56662C75.4855 5.6989 75.8602 5.94527 76.1774 6.25949C76.8325 6.09527 77.6016 6.30732 78.0787 6.80617C78.357 7.09735 78.7341 7.68979 78.5714 8.67653C79.1756 8.71888 79.9055 8.99536 80.3598 9.84307C80.5231 10.1462 80.6111 10.4788 80.6258 10.815C80.6476 11.3203 80.5062 11.837 80.203 12.2865C79.8314 12.8372 79.1832 13.1738 78.5235 13.3095C78.2237 13.3729 77.9123 13.3279 77.6177 13.2407C77.4318 13.1876 77.3416 13.3702 77.2272 13.5509C76.6507 14.4686 77.1575 18.212 79.0218 21.6929C79.5372 22.6533 80.3027 24.473 78.6174 25.0114C77.7874 25.2759 77.2262 25.3737 77.2738 26.4578C77.2796 26.5919 77.2946 26.7208 77.3073 26.8354C77.3155 26.9026 77.3232 26.9796 77.3274 27.0625C77.3606 27.1511 77.3688 27.2517 77.3431 27.3515C77.3333 27.3845 77.321 27.4153 77.3075 27.4451C77.2571 27.6734 77.1299 27.8811 76.8224 27.9648C76.7702 27.9793 76.7509 28.0026 76.7364 28.0354C76.7193 28.0728 76.7128 28.1207 76.715 28.1704C76.7171 28.2228 76.73 28.2778 76.7509 28.325C76.8319 28.4963 76.8653 28.6512 76.8715 28.7853C76.8792 28.9567 76.8411 29.0963 76.7969 29.1991C76.6794 29.4654 76.445 29.6416 76.1931 29.756C76.051 29.8207 75.935 29.8269 75.9505 30.0217C75.9633 30.1558 76.0299 30.2779 76.0726 30.4055C76.1526 30.6438 76.244 30.9151 76.2906 31.1899C76.3081 31.2992 76.3374 31.4513 76.3453 31.6339C76.3776 32.3715 76.0993 33.572 73.7251 34.1323C72.5675 34.4039 71.2854 34.4599 70.4054 34.3391C70.0657 34.293 70.0538 35.7688 70.1971 36.1229C70.5456 36.993 71.6352 37.2876 72.265 37.479C73.8414 37.9598 75.4557 38.1346 77.0805 38.2417C77.8534 38.2917 78.6431 38.4016 79.3752 38.6403C80.6736 39.0615 81.723 39.8089 82.6391 40.7291C82.8944 40.9853 83.204 41.7793 82.9235 42.1223C82.846 42.2171 82.7643 42.0603 82.2181 41.4544C80.5634 39.6178 78.757 39.0446 76.9541 38.9934C75.1055 38.9409 72.6768 38.293 72.104 39.4269C71.9896 39.6353 71.8054 39.9728 71.8671 40.2244C71.8958 40.3493 71.9781 40.6837 71.7173 40.8712C71.462 41.0571 71.208 40.8838 71.0239 40.7574C70.9235 40.6892 70.7993 40.6033 70.6957 40.5669C70.3394 40.4475 69.9262 40.5193 69.6101 40.7193C69.2973 40.9187 69.1577 41.2955 68.8907 41.5557C68.3338 42.0948 67.5956 42.3412 66.8663 42.5164C66.2711 42.6597 65.4218 42.5762 64.8781 42.273C64.675 42.1604 64.5559 41.9509 64.57 41.7374C64.5618 41.8705 66.4595 41.452 66.7073 41.3014C68.0373 40.4883 68.0585 39.1217 67.8932 37.7521C67.7054 36.2192 67.5863 34.7112 67.6971 33.1664C67.713 32.9449 65.6472 31.964 66.3606 30.8377C66.4753 30.8482 66.5677 30.9869 66.6435 31.0685C67.7753 32.2592 68.9955 33.087 70.6213 33.3306C71.6418 33.4828 72.6966 33.3497 73.6636 33.0471C74.4365 32.8051 75.5647 32.4313 75.3788 31.3565C75.3456 31.1587 75.2701 30.9335 75.1981 30.7175C75.0953 30.4214 74.9989 30.1342 74.9869 29.863C74.9796 29.6958 75.0047 29.5338 75.0838 29.3804C75.1566 29.2322 75.3112 29.0382 75.6291 28.9468C75.731 28.918 75.8255 28.9106 75.8859 28.8097C75.927 28.7431 75.9049 28.7182 75.8789 28.649C75.8338 28.5231 75.8121 28.3878 75.7927 28.255C75.7522 28.0025 75.4089 28.1994 75.2846 28.2335C75.1414 28.2706 74.9604 28.2276 74.8271 28.2957C74.7225 28.3501 74.6719 28.4756 74.6022 28.5728C74.5384 28.6602 74.4807 28.7765 74.4166 28.8627C74.2718 29.0529 74.0831 29.3199 73.8088 29.244C73.8079 29.225 73.8165 29.1833 73.8125 29.1689C73.7812 28.9467 73.9791 28.5817 74.0846 28.3945C74.1947 28.1981 74.2736 27.9674 74.3295 27.744C74.3547 27.6357 74.3844 27.5286 74.404 27.4209C74.4215 27.3323 74.4209 27.158 74.4974 27.0942C74.6498 26.9693 74.7661 27.2049 74.887 27.2659C75.0916 27.3727 75.2782 27.2045 75.4487 27.1006C75.5966 27.0088 75.7469 26.9187 75.9068 26.8487C76.0522 26.7851 76.2391 26.76 76.3238 26.6044C76.3766 26.5097 76.3418 26.3691 76.3444 26.2638C76.3481 26.0954 76.3658 25.9276 76.3947 25.7641C76.4036 25.7137 76.4592 25.5663 76.4352 25.5306C76.4104 25.4929 76.2729 25.4867 76.2337 25.4892C76.1462 25.5042 76.0741 25.5077 75.99 25.5371C75.9157 25.562 75.8323 25.5629 75.7575 25.5472C75.6013 25.511 75.4711 25.3951 75.4153 25.2407C75.3285 24.9928 75.4527 24.7164 75.6921 24.6265C76.4545 24.3396 76.8478 24.4185 77.1642 24.481C77.3 24.5087 77.4063 24.5293 77.544 24.5231L77.7085 24.5197C77.8791 24.5169 78.4037 24.5854 78.7201 24.1711C79.4393 23.2298 76.7911 20.162 76.4481 16.12C76.2971 14.3263 76.4592 12.4833 76.2782 10.6971C76.2414 10.3271 75.8631 10.8247 75.8425 10.9518C75.7897 11.242 75.9152 11.5856 75.9351 11.8771C75.9771 12.5058 75.8768 13.1426 75.2224 13.3596C75.0889 13.4042 74.9103 13.382 74.7857 13.4692C74.64 13.5725 74.6744 13.8189 74.6435 13.9825C74.5487 14.4522 74.2983 14.8713 73.8804 15.0981C73.472 15.3186 73.0354 15.569 72.5648 15.6114C72.3592 15.6289 72.1571 15.5991 71.9615 15.5279C71.8775 15.4957 71.7737 15.4107 71.6878 15.3981C71.4602 15.368 71.2856 15.6819 71.134 15.8067C70.8413 16.0491 70.9328 16.2443 70.9224 16.5824C70.9092 16.9116 70.8107 17.2353 70.5839 17.4752C70.3947 17.6768 70.154 17.7774 69.8939 17.8452C69.4181 17.967 69.5616 18.5402 69.4879 18.9356C69.3986 19.4474 69.1956 19.9521 68.8648 20.3494C68.57 20.7047 68.1751 20.9566 67.7375 21.0699C67.4354 21.1465 67.1673 21.1563 66.9527 21.4181C66.76 21.6543 66.757 22.0096 66.5493 22.2388C66.1685 22.6649 65.5956 22.7165 65.0655 22.7444C64.5513 22.7711 64.1641 22.8279 64.049 23.3906C63.9622 23.8275 64.181 24.2947 63.8776 24.6666C63.6106 24.9921 62.5428 25.1213 62.6414 25.6911C62.7047 26.0746 63.4861 26.1387 63.1326 26.6695C62.8234 27.1365 62.2242 26.9632 61.8179 27.1258C61.4101 27.2911 61.5016 27.802 61.5154 28.2101C61.527 28.5181 61.566 28.7725 61.3175 28.9508C61.1515 29.0719 61.0322 28.9305 60.8717 29.1461C60.6871 29.3931 60.8233 29.7092 60.7558 29.9834C60.6462 30.4321 60.4573 30.4679 60.0915 30.5223C59.5828 30.5977 59.0941 30.27 58.5979 30.4259C58.3712 30.4992 58.1408 30.7345 58.0205 30.9404C57.8287 31.2629 57.9143 31.3267 58.0079 31.6145C58.2003 32.2253 58.1684 32.8355 57.7505 33.3701C57.6419 33.5102 57.5161 33.6352 57.3854 33.7542C57.2568 33.8677 57.0586 33.9751 57.0129 34.1527C56.9073 34.5365 57.0052 34.997 56.9417 35.3957C56.8589 35.9203 56.6511 36.4125 56.3251 36.8242C55.9639 37.2814 55.5675 37.497 55.1444 37.4663C54.9358 37.4494 54.7403 37.3955 54.5813 37.5842C54.4461 37.7455 54.3353 37.9148 54.1797 38.0616C53.7953 38.4199 53.3326 38.6816 52.8619 38.8955C52.2351 39.1805 51.2171 39.4748 50.1389 39.7859L48.5006 40.274C44.5871 41.417 43.9299 42.4331 42.3682 43.9266C41.7113 44.5111 41.1624 43.4084 41.4582 43.0304L41.4581 43.0308ZM50.9415 21.0481C50.9295 20.9888 50.9209 20.9311 50.9163 20.8742C50.8982 20.6253 50.7972 20.8342 50.7052 21.2579C50.5846 21.3648 50.4588 21.4777 50.3364 21.6022C50.2002 21.4159 50.0707 21.2245 49.9483 21.0293L49.8443 20.8594C50.0606 20.7969 50.6209 20.5913 51.0617 20.0534C51.1038 20.0024 51.1428 19.9454 51.179 19.8831C51.1792 20.0923 51.1965 20.2944 51.236 20.4798C51.2511 20.5488 51.267 20.6167 51.2843 20.6829C51.1962 20.8063 51.0768 20.9247 50.9416 21.0481H50.9415ZM49.7477 20.6953C49.6467 20.52 49.5504 20.3424 49.4578 20.1626C49.377 20.0067 49.3022 19.8494 49.2285 19.6916C49.305 19.3219 49.4624 18.3313 49.1092 17.7437C48.7993 17.2285 48.4496 16.7968 48.2449 16.414C48.4247 16.4704 48.6015 16.479 48.7085 16.3654C49.0604 16.9171 49.4479 17.2196 49.4479 17.2196C49.4479 17.2196 49.9164 15.8907 49.5219 15.1446C49.1478 14.4009 48.6631 13.8263 48.6278 13.3292C48.6201 13.1899 48.5658 13.2359 48.5011 13.3964C48.4627 13.3353 48.4039 13.2899 48.3148 13.2598C47.772 13.08 47.7792 14.5138 47.6733 14.8298C47.4806 15.3965 47.1993 15.8177 47.7978 16.1976C47.8264 16.2163 47.8527 16.2325 47.8837 16.2501L47.896 16.2571C47.7895 16.7769 47.7254 17.704 47.9887 18.3066C48.1994 18.7733 48.4795 19.1399 48.7167 19.397C48.6222 19.4672 48.5698 19.5888 48.5225 19.7053C48.2043 19.3237 47.9294 18.9948 47.8342 18.6772L47.8415 18.5962C47.8898 17.9629 47.6961 17.3186 47.3718 17.0302C46.7487 16.4771 45.9507 16.4122 45.1677 16.5141C44.9458 16.5436 44.4709 16.5307 44.3929 16.8102C44.3574 16.9436 44.4258 17.1244 44.442 17.2624C44.4562 17.3667 44.4795 17.4686 44.5292 17.5609C44.6666 17.8018 44.9693 17.8987 45.2088 17.9781C45.8902 18.1979 46.1526 18.5937 46.2516 18.8885C46.471 19.5408 46.0817 20.159 46.0375 20.2265C45.8947 20.4446 45.6092 20.4986 45.3984 20.3529C45.2677 20.2646 45.198 20.1209 45.1912 19.974C45.1866 19.8767 45.213 19.7764 45.2677 19.6887C45.3782 19.5166 45.4397 19.288 45.255 19.1477C45.0563 18.9977 44.8292 19.0102 44.6476 19.1744C44.4509 19.3526 44.4092 19.677 44.4316 19.9322C44.4389 20.0025 44.4509 20.0709 44.4769 20.1353C44.5257 20.248 44.6175 20.3525 44.715 20.4197C45.1642 20.7302 46.1236 20.7677 46.8855 20.2823C47.3097 20.0132 47.5488 19.6488 47.6825 19.306C47.6828 19.7236 47.7329 20.2498 47.8817 20.6891C47.7273 20.8453 47.5561 20.9833 47.3714 21.1C46.3807 21.729 45.0169 21.7811 44.2008 21.2175C43.9489 21.0423 43.74 20.7975 43.6246 20.5017C43.5055 20.1909 43.4393 19.3868 43.7025 18.8967C43.7921 18.7283 44.0133 18.5583 43.9443 18.3418C43.9222 18.2733 43.8452 18.2181 43.8026 18.1577C43.7519 18.0868 43.709 18.0092 43.6712 17.9288C43.5403 17.6441 43.5255 17.343 43.4945 17.0347L43.4485 16.5925C43.4149 16.4026 43.3822 16.375 43.0312 16.259C42.7547 16.1678 42.4083 16.0529 42.1187 15.7217C41.7905 15.341 41.6765 14.8075 41.5791 14.3347C41.5287 14.0963 41.4443 13.6984 41.3603 13.6253L41.3008 13.5762C40.8019 13.1685 39.7605 12.321 39.3687 9.39466C39.3524 9.27533 39.342 9.15505 39.3368 9.04064C39.3018 8.24632 39.5454 7.48664 40.0208 6.86464C40.4565 6.29738 41.0394 5.8659 41.6529 5.52261C41.9193 5.37205 42.2 5.23818 42.4798 5.11305C42.5982 5.05935 42.7175 5.00842 42.8378 4.95877C43.0314 4.87685 43.2529 4.85564 43.3759 4.65313C43.4524 4.52641 43.4257 4.37482 43.445 4.23158C43.5566 3.40159 44.0206 2.77792 44.7087 2.34739C45.7473 1.6948 46.4499 1.84298 47.1279 1.98757C47.605 2.08903 48.099 2.19151 48.8255 2.0578C48.9262 2.04009 49.0271 2.02404 49.1287 2.01458C49.9663 1.92775 50.8008 2.15664 51.4848 2.66804C51.8465 2.93745 52.1555 3.27344 52.4175 3.64342C52.5553 3.84284 52.7071 4.05703 52.805 4.2829C52.8817 4.45991 53.0033 4.73115 53.2429 4.60967L53.3312 4.56184C53.0778 4.94717 52.8476 5.39637 52.7903 5.7805C52.7734 5.92136 52.7667 6.05666 52.7672 6.18576C52.6245 6.32138 52.4862 6.4643 52.3521 6.6147C52.3285 6.36944 52.3315 6.15144 52.3935 5.96545C52.5631 5.4948 51.2991 7.03045 51.234 8.05088L51.2313 8.19174C51.107 8.40887 50.9882 8.6326 50.8754 8.86149C50.8346 8.65627 50.8204 8.4691 50.8552 8.30154C50.9571 7.82016 49.8805 9.46434 49.963 10.4867C49.9786 10.6616 50.0081 10.8266 50.0464 10.9797C49.9722 11.2218 49.9037 11.4657 49.8412 11.7112C49.6834 11.3516 49.5653 11.0362 49.5886 10.7616C49.6298 10.2707 48.7771 12.0124 48.9879 13.0252C49.1582 13.7468 49.5352 14.2706 49.7392 14.5133C49.8246 15.2772 49.9918 16.0317 50.237 16.7585C49.905 17.3194 49.9415 18.3 49.9415 18.3C49.9415 18.3 50.309 18.2316 50.7276 17.9631L50.8135 18.137C50.8705 18.2503 50.9294 18.3626 50.9908 18.4739C50.7508 18.651 50.4609 18.8341 50.1847 19.0682C49.7822 19.4189 49.7438 20.3062 49.7473 20.695L49.7477 20.6953ZM54.0121 4.16794C54.3805 3.98116 54.76 3.81853 55.1448 3.67679C54.8767 4.0235 54.6588 4.45364 54.5591 4.9648C54.3888 5.04767 54.221 5.13578 54.0565 5.23024C54.032 4.83173 53.9903 4.47238 54.012 4.16802L54.0121 4.16794ZM57.9851 4.42392C58.1952 4.47755 58.4866 4.35544 58.6809 4.28918C59.0052 4.17755 59.3721 4.17263 59.7103 4.10597C59.8152 4.08206 59.945 4.03169 59.9689 3.92562C60.0272 3.64795 59.7335 3.65892 59.5744 3.66178C59.4768 3.66233 59.3795 3.66607 59.2832 3.67123C58.9037 3.69117 58.5245 3.74671 58.1671 3.87803C58.0627 3.91458 57.917 3.93389 57.8448 4.0189C57.8271 4.0413 57.8118 4.06768 57.8043 4.09898C57.7716 4.24127 57.8489 4.38801 57.9851 4.42392ZM56.0027 28.9989C55.7155 28.7737 55.1798 29.1299 54.9064 29.2643C54.4735 29.4766 54.1115 29.2855 53.7222 28.9559C53.5359 28.7976 53.242 28.6656 53.2236 29.1701C53.2211 29.2106 53.2227 29.2484 53.2284 29.2818C53.2612 29.5377 53.4442 29.6174 53.5868 29.7674C54.0425 30.2492 54.4769 30.575 55.0227 30.7354C55.5627 30.8953 55.9904 30.6971 56.1978 30.1958C56.3567 29.8129 56.2834 29.2235 56.0027 28.9989ZM61.9037 22.0437C61.8117 21.8268 61.2382 21.5703 61.0179 21.5003C60.6755 21.3887 60.3 21.4052 59.9512 21.4542C59.3004 21.5442 58.6741 21.7715 58.0648 22.0145C57.4979 22.2412 56.8753 22.1766 56.3544 21.8396C56.0586 21.6463 55.9583 21.3432 55.5962 21.4426C55.2852 21.528 55.0458 21.9513 55.0313 22.2655C55.0145 22.6686 55.24 23.0328 55.5582 23.2638C55.8708 23.49 56.2691 23.5869 56.6173 23.4706C57.5691 23.1485 58.7138 22.9823 59.9297 22.9892L60.292 22.9987C60.7316 23.0107 62.2839 22.9374 61.9037 22.0437V22.0437ZM64.6948 18.36C65.0655 18.2238 65.8932 17.4798 65.1244 17.3825C64.3509 17.2825 63.7965 16.9336 63.1945 16.42C62.6885 15.9896 62.4074 15.7698 62.0022 15.869C61.2659 16.0487 60.442 16.1433 59.6974 15.9659C59.0242 15.8057 58.4667 15.8122 58.0945 16.5292C57.7945 17.11 57.886 18.0572 58.4407 18.4198C58.7407 18.6152 59.0856 18.6521 59.4111 18.5239C60.778 17.9826 62.5014 17.462 63.6771 18.2397C63.9878 18.4453 64.3502 18.488 64.6948 18.36L64.6948 18.36ZM61.9279 18.8178C61.1735 18.8783 60.4444 19.1428 59.7433 19.4208C59.1484 19.6558 58.493 19.5861 57.9479 19.2302C57.5404 18.9639 57.4226 18.6387 56.8964 18.8541C56.588 18.9813 56.346 19.2514 56.2199 19.5652C55.8501 20.478 56.8553 21.5064 57.7417 21.153C59.0515 20.6271 60.7015 20.1236 61.8306 20.8793C62.1255 21.0776 62.467 21.1205 62.7919 21.0008C63.2067 20.8465 63.6506 20.3866 63.8148 19.9653C64.1618 19.0758 62.4381 18.7737 61.9279 18.8178ZM53.4073 20.1822C53.0475 19.6023 52.4993 19.115 52.0473 18.676C51.8927 18.2741 51.7822 17.9185 51.7907 17.608C51.7963 17.3702 51.6763 17.5398 51.541 17.9136C51.5251 17.8908 51.5039 17.9028 51.4784 17.9596L51.4502 18.0157C51.3515 17.8842 51.2569 17.7476 51.1685 17.6067C51.2051 17.5696 51.2415 17.5306 51.2769 17.4895C51.4604 17.2793 51.5957 16.9606 51.6889 16.6335C51.8239 16.9102 51.984 17.1702 52.1602 17.4072C52.3445 18.6382 52.9419 19.4679 52.9419 19.4679C52.9419 19.4679 53.1803 19.0659 53.3714 18.5375C53.5832 18.6639 53.7924 18.7539 53.9884 18.8014C54.0367 18.5363 54.0971 18.231 54.1725 17.8898C54.3271 17.9107 54.6988 17.9423 55.1523 17.8482C55.0829 18.1599 55.0402 18.4734 55.0857 18.69C54.8316 18.7744 54.5567 18.8646 54.2809 18.9873C53.8845 19.1674 53.593 19.7117 53.4073 20.182V20.1822ZM50.592 16.3982C50.5185 16.1804 50.4592 15.9583 50.4153 15.7327C50.6006 15.6935 50.9396 15.5972 51.2943 15.375C51.3171 15.5327 51.3493 15.688 51.3904 15.8404C51.1658 16.0143 50.8789 16.1847 50.592 16.3982ZM50.3476 15.2566C50.3377 15.1511 50.3316 15.0452 50.3295 14.9388C50.326 14.7394 50.4405 14.5654 50.6069 14.4899C50.4802 14.7332 50.3986 15.0182 50.3476 15.2566H50.3476ZM54.2751 17.4436C54.3773 17.0128 54.5013 16.5354 54.6491 16.0175C54.5473 15.9845 54.4454 15.9451 54.3442 15.9003C54.4856 15.6542 54.6366 15.3505 54.7387 15.0336C54.8016 15.0593 54.8646 15.0823 54.9274 15.1016C55.0576 14.6863 55.2045 14.25 55.3665 13.7953L55.4217 13.644C55.4469 13.6958 55.4622 13.7235 55.4622 13.7235C55.4622 13.7235 56.5923 12.4855 56.5066 11.4849C56.502 11.4122 56.4962 11.3403 56.4894 11.2692C56.6343 10.9946 56.783 10.728 56.9328 10.4702C57.0122 10.8744 57.119 11.1241 57.119 11.1241C57.119 11.1241 58.4058 10.0397 58.4528 9.06503C58.4691 8.74653 58.4626 8.4397 58.4567 8.15257C58.6411 7.90279 58.8169 7.67303 58.9808 7.4659C58.9204 8.21486 59.0873 8.75789 59.0873 8.75789C59.0873 8.75789 59.1594 8.71093 59.2732 8.62807C58.3457 9.86635 57.1795 11.6583 56.3928 13.7093C55.8521 14.2159 55.5011 15.1366 55.5011 15.1366C55.5011 15.1366 55.6487 15.1692 55.8881 15.1766C55.8 15.4582 55.7166 15.7414 55.6377 16.0261C55.5628 16.046 55.4868 16.0675 55.4107 16.0912C54.8986 16.2583 54.494 16.9705 54.2752 17.4436H54.2751ZM53.5391 15.4223C53.3626 15.2901 53.192 15.1438 53.0306 14.9863C53.0079 14.8268 53.0024 14.6786 53.0208 14.5424C53.0542 14.3334 52.9392 14.4414 52.7815 14.7267C52.594 14.5182 52.4231 14.2957 52.2739 14.065C52.493 13.4473 52.5464 12.8693 52.4003 13.096C52.3049 13.2461 52.1475 13.3685 51.9552 13.4873C51.8862 13.3366 51.8275 13.1847 51.7812 13.0335C51.9739 12.9543 52.181 12.8453 52.3835 12.695C52.4596 12.638 52.5329 12.5686 52.6032 12.4898C52.6811 12.9546 52.9717 13.4998 53.373 13.9775C53.3629 14.0656 53.3577 14.1524 53.3586 14.2365C53.3691 14.6811 53.4444 15.0845 53.539 15.4223H53.5391ZM55.067 12.5475C54.8737 12.4391 54.6869 12.3075 54.5102 12.1594C54.5025 11.9906 54.5123 11.8363 54.5491 11.6986C54.6071 11.4817 54.4522 11.6038 54.2367 11.9084C53.8121 11.4838 53.4688 10.9681 53.2752 10.4617L53.3795 10.3949C53.5771 10.261 53.764 10.0473 53.9262 9.81129C54.0097 9.86627 54.0769 9.94905 54.1134 10.0528C54.2677 10.4867 54.6067 10.9681 55.0084 11.3328C54.9995 11.3921 54.993 11.4503 54.9896 11.508C54.9722 11.8882 55.0081 12.2406 55.0669 12.5476L55.067 12.5475ZM56.8486 9.66248C56.6627 9.57843 56.4835 9.47403 56.3132 9.34922C56.324 9.2538 56.3421 9.16426 56.3707 9.08108C56.4373 8.89541 56.3114 8.96628 56.1125 9.18969C55.8365 8.95222 55.5849 8.65762 55.3612 8.30821C55.22 8.08671 55.278 7.79029 55.4925 7.64371C55.7048 7.49888 55.9938 7.55934 56.1338 7.77996C56.3814 8.16743 56.6642 8.45829 56.9796 8.65373C56.9487 8.74208 56.9238 8.82987 56.9066 8.91575C56.8618 9.17809 56.8459 9.42962 56.8486 9.66256V9.66248ZM49.6388 8.93069C49.7295 8.89509 49.8173 8.83495 49.9005 8.74073C50.1594 8.45726 50.2571 8.04246 50.446 7.71235C50.554 7.52057 50.7243 7.35889 50.7001 7.13485C50.609 6.34116 48.8061 6.94862 48.4352 7.21707C48.1201 7.4435 47.9841 7.71164 48.0163 8.03626C48.0906 8.77997 48.2112 8.80055 48.7211 8.88342C49.0441 8.93442 49.3574 9.04088 49.6388 8.93069ZM41.0115 11.0392C41.0314 11.3895 41.1918 11.9663 41.4769 12.2735C41.5509 12.3539 41.6306 12.4149 41.7217 12.4506C42.1251 12.6064 42.71 12.2892 42.9668 12.0002C43.6175 11.2644 43.4764 10.6001 43.2438 10.1725C42.918 9.57167 42.3362 9.27835 42.0619 9.33238C41.3342 9.47912 40.9727 10.3544 41.0114 11.0392L41.0115 11.0392ZM41.1713 8.7049C41.3839 8.54846 41.6255 8.44288 41.8844 8.391C42.6192 8.24497 43.5725 8.82145 44.0535 9.70483C44.5862 10.686 44.4389 11.7598 43.6516 12.6487C43.5135 12.8058 42.4921 13.2844 42.7054 13.5998C42.813 13.7609 43.5381 13.7375 43.6924 13.7133C44.0056 13.6627 44.3015 13.5255 44.5414 13.3132C45.0179 12.8938 45.2649 12.2099 45.1946 11.5352C44.1769 9.98544 44.2683 7.27078 45.0759 5.51299C45.1835 5.27552 45.4603 5.17463 45.6923 5.28784C45.9236 5.40264 46.0227 5.68881 45.9116 5.92724C45.2283 7.41561 45.1403 9.70697 45.926 10.9452C45.9883 10.9978 46.0389 11.0661 46.0666 11.1495C46.1209 11.2115 46.1703 11.2741 46.2274 11.3287C46.7695 11.8592 47.4298 12.2295 48.1729 12.3253C48.3889 12.3529 48.554 12.2827 48.6853 12.1563C48.9579 11.8881 49.0762 11.3732 49.1611 11.0066C49.2918 10.4535 49.2034 9.93125 48.5791 9.83036C47.8476 9.71063 47.23 9.50049 47.0938 8.13216C47.0269 7.45931 47.3128 6.85582 47.9037 6.43078C48.5155 5.9865 49.3019 5.80886 50.0422 5.82117C50.696 5.83222 51.4625 6.36086 51.9233 5.65799C52.0537 5.45968 52.1417 5.25026 52.1092 5.00628C52.0546 4.64455 51.6902 4.2141 51.4601 3.94318C50.8311 3.19303 49.946 2.82662 48.9917 3.00307C48.0876 3.16944 47.4538 3.03501 46.9456 2.92823C46.3292 2.7954 45.9193 2.71134 45.1919 3.16817C44.4456 3.63635 44.3965 4.06442 44.3441 4.51688C44.3052 4.86303 44.2508 5.33829 43.7765 5.59197L43.324 5.79202C42.5229 6.14699 41.7068 6.48536 41.0668 7.11713C40.7252 7.45311 40.4332 7.87951 40.3253 8.36367C40.266 8.63522 40.2896 9.4038 40.7413 9.12581C40.8975 9.03032 41.0186 8.81779 41.1714 8.70482L41.1713 8.7049ZM44.5528 15.6555C44.7906 15.6088 45.057 15.5877 45.3184 15.5478C45.7745 15.4821 46.2262 15.3718 46.5306 15.021C46.8695 14.6332 46.9914 13.9879 46.9079 13.4753C46.8343 13.0446 46.4597 12.622 46.0691 12.4797C45.8398 13.0746 45.6319 13.6159 45.1428 14.0448C44.4619 14.6446 43.5657 14.833 42.591 14.5925C42.8079 15.372 43.8096 15.7979 44.5527 15.6556L44.5528 15.6555ZM60.7943 6.04291L60.9149 6.03616C61.0483 6.02607 61.1794 6.00613 61.3067 5.97665C61.2837 6.36873 61.3266 6.6228 61.3266 6.6228C61.3266 6.6228 62.8776 5.86837 63.1577 4.95098C63.2832 4.57122 63.3684 4.20202 63.454 3.86882L63.4949 3.87398C63.7468 3.91847 63.9189 4.16675 63.8759 4.42837C63.62 6.01193 62.278 7.08138 60.6415 7.04157C60.657 6.99089 60.6699 6.94036 60.6785 6.88943C60.7313 6.59523 60.7641 6.31049 60.7942 6.04291H60.7943ZM64.5022 5.1148L64.4605 5.03075C64.3966 4.89632 64.3469 4.75832 64.3098 4.61801C64.5384 4.49995 64.8366 4.33057 65.1159 4.12289C65.1416 4.24866 65.1776 4.37109 65.2239 4.48923C65.2796 4.63279 65.3699 4.76046 65.4901 4.87399L65.3671 4.86724C65.0901 4.85374 64.7857 4.96266 64.5022 5.11488V5.1148ZM69.0026 2.51264C69.0563 2.89129 69.0243 3.19407 68.9458 3.43464L68.9374 3.43313C68.6601 3.37513 68.3575 3.31157 68.0358 3.26962L68.0146 3.26716C68.0793 3.16618 68.1054 3.03763 68.1093 2.90456C68.473 2.8205 68.7601 2.68052 69.0025 2.51272L69.0026 2.51264ZM66.432 3.83648L66.4093 3.79787C66.0292 3.11176 66.2292 2.54331 66.4056 2.31688C66.5599 2.11771 66.8385 2.08736 67.0374 2.23894L67.0708 2.26715C66.8923 2.4641 66.7284 2.6887 66.5863 2.94428C66.7726 2.96764 66.9465 2.98107 67.1101 2.98726L67.1098 3.03358C67.1128 3.11152 67.1375 3.21679 67.2098 3.34963C67.2197 3.36552 67.2403 3.38244 67.2688 3.39841C66.9604 3.51567 66.6601 3.68871 66.4321 3.83656L66.432 3.83648Z" fill="#915507"/>
<path d="M56.6168 6.61387C56.6065 6.6617 56.5941 6.71144 56.579 6.76276C56.55 6.86263 56.5002 6.98633 56.4351 7.11789C56.2237 7.54469 55.7676 8.23485 55.2421 8.65386C55.2377 8.68794 55.2323 8.7229 55.2258 8.75889C55.2075 8.85995 55.1701 8.98889 55.1172 9.13007C54.9566 9.55869 54.5953 10.2477 54.1401 10.7165C54.1417 10.7874 54.1381 10.8634 54.1294 10.9443C54.1181 11.0507 54.0893 11.184 54.0462 11.3279C53.9184 11.7522 53.6185 12.4268 53.2113 12.9181C53.2199 12.9817 53.2247 13.0499 53.2259 13.1223C53.2277 13.236 53.2155 13.3743 53.1899 13.52C53.1141 13.9541 52.8983 14.6474 52.5556 15.1789C52.5695 15.2376 52.5807 15.3005 52.589 15.3674C52.6015 15.4675 52.6034 15.6052 52.5935 15.7644C52.5668 16.1971 52.436 16.8905 52.1706 17.4511C52.2294 17.565 52.2722 17.7066 52.2985 17.8747C52.3149 17.9799 52.3218 18.1189 52.3176 18.2753C52.3066 18.6734 52.2174 19.2902 52.0179 19.8267C52.1016 19.9386 52.1683 20.0882 52.2178 20.2732L52.2186 20.273C52.2467 20.3784 52.2687 20.5184 52.2814 20.6764C52.3136 21.0813 52.2907 21.7181 52.1478 22.2824C52.2316 22.3846 52.3055 22.5195 52.3692 22.6857C52.4063 22.7826 52.443 22.9193 52.4744 23.0803C52.5569 23.5043 52.6118 24.194 52.5264 24.7993C52.5886 24.878 52.649 24.9718 52.7072 25.0803C52.7587 25.1764 52.8138 25.3061 52.8644 25.4537C53.0674 26.0438 53.3047 27.1889 53.113 27.9128C53.1095 27.9256 53.106 27.9381 53.102 27.9504C52.918 28.6223 52.5649 29.0833 52.31 29.3461C52.4113 29.5297 52.5145 29.7134 52.6192 29.8966C52.8633 30.3235 53.0809 30.6895 53.2747 31.0044C53.4624 31.3089 53.6784 31.6463 53.9071 31.9962C54.1325 32.3408 54.0359 32.8031 53.6913 33.0285C53.439 33.1937 53.1235 33.186 52.8842 33.0347L52.6982 32.9374L52.4652 32.8117C52.372 32.7615 52.2939 32.6942 52.2324 32.616L52.232 32.6163C51.9494 32.2571 51.6511 31.8608 51.3377 31.4247C51.0549 31.0311 50.7786 30.6291 50.513 30.2212C50.2236 29.7768 49.9428 29.3226 49.6764 28.8628C49.4445 28.4626 49.2189 28.0512 49.0027 27.6305C48.9397 27.5729 48.877 27.5129 48.8153 27.451C48.7119 27.3474 48.6103 27.2379 48.5126 27.123L48.5101 27.1199L48.5097 27.1202C47.9515 26.4554 47.6028 25.3036 47.4936 24.6794L47.4931 24.6795C47.4661 24.5249 47.4521 24.3805 47.4513 24.2646C47.4501 24.0662 47.4687 23.8978 47.5075 23.7611C47.2041 23.0829 47.0671 22.2536 47.0436 21.7613C47.0358 21.5963 47.0398 21.4515 47.0542 21.3435C47.0776 21.1675 47.1156 21.0182 47.1679 20.8974C46.9413 20.1956 46.9118 19.3608 46.9534 18.8722C46.9675 18.7055 46.9909 18.5621 47.019 18.4588C47.0559 18.3232 47.0999 18.2057 47.1505 18.1068C46.9962 17.3868 47.0693 16.5442 47.1753 16.0582C47.2104 15.8975 47.2535 15.7567 47.2979 15.6524C47.3644 15.4974 47.4382 15.3703 47.5192 15.2724C47.4545 14.5815 47.5883 13.8165 47.725 13.3663C47.7607 13.2487 47.7993 13.1435 47.8374 13.0575C47.8479 13.029 47.8605 13.0009 47.8747 12.9732C47.9795 12.7718 48.0941 12.622 48.217 12.5264C48.251 11.8396 48.4897 11.1028 48.6875 10.6769C48.757 10.527 48.8292 10.399 48.8941 10.3075L48.8955 10.3084C49.0132 10.1427 49.1329 10.0185 49.2533 9.93845C49.3691 9.24853 49.7128 8.51864 49.9713 8.10694C50.0383 8.00032 50.1063 7.90546 50.1694 7.82895C50.1847 7.80821 50.201 7.78804 50.2188 7.76849C50.3468 7.62835 50.472 7.52411 50.5932 7.45769C50.7937 6.77412 51.2352 6.06386 51.5435 5.67543C51.642 5.5515 51.7398 5.44591 51.8237 5.37091C51.9611 5.24816 52.0915 5.15712 52.2135 5.09912C52.4705 4.44367 52.9476 3.77814 53.2734 3.41498C53.3878 3.28747 53.4907 3.18689 53.5692 3.1242C54.0619 2.73173 54.4463 2.69598 54.6801 3.0674C54.8298 2.89213 54.989 2.73681 55.151 2.60112C55.7865 2.06889 56.5314 1.82372 56.9563 1.86916L56.9563 1.86972L56.9783 1.87218C57.0924 1.88314 57.2056 1.92072 57.3087 1.9869C57.6548 2.20904 57.7554 2.67008 57.5332 3.01631L57.5171 3.04547L57.4165 3.29414C57.412 3.30701 57.4072 3.32004 57.402 3.33291L57.2663 3.66683L57.2655 3.66659L57.2201 3.78926C57.2899 3.7744 57.3614 3.76987 57.4346 3.77496V3.77536C58.123 3.82191 58.3274 4.22217 58.0639 4.87833L58.063 4.87794C58.0261 4.97002 57.9715 5.07934 57.9054 5.1916L57.9041 5.1908C57.6677 5.59146 57.1781 6.23666 56.6162 6.61372L56.6168 6.61387ZM50.1698 7.82911C50.1872 7.80798 50.2042 7.78827 50.2207 7.77008L50.1698 7.82911Z" fill="#915507"/>
<path fill-rule="evenodd" clip-rule="evenodd" d="M53.0563 8.55331C53.0563 8.55331 53.5451 7.35945 54.2062 7.11681C54.865 6.87076 55.4865 6.80474 55.8016 6.50776C56.117 6.20769 55.3685 7.77091 54.5839 8.20263C53.8009 8.63435 53.0562 8.55331 53.0562 8.55331H53.0563ZM50.0403 23.5695C50.0403 23.5695 49.7948 22.1873 50.2609 21.6805C50.731 21.1773 51.2728 20.8634 51.409 20.4434C51.5477 20.0237 51.7069 21.871 51.2203 22.6144C50.7546 23.3569 50.0403 23.5695 50.0403 23.5695ZM49.1953 19.8367C49.1953 19.8367 49.5493 18.4767 49.1089 17.7437C48.6679 17.0107 48.1464 16.4467 48.0768 15.9521C48.0064 15.4546 47.5561 17.3175 47.9884 18.3067C48.436 19.2974 49.1954 19.8367 49.1954 19.8367H49.1953ZM49.9416 18.3002C49.9416 18.3002 49.8918 16.9612 50.4377 16.5179C50.9853 16.0749 51.575 15.8208 51.7628 15.4278C51.9568 15.0357 51.8632 16.818 51.2765 17.4896C50.6979 18.159 49.9416 18.3002 49.9416 18.3002ZM49.4476 17.2196C49.4476 17.2196 49.9161 15.8907 49.5215 15.1446C49.1475 14.4009 48.6628 13.8263 48.6274 13.3292C48.5998 12.8365 47.9984 14.6613 48.3553 15.6601C48.7235 16.6541 49.4476 17.2197 49.4476 17.2197V17.2196ZM49.8747 25.1714C49.8747 25.1714 49.8781 23.7204 49.2896 23.0584C48.7005 22.3931 48.0734 21.9203 47.8813 21.4301C47.688 20.9425 47.7451 22.9083 48.3943 23.8342C49.0472 24.7605 49.8747 25.1714 49.8747 25.1714H49.8747ZM50.2689 15.7579C50.2689 15.7579 50.3747 14.4487 50.9645 14.0587C51.5536 13.6688 52.1648 13.4657 52.4001 13.0959C52.636 12.7296 52.3513 14.4631 51.6892 15.0719C51.04 15.6787 50.269 15.7578 50.269 15.7578L50.2689 15.7579ZM56.8452 4.76007C56.7292 4.78613 56.6133 4.81258 56.4988 4.83554C56.265 4.88186 56.01 4.93191 55.7474 5.00493C55.0846 5.18988 54.4719 6.32726 54.4719 6.32726C54.4719 6.32726 55.1862 6.47146 55.9932 6.11187C56.8032 5.75285 57.584 4.34884 57.3494 4.53579C57.1146 4.72233 57.0459 4.707 56.8452 4.76007ZM53.0665 7.5413C53.0665 7.5413 54.0897 6.49879 54.0725 5.69859C54.0717 4.89719 53.904 4.21331 54.1029 3.75187C54.3048 3.29076 52.9425 4.7638 52.7903 5.78058C52.6691 6.79799 53.0665 7.54138 53.0665 7.54138V7.5413ZM56.5752 3.38705C56.6659 3.16428 56.7565 2.94182 56.8461 2.71913C56.8652 2.68505 56.8848 2.64794 56.9066 2.61386C56.3865 2.51908 54.7128 3.41565 54.5189 5.22889C56.0174 4.80241 56.328 4.06966 56.5753 3.38713L56.5752 3.38705ZM51.5811 29.0015C51.5811 29.0015 50.9771 27.6209 51.2578 26.9846C51.5452 26.3516 51.961 25.8997 51.9678 25.4348C51.9755 24.97 52.6268 26.8397 52.3924 27.7234C52.1629 28.6045 51.5811 29.0015 51.5811 29.0015ZM51.8678 10.88C51.8678 10.88 52.2166 9.63746 52.863 9.33548C53.508 9.03016 54.1339 8.91051 54.4244 8.5835C54.7131 8.25617 54.1216 9.89177 53.3791 10.3947C52.6329 10.8969 51.8678 10.88 51.8678 10.88ZM49.7532 20.8823C49.7532 20.8823 49.6627 19.5234 50.1848 19.0684C50.7169 18.6177 51.2996 18.3569 51.4781 17.9595C51.6576 17.5598 51.6232 19.3731 51.0614 20.0533C50.503 20.7341 49.7532 20.8823 49.7532 20.8823ZM51.656 9.80096C51.656 9.80096 52.6084 8.70807 52.5243 7.90644C52.4589 7.1099 52.2369 6.43459 52.3936 5.96545C52.5633 5.4948 51.2992 7.03045 51.2342 8.05088C51.1921 9.07441 51.656 9.80096 51.656 9.80096ZM49.8768 14.6646C49.8768 14.6646 50.5168 13.4033 50.2334 12.6335C49.9536 11.8674 49.5473 11.2501 49.5887 10.7616C49.6299 10.2707 48.7773 12.0125 48.988 13.0253C49.2276 14.0409 49.8768 14.6646 49.8768 14.6646ZM50.6236 12.1877C50.6236 12.1877 51.4265 11.0056 51.2421 10.2198C51.063 9.43161 50.7549 8.78609 50.8552 8.30162C50.9571 7.82024 49.8805 9.46442 49.963 10.4868C50.0538 11.5097 50.6236 12.1878 50.6236 12.1878V12.1877ZM49.3822 22.4912C49.3822 22.4912 49.5728 21.0826 49.0545 20.3769C48.5468 19.6728 47.9624 19.1499 47.8273 18.6541C47.7049 18.1595 47.4945 20.0768 48.0354 21.0421C48.587 22.0082 49.3822 22.4912 49.3822 22.4912ZM50.6242 26.2749C50.6242 26.2749 50.2232 24.881 50.6132 24.3174C51.0144 23.755 51.5076 23.3813 51.5833 22.9392C51.6686 22.4956 52.042 24.373 51.6609 25.1764C51.2933 25.9847 50.6242 26.2749 50.6242 26.2749ZM50.639 27.7341C51.0712 28.6263 51.5242 29.4845 51.9718 30.2668C52.4226 31.055 52.871 31.7745 53.2831 32.4045C53.1291 32.3237 52.9735 32.2397 52.818 32.1556C52.2489 31.4322 51.6792 30.6483 51.137 29.8159C50.5952 28.9841 50.0736 28.0965 49.6036 27.1696C49.4321 27.0202 49.2547 26.846 49.0814 26.6419C48.3466 25.7668 48.0324 23.7692 48.2766 24.2441C48.5272 24.723 49.1946 25.1401 49.8384 25.7567C50.3688 26.2673 50.5814 27.3709 50.6391 27.7342L50.639 27.7341ZM50.8856 13.2426C50.8856 13.2426 51.1544 11.9727 51.779 11.641C52.4105 11.3103 53.0403 11.1636 53.3137 10.8227C53.5862 10.4816 53.1029 12.1564 52.3832 12.6949C51.6612 13.2303 50.8856 13.2426 50.8856 13.2426L50.8856 13.2426Z" fill="white"/>
<path d="M68.1572 5.30592C68.1184 5.36638 68.0729 5.42843 68.0209 5.49215C67.949 5.58018 67.8424 5.68671 67.713 5.79794C67.2841 6.1665 66.4565 6.71429 65.696 6.90942C65.6691 6.95955 65.6385 7.01119 65.6039 7.06387C65.544 7.15523 65.4477 7.27242 65.3258 7.40072C64.9487 7.79773 64.2196 8.39414 63.5063 8.67706C63.4764 8.76501 63.4344 8.85772 63.3801 8.95528C63.325 9.05428 63.2361 9.17941 63.1229 9.31566C62.7842 9.72323 62.1318 10.3321 61.4608 10.6641C61.4422 10.7497 61.4134 10.841 61.3744 10.9374C61.3321 11.0419 61.2571 11.1791 61.1579 11.3326C60.8716 11.7751 60.304 12.4442 59.6807 12.8507C59.6708 12.9317 59.6529 13.0181 59.6269 13.1098C59.5935 13.2277 59.5348 13.3737 59.457 13.5297C59.2238 13.9971 58.7439 14.7143 58.1831 15.1904C58.2108 15.3398 58.1979 15.5205 58.1454 15.7293C58.118 15.8386 58.063 15.9861 57.9863 16.1541C57.7847 16.5952 57.3833 17.2546 56.9007 17.7428C56.9595 17.8965 56.9717 18.0948 56.9383 18.3334C56.9221 18.4477 56.8829 18.6021 56.8243 18.7778C56.6683 19.2464 56.3341 19.9581 55.9025 20.5042C55.9623 20.648 55.9877 20.8339 55.9799 21.0581C55.9756 21.1836 55.954 21.3427 55.9172 21.5168C55.8092 22.0274 55.5407 22.8298 55.156 23.4451C55.1967 23.5621 55.2244 23.7017 55.2392 23.8627C55.2504 23.985 55.2503 24.1429 55.2383 24.3172C55.1877 25.0421 54.9245 26.3741 54.3984 27.0519C53.8549 27.7582 53.2016 28.0953 52.8142 28.2444C52.8433 28.537 52.8745 28.8227 52.9075 29.1006C52.9697 29.623 53.0401 30.1333 53.1148 30.6242C53.1981 31.1715 53.2739 31.6266 53.3424 32.0073C53.4148 32.4116 53.1458 32.7982 52.7416 32.8706C52.4668 32.9197 52.2001 32.811 52.0348 32.6094L52.033 32.611C51.9518 32.5119 51.7926 32.3126 51.6336 32.1135C51.5683 32.0315 51.5234 31.9401 51.4976 31.845L51.4964 31.8453C51.3534 31.3196 51.211 30.7479 51.0712 30.1291C50.9413 29.5534 50.8251 28.9858 50.7271 28.4346C50.6182 27.8233 50.5222 27.1982 50.4431 26.5642C50.3754 26.0213 50.3193 25.4618 50.2776 24.8882C50.2357 24.7963 50.1925 24.6956 50.1479 24.5847C50.084 24.4261 50.0247 24.2628 49.9726 24.0964C49.9682 24.0819 49.9642 24.0676 49.9606 24.053C49.6817 23.0915 49.8302 21.7282 49.9944 21.0219L49.9951 21.0192L49.9944 21.0191C50.0371 20.8357 50.0846 20.6801 50.1306 20.5699C50.2242 20.3457 50.3274 20.1735 50.4392 20.0562C50.4073 19.1768 50.6456 18.1869 50.8501 17.6325C50.9159 17.4537 50.9846 17.3034 51.0466 17.1982C51.1581 17.0094 51.2736 16.8662 51.3922 16.771C51.455 15.9027 51.8151 14.9598 52.0892 14.4408C52.1789 14.2709 52.2657 14.1324 52.338 14.0407C52.447 13.902 52.5549 13.7933 52.6611 13.7155C52.8096 12.8618 53.2859 11.9622 53.6283 11.4782C53.7375 11.3238 53.8442 11.196 53.934 11.1096C54.0855 10.964 54.2309 10.862 54.3684 10.8058C54.602 10.015 55.1115 9.22326 55.4723 8.79114C55.5897 8.6506 55.7054 8.53278 55.8042 8.45142C56.0145 8.27791 56.2087 8.17661 56.3827 8.15159C56.7225 7.40796 57.344 6.68983 57.7656 6.30847C57.9069 6.18064 58.0369 6.07958 58.1391 6.01666C58.3533 5.8847 58.5453 5.81121 58.7118 5.79874C59.1416 5.0899 59.8703 4.43541 60.3481 4.10244C60.5052 3.99273 60.6479 3.90827 60.7579 3.85798C60.9689 3.76153 61.1552 3.71196 61.3141 3.71116C61.8336 3.04857 62.6643 2.46184 63.1874 2.1771C63.3568 2.08494 63.5051 2.0167 63.6143 1.97951C63.8311 1.90555 64.019 1.87154 64.1754 1.87893C64.7471 1.27354 65.5956 0.754426 66.126 0.505675C66.2975 0.425274 66.4489 0.366323 66.5621 0.334703C67.2495 0.142915 67.635 0.312616 67.6354 0.882417C67.9372 0.71367 68.2442 0.58703 68.5416 0.4963C69.4477 0.219742 70.3312 0.28902 70.7479 0.520849L70.7672 0.531972C70.8699 0.586712 70.9611 0.666239 71.0311 0.768965C71.263 1.10876 71.1755 1.57226 70.8357 1.80425L70.7888 1.84104V1.84096L70.5227 2.10687L70.2398 2.38899L70.2395 2.38931C70.1217 2.51595 70.0006 2.64378 69.868 2.76804C69.9934 2.7415 70.1129 2.74357 70.2256 2.77193C70.2806 2.78512 70.3351 2.80482 70.3877 2.83143C71.0131 3.14788 71.037 3.59898 70.5317 4.10753C70.4607 4.17887 70.3563 4.26746 70.2296 4.36113C69.7863 4.68925 68.9403 5.1734 68.1572 5.30576L68.1572 5.30592ZM54.5871 19.6671C54.4931 19.7098 54.4052 19.8108 54.3255 19.9409C54.3671 19.9166 54.4092 19.8899 54.4514 19.8613C54.4621 19.8533 54.473 19.8456 54.4842 19.8381C54.5693 19.7811 54.6532 19.7002 54.7343 19.6037C54.696 19.619 54.6576 19.635 54.6194 19.6515L54.5871 19.667V19.6671ZM54.1143 14.449C54.1201 14.3776 54.1189 14.3082 54.1096 14.2422L54.1026 14.1929L54.1023 14.2219C54.1042 14.2992 54.1084 14.3751 54.1143 14.449H54.1143ZM57.0759 14.1304C57.0035 14.1522 56.9309 14.2017 56.8602 14.2692C56.8991 14.2536 56.9384 14.2365 56.9778 14.2179C56.9903 14.2109 57.0031 14.2043 57.0161 14.1981C57.0656 14.1741 57.1155 14.1434 57.1655 14.1076C57.1357 14.1156 57.1061 14.1238 57.0764 14.1322L57.0759 14.1304ZM55.7329 11.8595C55.7595 11.7512 55.7715 11.6454 55.763 11.5462C55.7616 11.5296 55.7609 11.513 55.7607 11.4966L55.7524 11.3911C55.7429 11.4447 55.7365 11.4975 55.7334 11.5488L55.7327 11.5604C55.7285 11.6629 55.729 11.7629 55.7329 11.8596V11.8595ZM65.0169 3.23916C65.0926 3.15415 65.1524 3.06636 65.1879 2.97754L65.1922 2.96689C65.1515 3.01655 65.1149 3.06628 65.0832 3.11602L65.0838 3.11626C65.0602 3.15749 65.0379 3.19848 65.0169 3.23916ZM53.4007 25.8224C53.3425 25.8859 53.2944 25.9807 53.2551 26.094C53.308 26.0167 53.3564 25.9247 53.4007 25.8224ZM55.6376 16.801C55.5488 16.8312 55.4603 16.9071 55.3759 17.0079C55.424 16.9884 55.4724 16.9666 55.5214 16.9424C55.5369 16.933 55.5529 16.9238 55.5693 16.9153C55.6437 16.8766 55.7189 16.8219 55.7935 16.7559C55.7413 16.7701 55.6892 16.785 55.6376 16.801ZM62.2498 5.06615C62.3418 4.95834 62.4122 4.84655 62.4461 4.73525L62.4514 4.71856L62.449 4.71777L62.4789 4.62513C62.4283 4.69274 62.3849 4.76059 62.35 4.82772L62.3509 4.82812C62.3129 4.90852 62.2793 4.98805 62.2498 5.06615ZM57.5988 9.40988C57.6618 9.27991 57.7032 9.15096 57.7091 9.0302C57.713 8.95338 57.7156 8.8775 57.7171 8.80258C57.6819 8.8899 57.6551 8.97562 57.6386 9.05864C57.6186 9.17925 57.6058 9.29683 57.5988 9.40996V9.40988ZM57.6386 9.05857V9.05864V9.05857ZM59.7768 7.13775C59.8617 7.01294 59.9228 6.88614 59.9437 6.76427C59.9468 6.74552 59.9507 6.72717 59.9553 6.70905C59.9634 6.66106 59.9711 6.6122 59.9785 6.56255C59.9294 6.6478 59.8896 6.73233 59.8616 6.81503L59.8623 6.81535C59.8268 6.92531 59.7986 7.03328 59.7767 7.13783L59.7768 7.13775ZM53.8315 22.6745C53.7437 22.7336 53.6675 22.8492 53.6023 22.9928C53.6247 22.9741 53.6473 22.9546 53.6696 22.9344L53.6949 22.9107C53.778 22.8369 53.8571 22.7348 53.9311 22.6156C53.8976 22.6348 53.8644 22.6545 53.8314 22.6746L53.8315 22.6745Z" fill="#915507"/>
<path fill-rule="evenodd" clip-rule="evenodd" d="M63.44 5.90642C63.44 5.90642 64.5295 4.82609 65.3668 4.86724C66.2029 4.90347 66.9141 5.12004 67.397 4.94081C67.882 4.75887 66.336 6.12363 65.2759 6.23192C64.218 6.34116 63.4399 5.90642 63.4399 5.90642H63.44ZM53.1617 20.9545C53.1617 20.9545 53.5347 19.3262 54.2806 18.9874C55.0293 18.6546 55.7687 18.5629 56.1129 18.1658C56.46 17.7706 55.7761 19.8677 54.8979 20.4562C54.0428 21.0533 53.1617 20.9545 53.1617 20.9545ZM53.9698 16.4731C53.9698 16.4731 54.9894 15.148 54.847 14.1401C54.705 13.1324 54.3954 12.2725 54.5488 11.6984C54.7031 11.1203 53.3442 12.9518 53.3584 14.2364C53.3885 15.5296 53.9699 16.4731 53.9699 16.4731H53.9698ZM55.5008 15.1366C55.5008 15.1366 56.0684 13.647 56.8721 13.4148C57.6777 13.1838 58.4416 13.1795 58.8298 12.8362C59.2247 12.4965 58.2942 14.4055 57.3397 14.8685C56.395 15.3333 55.5009 15.1366 55.5009 15.1366H55.5008ZM55.4619 13.7235C55.4619 13.7235 56.5919 12.4855 56.5063 11.4849C56.4422 10.4964 56.178 9.64182 56.3704 9.081C56.569 8.52844 55.0625 10.2481 54.9895 11.5079C54.9315 12.7678 55.4619 13.7235 55.4619 13.7235H55.4619ZM52.2363 22.6324C52.2363 22.6324 52.9137 21.0444 52.5765 20.046C52.2403 19.0437 51.7731 18.2343 51.7905 17.6081C51.8053 16.9843 50.9545 19.164 51.2358 20.4799C51.5205 21.798 52.2363 22.6325 52.2363 22.6325V22.6324ZM57.0401 12.5042C57.0401 12.5042 57.7639 11.1189 58.5914 10.9658C59.418 10.8121 60.1813 10.8735 60.6108 10.578C61.0394 10.286 59.9227 12.0529 58.9145 12.4122C57.9213 12.7755 57.0401 12.5042 57.0401 12.5042ZM69.352 3.51146C69.213 3.48596 69.0737 3.46109 68.9372 3.4332C68.6598 3.37521 68.3573 3.31165 68.0355 3.2697C67.2237 3.16443 66.0243 4.12567 66.0243 4.12567C66.0243 4.12567 66.7397 4.61571 67.7909 4.59664C68.8445 4.57948 70.3522 3.40436 70.0083 3.49978C69.6643 3.59528 69.5963 3.5465 69.352 3.51146H69.352ZM63.9208 4.80281C63.9208 4.80281 65.5261 4.13616 65.8787 3.25151C66.2498 2.37345 66.3843 1.54623 66.8165 1.13326C67.2516 0.722121 65.0754 1.70267 64.4363 2.74582C63.8309 3.80399 63.9208 4.80273 63.9208 4.80273V4.80281ZM69.6941 1.88198C69.8967 1.68042 70.0991 1.47855 70.301 1.27603C70.3378 1.24751 70.3761 1.21621 70.4158 1.18912C69.8901 0.843359 67.6407 1.04833 66.5861 2.94444C68.4254 3.17333 69.106 2.51486 69.6941 1.88198ZM52.3266 27.6204C52.3266 27.6204 52.3057 25.8278 52.9089 25.2607C53.518 24.7012 54.1831 24.3993 54.4065 23.8933C54.6308 23.3877 54.4758 25.7381 53.8089 26.5972C53.1482 27.456 52.3267 27.6204 52.3267 27.6204H52.3266ZM61.057 7.90326C61.057 7.90326 62.0164 6.70447 62.8648 6.67389C63.7131 6.63917 64.4541 6.79838 64.9244 6.57537C65.3926 6.35109 63.9849 7.86767 62.9381 8.07352C61.8875 8.27723 61.057 7.90326 61.057 7.90326ZM54.095 17.8779C54.095 17.8779 54.6271 16.3472 55.4104 16.0912C56.2028 15.8446 56.9622 15.8295 57.3417 15.4773C57.7244 15.1225 56.8444 17.093 55.9132 17.5771C54.9854 18.0637 54.095 17.8778 54.095 17.8778V17.8779ZM61.3264 6.62288C61.3264 6.62288 62.8774 5.86844 63.1574 4.95106C63.4559 4.04805 63.5262 3.20527 63.9158 2.76433C64.3202 2.32776 62.2222 3.4224 61.677 4.5102C61.1556 5.61167 61.3263 6.62288 61.3263 6.62288H61.3264ZM57.1187 11.1242C57.1187 11.1242 58.4055 10.0399 58.4524 9.06519C58.5015 8.09561 58.3432 7.23074 58.6156 6.71528C58.8887 6.19648 57.1454 7.70838 56.9063 8.91575C56.6967 10.1396 57.1186 11.1242 57.1186 11.1242H57.1187ZM59.0869 8.75804C59.0869 8.75804 60.5157 7.83605 60.6782 6.88959C60.8483 5.94304 60.8105 5.09287 61.1456 4.60864C61.4809 4.12877 59.5378 5.42973 59.1533 6.58792C58.7775 7.7508 59.0868 8.75804 59.0868 8.75804H59.0869ZM52.9416 19.4681C52.9416 19.4681 53.8044 18.0134 53.5645 16.9997C53.3353 15.9924 52.938 15.1484 53.0205 14.5425C53.1159 13.9439 51.9951 15.9465 52.1393 17.255C52.2946 18.5697 52.9416 19.4681 52.9416 19.4681ZM52.5447 24.1894C52.5447 24.1894 52.7527 22.4765 53.4415 22.0398C54.1426 21.6103 54.8562 21.4302 55.1446 20.981C55.4441 20.5345 54.9811 22.7645 54.1904 23.4678C53.4127 24.1824 52.5447 24.1894 52.5447 24.1894ZM51.8829 25.7944C51.9424 26.9729 52.0396 28.1231 52.1664 29.188C52.294 30.261 52.4513 31.2572 52.61 32.1386C52.479 31.9785 52.3476 31.8144 52.2163 31.6499C51.9289 30.5932 51.6689 29.47 51.4615 28.3065C51.2544 27.1434 51.0952 25.929 51.0108 24.6953C50.8923 24.452 50.7791 24.1787 50.6837 23.8749C50.2854 22.5749 50.8694 20.2407 50.916 20.8743C50.9681 21.5152 51.5053 22.2819 51.9242 23.2567C52.2681 24.0623 51.9883 25.3697 51.8828 25.7943L51.8829 25.7944ZM58.8838 10.0351C58.8838 10.0351 59.7681 8.76917 60.6063 8.69584C61.4519 8.6268 62.21 8.75868 62.6678 8.51231C63.1246 8.26499 61.8176 9.87524 60.7791 10.1311C59.7396 10.382 58.8839 10.035 58.8839 10.035L58.8838 10.0351Z" fill="white"/>
<path fill-rule="evenodd" clip-rule="evenodd" d="M14.1904 75.4047C16.204 75.4047 18.5952 75.1652 19.8537 74.6177C20.42 74.344 20.483 74.2756 20.6717 73.6254C20.9864 72.4623 21.3639 69.4856 21.3639 69.2461C21.3639 68.9723 21.301 68.7328 21.1437 68.7328C20.955 68.7328 20.892 68.8697 20.829 69.2461C20.7347 69.862 20.3256 71.3674 19.6649 72.1201C18.4064 73.5229 16.5501 73.8307 14.1904 73.8307C1.36302 73.8307 1.21533 50.1533 12.9002 49.881C16.8323 49.7893 20.5143 51.3179 20.5143 55.321C20.5143 55.7999 20.5459 56.0395 20.7661 56.0395C21.0179 56.0395 21.0808 55.5262 21.0808 53.884C21.0808 51.8995 21.301 50.2573 21.301 49.881C21.301 49.6757 21.2381 49.5046 20.892 49.5046C19.6964 49.5046 16.8647 48.5807 13.1206 48.5807C3.11532 48.5807 0.000488281 56.1079 0.000488281 61.5822C0.000488281 69.4856 4.59401 75.4046 14.1904 75.4046L14.1904 75.4047Z" fill="#915507"/>
<path fill-rule="evenodd" clip-rule="evenodd" d="M30.6784 52.7196C30.6784 52.4993 30.7413 52.4365 30.8672 52.4365C31.4965 52.4365 34.3282 52.5308 34.5169 52.5308C36.3732 52.5308 37.1284 53.1601 37.3171 53.5691C37.5059 53.9782 37.6003 54.5131 37.6003 54.7647C37.6003 54.985 37.6631 55.1109 37.8205 55.1109C37.9779 55.1109 38.0408 54.9535 38.0723 54.7962C38.1352 54.4187 38.1981 53.0344 38.2297 52.7197C38.3241 51.8387 38.4814 51.4611 38.4814 51.2409C38.4814 51.0835 38.4185 50.8948 38.2926 50.8948C38.1668 50.8948 38.0409 51.0206 37.8521 51.0835C37.7262 51.115 36.971 51.1779 36.4677 51.2094C35.9643 51.2408 31.8084 51.2723 28.4104 51.2723C28.253 51.2723 26.2708 51.1779 24.8549 51.1779C24.5089 51.1779 24.3516 51.2408 24.3516 51.4297C24.3516 51.5555 24.4775 51.6184 24.6033 51.6184C24.8865 51.6184 25.4197 51.6572 25.6731 51.7128C26.7097 51.9404 26.9024 52.4047 26.9945 53.1601C27.0596 53.6947 27.0889 55.0165 27.0889 60.3023V65.8399C27.0889 69.6782 27.032 72.2281 26.8687 73.045C26.686 73.9586 26.5214 74.2371 26.0192 74.3978C25.7348 74.4889 25.3584 74.5238 25.0753 74.5238C24.8865 74.5238 24.8235 74.6181 24.8235 74.7125C24.8235 74.9013 24.9809 74.9642 25.3269 74.9642C26.0191 74.9642 27.5922 74.8699 28.4103 74.8699C29.3227 74.8699 32.3773 75.0586 37.1284 75.0586C38.3555 75.0586 38.6071 75.0586 38.8275 74.2407C38.9848 73.5798 39.2364 71.4404 39.2364 71.1887C39.2364 70.9684 39.2364 70.7166 39.0477 70.7166C38.8903 70.7166 38.8275 70.8425 38.7645 71.1887C38.5442 72.4787 38.1668 73.1079 37.3487 73.4539C36.5307 73.8001 35.1463 73.8001 34.3282 73.8001C31.2449 73.8001 30.6785 73.2968 30.6785 71.2201V63.0711C30.6785 62.9453 30.7414 62.8509 30.8988 62.8509C31.4336 62.8509 34.5485 62.9138 35.3981 63.0081C36.6251 63.134 36.9081 63.6689 37.0341 64.1093C37.1599 64.5183 37.1599 64.833 37.1599 65.1476C37.1599 65.3049 37.2228 65.4308 37.3802 65.4308C37.569 65.4308 37.6005 65.1791 37.6005 64.833C37.6005 63.2913 37.978 61.1833 37.978 61.0573C37.978 60.8686 37.9151 60.8056 37.8206 60.8056C37.6947 60.8056 37.5689 60.9629 37.3487 61.2146C37.0655 61.5293 36.6251 61.5922 35.8699 61.6551C35.1463 61.718 31.2762 61.718 30.8673 61.718C30.7099 61.718 30.6785 61.6236 30.6785 61.4035V52.7195L30.6784 52.7196Z" fill="#915507"/>
<path fill-rule="evenodd" clip-rule="evenodd" d="M45.5328 65.8398C45.5328 68.8602 45.5429 71.3472 45.3754 72.6674C45.2596 73.5811 45.0912 74.2678 44.463 74.3977C44.179 74.4565 43.8022 74.5237 43.5191 74.5237C43.3303 74.5237 43.2673 74.6181 43.2673 74.7124C43.2673 74.9012 43.4247 74.9641 43.7707 74.9641C44.7146 74.9641 46.6968 74.8698 46.7282 74.8698C46.8856 74.8698 49.8146 74.9641 51.5449 74.9641C51.8911 74.9641 52.0484 74.8698 52.0484 74.7124C52.0484 74.6181 51.9855 74.5237 51.7966 74.5237C51.5134 74.5237 50.8212 74.4607 50.3808 74.3977C49.4369 74.2719 49.2481 73.5798 49.1538 72.6674C48.9964 71.3459 48.9964 68.8604 48.9964 65.8398V65.0847C48.9964 64.9273 49.0603 64.8236 49.2166 64.8329C53.7066 65.1034 54.5059 66.4105 57.2045 71.0122C60.2011 76.122 63.2342 81.2796 67.9093 82.5326C70.4391 83.2107 73.6276 83.0255 75.528 80.8758C75.8605 80.4996 75.8124 80.279 75.2818 80.5837C70.5419 83.3055 66.8414 79.9657 64.0411 76.0674C61.5576 72.6106 58.7643 66.0331 54.8213 64.6415C62.3362 63.2976 63.4123 50.8648 51.5135 51.1778C50.5385 51.2035 47.2003 51.2722 46.8542 51.2722C46.6968 51.2722 44.7147 51.1778 43.2988 51.1778C42.9526 51.1778 42.7954 51.2407 42.7954 51.4296C42.7954 51.5554 42.9213 51.6183 43.0471 51.6183C43.3303 51.6183 43.8635 51.6571 44.1169 51.7127C45.1536 51.9403 45.405 52.4366 45.4699 53.5061C45.5308 54.513 45.5328 55.394 45.5328 60.3022V65.8398ZM48.9965 52.751C48.9965 52.5623 49.0909 52.4365 49.2482 52.3736C49.5629 52.2792 50.4124 52.1848 51.3563 52.1848C54.7228 52.1848 56.7994 54.5445 56.7994 58.4774C56.7994 62.5464 53.8224 63.8839 51.3129 63.8453C50.4479 63.832 49.6607 63.6476 49.2168 63.4172C49.054 63.3329 48.9966 63.1969 48.9966 63.0397V52.7512L48.9965 52.751Z" fill="#915507"/>
<path fill-rule="evenodd" clip-rule="evenodd" d="M72.0124 52.7196C72.0124 52.4993 72.0753 52.4365 72.2012 52.4365C72.8305 52.4365 75.6621 52.5308 75.8509 52.5308C77.7073 52.5308 78.4624 53.1601 78.6511 53.5691C78.8399 53.9782 78.9343 54.5131 78.9343 54.7647C78.9343 54.985 78.9972 55.1109 79.1546 55.1109C79.312 55.1109 79.3749 54.9535 79.4063 54.7962C79.4692 54.4187 79.5321 53.0344 79.5637 52.7197C79.658 51.8387 79.8154 51.4611 79.8154 51.2409C79.8154 51.0835 79.7525 50.8948 79.6266 50.8948C79.5007 50.8948 79.375 51.0206 79.1861 51.0835C79.0603 51.115 78.305 51.1779 77.8017 51.2094C77.2983 51.2408 73.1424 51.2723 69.7444 51.2723C69.587 51.2723 67.6049 51.1779 66.189 51.1779C65.8429 51.1779 65.6855 51.2408 65.6855 51.4297C65.6855 51.5555 65.8115 51.6184 65.9373 51.6184C66.2206 51.6184 66.7536 51.6572 67.0072 51.7128C68.0438 51.9404 68.2365 52.4047 68.3285 53.1601C68.3936 53.6947 68.423 55.0165 68.423 60.3023V65.8399C68.423 69.6782 68.366 72.2281 68.2027 73.045C68.02 73.9586 67.8555 74.2371 67.3532 74.3978C67.0689 74.4889 66.6924 74.5238 66.4092 74.5238C66.2205 74.5238 66.1575 74.6181 66.1575 74.7125C66.1575 74.9013 66.3149 74.9642 66.6609 74.9642C67.3531 74.9642 68.9262 74.8699 69.7443 74.8699C70.6568 74.8699 73.7114 75.0586 78.4624 75.0586C79.6894 75.0586 79.9412 75.0586 80.1614 74.2407C80.3188 73.5798 80.5705 71.4404 80.5705 71.1887C80.5705 70.9684 80.5705 70.7166 80.3817 70.7166C80.2243 70.7166 80.1614 70.8425 80.0985 71.1887C79.8783 72.4787 79.5007 73.1079 78.6827 73.4539C77.8647 73.8001 76.4803 73.8001 75.6622 73.8001C72.5789 73.8001 72.0125 73.2968 72.0125 71.2201V63.0711C72.0125 62.9453 72.0754 62.8509 72.2328 62.8509C72.7676 62.8509 75.8825 62.9138 76.7321 63.0081C77.9591 63.134 78.2422 63.6689 78.3681 64.1093C78.494 64.5183 78.494 64.833 78.494 65.1476C78.494 65.3049 78.5569 65.4308 78.7142 65.4308C78.903 65.4308 78.9344 65.1791 78.9344 64.833C78.9344 63.2913 79.3121 61.1833 79.3121 61.0573C79.3121 60.8686 79.2491 60.8056 79.1547 60.8056C79.0287 60.8056 78.9029 60.9629 78.6826 61.2146C78.3995 61.5293 77.959 61.5922 77.2038 61.6551C76.4802 61.718 72.6101 61.718 72.2012 61.718C72.0438 61.718 72.0124 61.6236 72.0124 61.4035V52.7195V52.7196Z" fill="#915507"/>
<path fill-rule="evenodd" clip-rule="evenodd" d="M87.0478 65.8397C87.0478 68.8602 87.0577 71.3472 86.8904 72.6674C86.7746 73.5811 86.6062 74.2678 85.9779 74.3978C85.6938 74.4565 85.3171 74.5237 85.034 74.5237C84.8452 74.5237 84.7822 74.618 84.7822 74.7125C84.7822 74.9012 84.9396 74.9642 85.2856 74.9642C86.2295 74.9642 89.1584 74.8698 89.1897 74.8698C89.3471 74.8698 91.3294 74.9642 93.0598 74.9642C93.406 74.9642 93.5633 74.8698 93.5633 74.7125C93.5633 74.618 93.5004 74.5237 93.3115 74.5237C93.0283 74.5237 92.336 74.4608 91.8957 74.3978C90.9518 74.2719 90.763 73.5798 90.6687 72.6674C90.5112 71.346 90.5112 68.8603 90.5112 65.8397V65.0847C90.5112 64.9273 90.5744 64.8376 90.7316 64.833C91.5575 64.8089 92.8032 64.9312 93.442 64.9377C96.7457 64.971 98.1005 75.023 105.986 74.9628C107.885 74.9711 109.786 74.9642 111.685 74.9642C111.969 74.9642 112.158 74.9012 112.158 74.7124C112.158 74.5866 112.063 74.5236 111.843 74.5236H111.528C110.993 74.5236 110.333 74.2406 110.333 73.6112C110.333 73.045 110.49 72.2898 110.773 71.5032L112.661 65.9341C112.724 65.7769 112.818 65.6824 112.975 65.6824H119.74C119.897 65.6824 119.96 65.7452 120.023 65.8711L122.949 73.6111C123.012 73.737 123.012 73.9258 123.012 74.0201C123.012 74.3032 122.823 74.4606 122.76 74.4606C122.666 74.4606 122.54 74.555 122.54 74.6809C122.54 74.8696 122.886 74.8807 123.484 74.9011C125.655 74.9751 128.899 74.9641 129.37 74.9641C129.717 74.9641 130 74.9011 130 74.7123C130 74.5549 129.874 74.5235 129.685 74.5235C129.37 74.5235 128.902 74.4802 128.427 74.3349C127.769 74.134 126.849 73.6446 125.721 70.8423C123.797 66.0619 118.858 53.0669 118.39 51.87C118.009 50.896 116.94 50.7373 116.751 50.7373C116.562 50.7373 116.436 50.9261 116.059 51.9643L108.917 71.5031C107.897 74.3355 107.095 74.9869 104.676 73.029C101.607 70.546 99.3612 65.6535 97.15 64.3596C104.148 62.0725 103.675 51.2449 94.4057 51.1778C93.4304 51.1707 89.6617 51.2721 89.3155 51.2721C89.1583 51.2721 86.2294 51.1778 84.8135 51.1778C84.4674 51.1778 84.3101 51.2407 84.3101 51.4295C84.3101 51.5553 84.436 51.6183 84.5618 51.6183C84.8451 51.6183 85.3782 51.6571 85.6317 51.7126C86.6684 51.9401 86.9198 52.4365 86.9846 53.5061C87.0457 54.513 87.0476 55.3939 87.0476 60.3023V65.8396L87.0478 65.8397ZM113.322 64.5497C113.227 64.5497 113.164 64.487 113.227 64.3296L115.996 55.8344C116.059 55.6142 116.153 55.4883 116.216 55.4883C116.311 55.4883 116.374 55.5826 116.468 55.8344L119.457 64.3296C119.489 64.4553 119.489 64.5497 119.331 64.5497H113.322ZM90.5113 52.751C90.5113 52.5622 90.6057 52.4365 90.7631 52.3735C91.0778 52.2791 91.9274 52.1848 92.8712 52.1848C96.2378 52.1848 98.3143 54.5444 98.3143 58.4774C98.3143 62.0203 96.2164 63.9204 93.4718 63.7327C92.0906 63.6381 91.2035 63.7002 90.7318 63.4172C90.5745 63.3229 90.5114 63.1969 90.5114 63.0397V52.7512L90.5113 52.751Z" fill="#915507"/>
</g>
<defs>
<clipPath id="clip0_0_52">
<rect width="130" height="82.8825" fill="white"/>
</clipPath>
</defs>
</svg>
