<svg width="40" height="40" viewBox="0 0 40 40" fill="none" xmlns="http://www.w3.org/2000/svg">
<g clip-path="url(#clip0_0_277)">
<circle cx="20.0002" cy="20" r="16.6667" fill="white"/>
<path d="M14.6847 18.2746C15.6082 18.2746 16.3568 17.526 16.3568 16.6026C16.3568 15.6791 15.6082 14.9305 14.6847 14.9305C13.7613 14.9305 13.0127 15.6791 13.0127 16.6026C13.0127 17.526 13.7613 18.2746 14.6847 18.2746Z" fill="#D50000"/>
<path d="M25.3073 25.0612C26.2307 25.0612 26.9793 24.3126 26.9793 23.3892C26.9793 22.4658 26.2307 21.7172 25.3073 21.7172C24.3838 21.7172 23.6353 22.4658 23.6353 23.3892C23.6353 24.3126 24.3838 25.0612 25.3073 25.0612Z" fill="#D50000"/>
<path d="M39.0933 22.2089L38.4867 21.3811C37.831 20.4795 37.8147 19.2582 38.4622 18.3402L39.0523 17.5042C39.9539 16.2256 39.5359 14.447 38.1507 13.7012L37.2491 13.2176C36.2656 12.693 35.7246 11.5947 35.9131 10.4882L36.0852 9.48007C36.3475 7.93918 35.1918 6.51303 33.6264 6.44746L32.6018 6.40647C31.4871 6.3573 30.52 5.60324 30.2085 4.52953L29.9216 3.54598C29.4872 2.03786 27.8316 1.25922 26.3891 1.88213L25.4465 2.28375C24.422 2.72635 23.2253 2.46407 22.4794 1.62805L21.7992 0.865798C20.7582 -0.298072 18.9305 -0.289876 17.8977 0.898583L17.2256 1.66903C16.488 2.51325 15.2995 2.79192 14.2668 2.36571L13.316 1.97229C11.8653 1.37397 10.226 2.1854 9.80801 3.69351L9.53753 4.68526C9.24247 5.76717 8.2917 6.53761 7.17701 6.59499L6.15247 6.65236C4.58699 6.74252 3.4559 8.18506 3.74277 9.72596L3.93128 10.7341C4.13619 11.8324 3.61163 12.9389 2.63627 13.4799L1.74288 13.9798C0.374105 14.7421 -0.019316 16.5289 0.906862 17.7911L1.51339 18.6189C2.16909 19.5205 2.18548 20.7417 1.53797 21.6597L0.947844 22.4957C0.0462541 23.7744 0.464264 25.553 1.84943 26.2988L2.75102 26.7824C3.73457 27.307 4.27553 28.4053 4.08701 29.5118L3.91489 30.5199C3.65261 32.0608 4.80829 33.4869 6.37377 33.5525L7.39831 33.5935C8.513 33.6427 9.48016 34.3967 9.79162 35.4704L10.0785 36.454C10.5129 37.9621 12.1685 38.7407 13.6111 38.1178L14.5536 37.7162C15.5782 37.2736 16.7748 37.5359 17.5207 38.3719L18.201 39.1342C19.2501 40.298 21.0779 40.2898 22.1024 39.1014L22.7745 38.3309C23.5122 37.4867 24.7006 37.208 25.7334 37.6343L26.6841 38.0277C28.1349 38.626 29.7741 37.8146 30.1921 36.3065L30.4626 35.3147C30.7577 34.2328 31.7084 33.4624 32.8231 33.405L33.8477 33.3476C35.4132 33.2574 36.5442 31.8149 36.2574 30.274L36.0689 29.2659C35.8639 28.1676 36.3885 27.0611 37.3639 26.5201L38.2573 26.0201C39.626 25.2661 40.0195 23.4793 39.0933 22.2089ZM10.644 16.6026C10.644 14.3732 12.4472 12.5701 14.6766 12.5701C16.906 12.5701 18.7092 14.3732 18.7092 16.6026C18.7092 18.832 16.906 20.6352 14.6766 20.6352C12.4472 20.6352 10.644 18.8238 10.644 16.6026ZM15.4552 27.0037C15.111 27.4217 14.4881 27.4791 14.0701 27.1348C13.6521 26.7906 13.5947 26.1677 13.9389 25.7497L24.5203 13.0045C24.8646 12.5865 25.4875 12.5291 25.9055 12.8733C26.3235 13.2176 26.3809 13.8405 26.0366 14.2585L15.4552 27.0037ZM25.3072 27.4217C23.0778 27.4217 21.2746 25.6185 21.2746 23.3891C21.2746 21.1598 23.0778 19.3566 25.3072 19.3566C27.5365 19.3566 29.3397 21.1598 29.3397 23.3891C29.3397 25.6185 27.5365 27.4217 25.3072 27.4217Z" fill="#D50000"/>
</g>
<defs>
<clipPath id="clip0_0_277">
<rect width="40" height="40" fill="white"/>
</clipPath>
</defs>
</svg>
